M48
; DRILL file KiCad 10.0.5 date 2026-09-28T12:26:21
; FORMAT={-:-/ absolute / metric / decimal}
; #@! TF.CreationDate,2026-09-28T12:26:21-04:00
; #@! TF.GenerationSoftware,Kicad,Pcbnew,10.0.5
; #@! TF.FileFunction,Plated,1,4,PTH
FMAT,2
METRIC
; #@! TA.AperFunction,Plated,PTH,ViaDrill
T1C0.300
; #@! TA.AperFunction,Plated,PTH,ComponentDrill
T2C0.500
; #@! TA.AperFunction,Plated,PTH,ComponentDrill
T3C4.500
%
G90
G05
T1
X70.5Y-63.0
X70.5Y-64.0
X70.5Y-65.0
X70.5Y-66.0
X70.5Y-67.0
X70.5Y-68.5
X70.5Y-70.0
X70.5Y-71.0
X70.5Y-72.0
X70.5Y-73.0
X70.5Y-74.0
X71.5Y-74.5
X72.5Y-62.5
X72.5Y-63.5
X73.5Y-81.0
X73.5Y-82.5
X73.5Y-83.5
X73.5Y-84.5
X73.5Y-85.5
X73.5Y-87.0
X73.5Y-89.0
X73.5Y-90.5
X73.5Y-91.5
X73.5Y-92.5
X73.5Y-93.5
X73.5Y-95.0
X74.0Y-62.5
X74.0Y-63.5
X74.5Y-81.0
X74.5Y-82.5
X74.5Y-83.5
X74.5Y-84.5
X74.5Y-85.5
X74.5Y-87.0
X74.5Y-89.0
X74.5Y-90.5
X74.5Y-91.5
X74.5Y-92.5
X74.5Y-93.5
X74.5Y-95.0
X75.0Y-62.5
X75.0Y-63.5
X75.5Y-81.5
X75.5Y-82.5
X75.5Y-83.5
X75.5Y-84.5
X75.5Y-85.5
X75.5Y-87.0
X75.5Y-89.5
X75.5Y-90.5
X75.5Y-91.5
X75.5Y-92.5
X75.5Y-93.5
X75.5Y-95.0
X76.0Y-62.5
X76.0Y-63.5
X77.0Y-62.5
X77.0Y-63.5
X77.0Y-82.5
X77.0Y-84.0
X77.0Y-85.0
X77.0Y-86.0
X77.0Y-87.0
X77.0Y-88.5
X77.5Y-90.0
X77.5Y-91.5
X77.5Y-92.5
X77.5Y-93.5
X77.5Y-94.5
X77.5Y-96.0
X78.0Y-82.5
X78.0Y-84.0
X78.0Y-85.0
X78.0Y-86.0
X78.0Y-87.0
X78.0Y-88.5
X78.5Y-62.5
X78.5Y-63.5
X78.5Y-80.0
X78.5Y-81.0
X78.5Y-90.0
X78.5Y-91.5
X78.5Y-92.5
X78.5Y-93.5
X78.5Y-94.5
X78.5Y-96.0
X79.0Y-83.0
X79.0Y-84.0
X79.0Y-85.0
X79.0Y-86.0
X79.0Y-87.0
X79.0Y-88.5
X79.5Y-90.5
X79.5Y-91.5
X79.5Y-92.5
X79.5Y-93.5
X79.5Y-94.5
X79.5Y-96.0
X80.0Y-62.5
X80.0Y-79.0
X80.0Y-80.0
X80.0Y-81.0
X80.5Y-64.0
X80.5Y-68.0
X80.5Y-69.0
X80.5Y-70.0
X80.6Y-71.6
X80.6Y-72.6
X80.6Y-73.6
X81.0Y-63.0
X81.0Y-77.8
X81.0Y-79.0
X81.0Y-80.0
X81.0Y-81.0
X81.0Y-83.0
X81.0Y-84.5
X81.0Y-85.5
X81.0Y-86.5
X81.0Y-87.5
X81.0Y-89.0
X81.5Y-90.5
X81.5Y-91.5
X81.5Y-92.5
X81.5Y-94.0
X81.5Y-95.0
X81.5Y-96.0
X81.8Y-67.6
X81.8Y-68.6
X81.8Y-69.6
X82.0Y-64.0
X82.0Y-65.0
X82.0Y-66.0
X82.0Y-71.0
X82.0Y-72.0
X82.0Y-73.0
X82.0Y-79.0
X82.0Y-80.0
X82.0Y-81.0
X82.0Y-83.0
X82.0Y-84.5
X82.0Y-85.5
X82.0Y-86.5
X82.0Y-87.5
X82.0Y-89.0
X83.0Y-64.0
X83.0Y-65.0
X83.0Y-66.0
X83.0Y-71.0
X83.0Y-72.0
X83.0Y-73.0
X83.0Y-79.0
X83.0Y-80.0
X83.0Y-81.0
X83.0Y-83.5
X83.0Y-84.5
X83.0Y-85.5
X83.0Y-86.5
X83.0Y-87.5
X83.0Y-89.0
X83.0Y-90.5
X83.0Y-91.5
X83.0Y-92.5
X83.0Y-94.0
X83.0Y-95.0
X83.0Y-96.0
X84.0Y-64.0
X84.0Y-65.0
X84.0Y-66.0
X84.0Y-71.0
X84.0Y-72.0
X84.0Y-73.0
X84.0Y-81.0
X84.0Y-90.5
X84.0Y-91.5
X84.0Y-92.5
X84.0Y-94.0
X84.0Y-95.0
X84.0Y-96.0
X84.5Y-57.5
X84.5Y-79.0
X84.5Y-80.0
X85.0Y-64.0
X85.0Y-65.0
X85.0Y-66.0
X85.0Y-90.5
X85.0Y-91.5
X85.0Y-92.5
X85.0Y-94.0
X85.0Y-95.0
X85.0Y-96.0
X85.5Y-71.5
X85.5Y-72.5
X85.5Y-73.5
X85.75Y-81.25
X86.0Y-66.0
X86.0Y-90.5
X86.0Y-91.5
X86.0Y-92.5
X86.0Y-94.0
X86.0Y-95.0
X86.0Y-96.0
X86.5Y-71.5
X86.5Y-72.5
X86.5Y-73.5
X87.0Y-92.5
X87.0Y-96.0
X87.25Y-81.25
X87.5Y-65.5
X87.5Y-67.5
X87.5Y-71.5
X87.5Y-72.5
X87.5Y-73.5
X87.5Y-82.5
X87.5Y-90.5
X87.5Y-91.5
X87.5Y-94.0
X87.5Y-95.0
X88.25Y-82.5
X89.5Y-91.0
X89.5Y-92.0
X89.5Y-93.0
X89.5Y-94.0
X89.5Y-95.0
X89.5Y-96.0
X91.0Y-91.0
X91.0Y-92.0
X91.0Y-93.0
X91.0Y-94.0
X91.0Y-95.0
X91.0Y-96.0
X91.25Y-82.5
X92.0Y-72.0
X92.0Y-73.0
X92.0Y-74.0
X92.0Y-81.25
X92.0Y-91.0
X92.0Y-92.0
X92.0Y-93.0
X92.0Y-94.0
X92.0Y-95.0
X92.0Y-96.0
X92.5Y-67.0
X92.5Y-68.0
X92.5Y-69.0
X92.5Y-82.5
X93.0Y-59.5
X93.0Y-60.5
X93.0Y-61.5
X93.0Y-72.0
X93.0Y-73.0
X93.0Y-74.0
X93.0Y-91.0
X93.0Y-92.0
X93.0Y-93.0
X93.0Y-94.0
X93.0Y-95.0
X93.0Y-96.0
X93.25Y-81.25
X93.25Y-85.25
X93.5Y-82.5
X93.5Y-83.5
X93.5Y-84.5
X94.0Y-59.5
X94.0Y-60.5
X94.0Y-61.5
X94.0Y-67.0
X94.0Y-68.0
X94.0Y-69.0
X94.0Y-72.0
X94.0Y-73.0
X94.0Y-74.0
X94.0Y-91.0
X94.0Y-92.0
X94.0Y-93.0
X94.0Y-94.0
X94.0Y-95.0
X94.0Y-96.0
X94.25Y-79.25
X94.5Y-78.0
X94.5Y-82.5
X94.5Y-83.5
X94.75Y-81.25
X95.0Y-59.5
X95.0Y-60.5
X95.0Y-61.5
X95.0Y-67.0
X95.0Y-68.0
X95.0Y-69.0
X95.0Y-78.5
X95.0Y-79.5
X95.0Y-80.5
X95.0Y-93.0
X95.0Y-96.0
X95.5Y-91.0
X95.5Y-92.0
X95.5Y-94.0
X95.5Y-95.0
X95.75Y-78.0
X95.75Y-82.75
X96.0Y-67.0
X96.0Y-68.0
X96.0Y-69.0
X96.0Y-72.0
X96.0Y-73.0
X96.0Y-74.0
X96.0Y-79.5
X96.0Y-80.5
X96.25Y-81.25
X96.5Y-59.5
X96.5Y-60.5
X96.5Y-61.5
X97.0Y-67.0
X97.0Y-68.0
X97.0Y-69.0
X97.0Y-72.0
X97.0Y-73.0
X97.0Y-74.0
X97.0Y-91.0
X97.0Y-92.0
X97.0Y-93.0
X97.0Y-94.0
X97.0Y-95.0
X97.0Y-96.0
X97.5Y-59.5
X97.5Y-60.5
X97.5Y-61.5
X97.5Y-81.25
X98.0Y-69.0
X98.0Y-72.0
X98.0Y-73.0
X98.0Y-74.0
X98.5Y-59.5
X98.5Y-60.5
X98.5Y-61.5
X98.5Y-67.0
X98.5Y-68.0
X98.5Y-91.0
X98.5Y-92.0
X98.5Y-93.0
X98.5Y-94.0
X98.5Y-95.0
X98.5Y-96.0
X98.75Y-81.25
X99.5Y-91.0
X99.5Y-92.0
X99.5Y-93.0
X99.5Y-94.0
X99.5Y-95.0
X99.5Y-96.0
X99.75Y-82.5
X100.5Y-91.0
X100.5Y-92.0
X100.5Y-93.0
X100.5Y-94.0
X100.5Y-95.0
X100.5Y-96.0
X101.0Y-82.5
X101.25Y-85.25
X101.5Y-84.5
X101.5Y-91.0
X101.5Y-92.0
X101.5Y-93.0
X101.5Y-94.0
X101.5Y-95.0
X101.5Y-96.0
X102.0Y-82.5
X102.0Y-83.5
X102.5Y-81.0
X102.5Y-84.25
X102.5Y-85.25
X102.5Y-93.0
X102.5Y-96.0
X103.0Y-59.5
X103.0Y-60.5
X103.0Y-61.5
X103.0Y-82.5
X103.0Y-91.0
X103.0Y-92.0
X103.0Y-94.0
X103.0Y-95.0
X103.5Y-67.0
X103.5Y-68.0
X103.5Y-69.0
X103.5Y-78.5
X103.5Y-79.5
X103.5Y-80.5
X104.0Y-59.5
X104.0Y-60.5
X104.0Y-61.5
X104.0Y-72.0
X104.0Y-73.0
X104.0Y-74.0
X104.5Y-91.0
X104.5Y-92.0
X104.5Y-93.0
X104.5Y-94.0
X104.5Y-95.0
X104.5Y-96.0
X105.0Y-59.5
X105.0Y-60.5
X105.0Y-61.5
X105.0Y-67.0
X105.0Y-68.0
X105.0Y-69.0
X105.0Y-72.0
X105.0Y-73.0
X105.0Y-74.0
X105.0Y-78.5
X105.0Y-79.5
X105.0Y-80.5
X106.0Y-67.0
X106.0Y-68.0
X106.0Y-69.0
X106.0Y-72.0
X106.0Y-73.0
X106.0Y-74.0
X106.0Y-77.75
X106.0Y-78.5
X106.0Y-79.5
X106.0Y-80.5
X106.0Y-91.0
X106.0Y-92.0
X106.0Y-93.0
X106.0Y-94.0
X106.0Y-95.0
X106.0Y-96.0
X107.0Y-59.5
X107.0Y-60.5
X107.0Y-61.5
X107.0Y-67.0
X107.0Y-68.0
X107.0Y-69.0
X107.0Y-78.5
X107.0Y-79.5
X107.0Y-80.5
X107.0Y-91.0
X107.0Y-92.0
X107.0Y-93.0
X107.0Y-94.0
X107.0Y-95.0
X107.0Y-96.0
X107.5Y-72.0
X107.5Y-73.0
X107.5Y-74.0
X108.0Y-59.5
X108.0Y-60.5
X108.0Y-61.5
X108.0Y-67.0
X108.0Y-68.0
X108.0Y-69.0
X108.0Y-78.5
X108.0Y-79.5
X108.0Y-80.5
X108.0Y-82.75
X108.0Y-91.0
X108.0Y-92.0
X108.0Y-93.0
X108.0Y-94.0
X108.0Y-95.0
X108.0Y-96.0
X108.5Y-72.0
X108.5Y-73.0
X108.5Y-74.0
X109.0Y-59.5
X109.0Y-60.5
X109.0Y-61.5
X109.0Y-69.0
X109.0Y-80.5
X109.0Y-91.0
X109.0Y-92.0
X109.0Y-93.0
X109.0Y-94.0
X109.0Y-95.0
X109.0Y-96.0
X109.5Y-67.0
X109.5Y-68.0
X109.5Y-72.0
X109.5Y-73.0
X109.5Y-74.0
X109.5Y-78.5
X109.5Y-79.5
X109.595Y-82.655
X109.595Y-83.655
X109.595Y-84.655
X110.0Y-93.0
X110.0Y-96.0
X110.5Y-91.0
X110.5Y-92.0
X110.5Y-94.0
X110.5Y-95.0
X110.595Y-82.655
X110.595Y-83.655
X110.595Y-84.655
X111.595Y-82.655
X111.595Y-83.655
X112.5Y-91.0
X112.5Y-92.0
X112.5Y-93.0
X112.5Y-94.5
X112.5Y-95.5
X112.5Y-96.5
X114.0Y-91.0
X114.0Y-92.0
X114.0Y-93.0
X114.0Y-94.5
X114.0Y-95.5
X114.0Y-96.5
X114.5Y-60.0
X114.5Y-61.0
X114.5Y-62.0
X115.0Y-72.0
X115.0Y-73.0
X115.0Y-74.0
X115.0Y-91.0
X115.0Y-92.0
X115.0Y-93.0
X115.0Y-94.5
X115.0Y-95.5
X115.0Y-96.5
X115.5Y-60.0
X115.5Y-61.0
X115.5Y-62.0
X115.5Y-76.0
X115.5Y-77.0
X115.5Y-78.0
X116.0Y-64.0
X116.0Y-65.0
X116.0Y-66.0
X116.0Y-67.0
X116.0Y-68.0
X116.0Y-69.0
X116.0Y-72.0
X116.0Y-73.0
X116.0Y-74.0
X116.0Y-79.5
X116.0Y-80.5
X116.0Y-81.5
X116.0Y-91.0
X116.0Y-92.0
X116.0Y-93.0
X116.0Y-94.5
X116.0Y-95.5
X116.0Y-96.5
X116.25Y-82.75
X116.5Y-60.0
X116.5Y-61.0
X116.5Y-62.0
X116.5Y-76.0
X116.5Y-77.0
X116.5Y-78.0
X117.0Y-64.0
X117.0Y-65.0
X117.0Y-66.0
X117.0Y-67.0
X117.0Y-68.0
X117.0Y-69.0
X117.0Y-72.0
X117.0Y-73.0
X117.0Y-74.0
X117.0Y-79.5
X117.0Y-80.5
X117.0Y-81.5
X117.0Y-91.0
X117.0Y-92.0
X117.0Y-93.0
X117.0Y-94.5
X117.0Y-95.5
X117.0Y-96.5
X117.5Y-76.0
X117.5Y-77.0
X117.5Y-78.0
X117.75Y-82.75
X118.0Y-64.0
X118.0Y-65.0
X118.0Y-66.0
X118.0Y-67.0
X118.0Y-68.0
X118.0Y-69.0
X118.0Y-79.5
X118.0Y-80.5
X118.0Y-81.5
X118.0Y-85.0
X118.0Y-93.0
X118.0Y-96.5
X118.5Y-83.0
X118.5Y-84.0
X118.5Y-85.5
X118.5Y-91.0
X118.5Y-92.0
X118.5Y-94.5
X118.5Y-95.5
X119.25Y-84.0
X119.25Y-85.0
X119.5Y-80.75
X119.5Y-81.75
X119.5Y-83.0
X120.5Y-80.75
X120.5Y-81.75
X120.5Y-91.0
X120.5Y-92.0
X120.5Y-93.0
X121.5Y-80.75
X121.5Y-81.75
X122.0Y-91.0
X122.0Y-92.0
X122.0Y-93.0
X122.5Y-80.75
X122.5Y-81.75
X123.0Y-91.0
X123.0Y-92.0
X123.0Y-93.0
X124.0Y-80.5
X124.0Y-81.5
X124.0Y-82.5
X124.0Y-91.0
X124.0Y-92.0
X124.0Y-93.0
X124.25Y-71.75
X125.0Y-73.0
X125.0Y-76.25
X125.0Y-77.25
X125.0Y-78.25
X125.0Y-91.0
X125.0Y-92.0
X125.0Y-93.0
X125.25Y-80.5
X125.25Y-81.5
X125.25Y-82.5
X125.5Y-71.5
X126.0Y-75.0
X126.75Y-76.25
X126.75Y-77.25
X126.75Y-78.25
X126.75Y-80.25
X126.75Y-81.25
X126.75Y-82.25
X127.0Y-91.0
X127.0Y-92.0
X127.5Y-71.0
X128.0Y-72.0
X128.5Y-91.5
X128.5Y-92.5
X128.5Y-93.5
X129.0Y-80.25
X129.0Y-81.25
X129.0Y-82.25
X129.5Y-71.5
X130.0Y-91.5
X130.0Y-92.5
X130.0Y-93.5
X130.5Y-80.0
X130.5Y-81.0
X130.5Y-82.0
X130.5Y-105.0
X131.0Y-70.5
X131.0Y-71.5
X131.0Y-91.5
X131.0Y-92.5
X131.0Y-93.5
X132.0Y-91.5
X132.0Y-92.5
X132.0Y-93.5
X132.25Y-80.0
X132.25Y-81.0
X132.25Y-82.0
X132.5Y-70.5
X132.5Y-71.5
X132.5Y-101.75
X133.0Y-74.0
X133.0Y-91.5
X133.0Y-92.5
X133.0Y-93.5
X133.5Y-73.0
X134.0Y-79.0
X134.0Y-91.5
X134.0Y-92.5
X134.0Y-93.5
X134.5Y-70.5
X134.5Y-71.5
X135.0Y-104.75
X135.0Y-111.75
X135.25Y-103.0
X135.75Y-80.75
X136.0Y-70.5
X136.0Y-71.5
X136.0Y-91.5
X136.0Y-92.5
X136.0Y-93.5
X136.0Y-108.0
X136.25Y-95.5
X136.25Y-110.5
X136.5Y-109.25
X136.75Y-106.5
X137.0Y-56.0
X137.0Y-57.5
X137.0Y-59.0
X137.0Y-61.0
X137.0Y-62.5
X137.0Y-64.0
X137.0Y-65.5
X137.0Y-67.0
X137.0Y-68.5
X137.463Y-99.212
X137.5Y-70.5
X137.5Y-71.5
X137.5Y-91.5
X137.5Y-92.5
X137.5Y-93.5
X138.0Y-56.0
X138.0Y-57.5
X138.0Y-59.0
X138.0Y-61.0
X138.0Y-62.5
X138.0Y-64.0
X138.0Y-65.5
X138.0Y-67.0
X138.0Y-68.5
X138.25Y-80.75
X138.5Y-91.5
X138.5Y-92.5
X138.5Y-93.5
X139.0Y-70.0
X139.0Y-71.0
X139.5Y-91.5
X139.5Y-92.5
X139.5Y-93.5
X140.0Y-80.0
X140.125Y-76.625
X140.4Y-79.0
X140.5Y-55.5
X140.5Y-70.0
X140.5Y-71.0
X140.5Y-91.5
X140.5Y-92.5
X140.5Y-93.5
X140.5Y-102.25
X140.5Y-103.525
X140.5Y-115.0
X140.528Y-104.778
X140.75Y-116.25
X141.0Y-77.0
X141.5Y-93.5
X141.5Y-112.0
X141.75Y-78.25
X141.75Y-79.75
X141.75Y-101.25
X142.0Y-70.0
X142.0Y-71.0
X142.0Y-91.5
X142.0Y-92.5
X142.5Y-55.5
X143.45Y-102.72
X143.45Y-104.04
X143.45Y-105.36
X143.45Y-106.68
X143.45Y-108.0
X143.45Y-109.32
X143.45Y-110.64
X143.5Y-71.0
X143.5Y-72.0
X143.5Y-82.5
X143.544Y-80.751
X144.0Y-55.5
X144.0Y-56.5
X144.5Y-57.5
X144.5Y-59.0
X144.5Y-60.5
X144.5Y-62.0
X144.5Y-63.5
X144.5Y-65.0
X144.5Y-66.5
X144.5Y-68.0
X144.5Y-69.5
X144.744Y-82.256
X144.75Y-102.72
X144.75Y-104.04
X144.75Y-105.36
X144.75Y-106.68
X144.75Y-108.0
X144.75Y-109.32
X144.75Y-110.64
X145.0Y-71.0
X145.0Y-72.0
X145.0Y-89.5
X145.0Y-90.5
X145.0Y-91.5
X145.0Y-97.5
X145.5Y-55.5
X145.5Y-56.5
X145.5Y-58.0
X145.5Y-59.0
X145.5Y-60.5
X145.5Y-62.0
X145.5Y-63.5
X145.5Y-65.0
X145.5Y-66.5
X145.5Y-68.0
X145.5Y-69.5
X145.5Y-85.5
X145.5Y-86.5
X145.5Y-87.5
X145.5Y-98.5
X145.5Y-101.0
X145.5Y-113.25
X146.0Y-80.75
X146.05Y-102.72
X146.05Y-104.04
X146.05Y-105.36
X146.05Y-106.68
X146.05Y-108.0
X146.05Y-109.32
X146.05Y-110.64
X146.5Y-71.0
X146.5Y-72.0
X146.5Y-89.5
X146.5Y-90.5
X146.5Y-91.5
X147.0Y-85.5
X147.0Y-86.5
X147.0Y-87.5
X147.5Y-81.0
X147.5Y-89.5
X147.5Y-90.5
X147.5Y-91.5
X148.0Y-86.5
X148.0Y-87.5
X148.467Y-78.967
X148.5Y-89.5
X148.5Y-90.5
X148.5Y-91.5
X148.754Y-106.754
X148.773Y-111.977
X148.951Y-110.951
X149.0Y-80.0
X149.0Y-81.0
X149.0Y-85.5
X149.0Y-87.5
X149.0Y-104.75
X149.0Y-109.075
X149.25Y-106.0
X149.25Y-107.5
X149.5Y-78.0
X149.5Y-79.25
X149.5Y-89.5
X149.5Y-90.5
X149.5Y-91.5
X150.0Y-56.0
X150.0Y-57.5
X150.0Y-59.0
X150.0Y-60.5
X150.0Y-62.0
X150.0Y-63.5
X150.0Y-65.0
X150.0Y-66.5
X150.0Y-68.0
X150.0Y-69.5
X150.0Y-70.5
X150.0Y-72.0
X150.0Y-85.5
X150.0Y-86.5
X150.0Y-126.5
X150.25Y-99.5
X150.5Y-81.0
X150.5Y-91.5
X151.0Y-78.25
X151.0Y-87.5
X151.0Y-89.5
X151.0Y-90.5
X151.5Y-56.0
X151.5Y-57.5
X151.5Y-59.0
X151.5Y-60.5
X151.5Y-62.0
X151.5Y-63.5
X151.5Y-65.0
X151.5Y-66.5
X151.5Y-68.0
X151.5Y-69.5
X151.5Y-70.5
X151.5Y-72.0
X151.5Y-81.0
X151.5Y-85.5
X151.5Y-86.5
X152.25Y-110.75
X152.5Y-83.0
X152.5Y-88.0
X152.75Y-98.75
X153.0Y-56.0
X153.0Y-57.5
X153.0Y-59.0
X153.0Y-60.5
X153.0Y-62.0
X153.0Y-63.5
X153.0Y-65.0
X153.0Y-66.5
X153.0Y-68.0
X153.0Y-69.5
X153.0Y-70.5
X153.0Y-72.0
X153.0Y-81.0
X153.0Y-82.0
X153.0Y-85.5
X153.0Y-87.0
X153.25Y-108.25
X153.75Y-105.5
X153.9Y-82.0
X153.9Y-83.0
X154.193Y-57.461
X154.25Y-56.0
X154.25Y-58.75
X154.25Y-60.0
X154.25Y-61.5
X154.25Y-62.75
X154.25Y-63.75
X154.25Y-65.25
X154.25Y-66.75
X154.25Y-68.0
X154.305Y-80.805
X154.75Y-95.25
X155.0Y-70.0
X155.0Y-71.5
X155.0Y-73.0
X155.25Y-78.5
X155.5Y-74.0
X156.0Y-91.5
X156.0Y-92.5
X156.0Y-93.5
X156.5Y-70.0
X156.5Y-71.5
X156.5Y-73.0
X156.5Y-74.75
X156.75Y-88.25
X157.0Y-86.75
X157.0Y-95.25
X157.526Y-80.224
X157.75Y-81.25
X158.0Y-70.0
X158.0Y-91.5
X158.0Y-92.5
X158.0Y-93.5
X158.25Y-82.5
X158.25Y-85.5
X158.5Y-71.5
X159.0Y-65.0
X159.0Y-67.25
X159.0Y-70.0
X159.25Y-56.5
X159.25Y-58.5
X159.25Y-61.0
X159.25Y-63.0
X159.25Y-86.75
X159.5Y-71.5
X160.0Y-70.0
X160.25Y-81.25
X160.5Y-72.0
X160.5Y-92.5
X160.5Y-93.5
X160.726Y-99.5
X160.75Y-85.5
X161.0Y-70.0
X161.0Y-98.0
X161.5Y-72.0
X162.0Y-87.0
X162.25Y-70.0
X162.25Y-81.25
X162.5Y-72.0
X162.5Y-92.5
X162.5Y-93.5
X163.0Y-70.5
X163.0Y-75.75
X163.0Y-76.75
X163.0Y-77.75
X163.0Y-78.75
X163.25Y-80.0
X163.25Y-81.25
X163.25Y-85.5
X163.5Y-72.0
X163.5Y-92.5
X163.5Y-93.5
X164.0Y-71.0
X164.25Y-75.75
X164.25Y-76.75
X164.25Y-77.75
X164.25Y-78.75
X164.5Y-73.044
X164.5Y-80.0
X164.5Y-87.0
X164.75Y-81.25
X165.0Y-72.0
X165.5Y-71.0
X166.0Y-85.5
X166.244Y-92.777
X166.244Y-93.777
X166.5Y-71.5
X166.75Y-81.25
X167.5Y-72.0
X167.5Y-87.0
X167.744Y-92.777
X167.744Y-93.777
X168.0Y-85.5
X168.5Y-71.5
X168.5Y-81.25
X168.744Y-92.777
X168.744Y-93.777
X169.744Y-92.777
X169.744Y-93.777
X170.25Y-85.5
X170.5Y-76.5
X170.5Y-77.75
X170.5Y-81.5
X170.744Y-92.777
X170.744Y-93.777
X170.744Y-94.777
X170.75Y-79.0
X170.75Y-80.25
X171.0Y-87.0
X171.744Y-94.777
X172.244Y-93.777
X172.75Y-81.5
X172.75Y-85.5
X173.0Y-95.0
X174.0Y-87.0
X174.0Y-94.0
X174.0Y-95.0
X174.25Y-88.0
X174.5Y-81.5
X175.25Y-85.5
X175.5Y-94.0
X175.5Y-95.0
X176.0Y-81.5
X176.5Y-94.0
X176.5Y-95.0
X177.0Y-80.5
X177.0Y-82.5
X177.0Y-84.5
X177.0Y-87.0
X177.5Y-94.0
X177.5Y-95.0
X178.5Y-94.0
X178.5Y-95.0
X179.0Y-80.0
X179.0Y-82.0
X180.0Y-94.0
X180.0Y-95.0
X180.5Y-79.5
X181.5Y-79.5
X182.0Y-94.0
X182.0Y-95.0
X183.5Y-79.5
X183.5Y-81.0
X183.5Y-82.5
X183.5Y-94.0
X183.5Y-95.0
X184.5Y-94.0
X184.5Y-95.0
X185.0Y-80.0
X185.0Y-81.0
X185.0Y-82.5
X185.5Y-94.0
X185.5Y-95.0
X186.5Y-79.5
X186.5Y-82.5
X186.5Y-94.0
X186.5Y-95.0
X187.0Y-81.0
X188.0Y-82.5
X188.0Y-94.0
X188.0Y-95.0
X188.5Y-79.5
X188.5Y-81.0
X189.5Y-82.5
X190.0Y-81.5
X190.0Y-94.5
X190.0Y-95.5
X190.5Y-79.5
X191.5Y-94.5
X191.5Y-95.5
X192.5Y-79.5
X192.5Y-94.5
X192.5Y-95.5
X193.5Y-94.5
X193.5Y-95.5
X194.0Y-80.5
X194.0Y-82.0
X194.5Y-94.5
X194.5Y-95.5
X195.5Y-79.5
X195.5Y-82.0
X196.0Y-94.5
X196.0Y-95.5
X197.0Y-80.5
X197.0Y-83.0
X198.0Y-79.0
X198.0Y-83.0
X198.5Y-77.0
X198.5Y-80.5
X199.0Y-75.0
X199.0Y-94.5
X199.0Y-95.5
X199.5Y-79.5
X200.0Y-73.0
X200.0Y-77.5
X200.0Y-82.0
X200.5Y-71.5
X200.5Y-75.5
X200.5Y-94.5
X200.5Y-95.5
X201.0Y-74.0
X201.5Y-70.0
X201.5Y-78.0
X201.5Y-94.5
X201.5Y-95.5
X202.0Y-76.5
X202.0Y-80.0
X202.5Y-68.5
X202.5Y-72.0
X202.5Y-74.5
X202.5Y-94.5
X202.5Y-95.5
X203.0Y-65.6
X203.0Y-70.0
X203.2Y-67.0
X203.5Y-56.5
X203.5Y-94.5
X203.5Y-95.5
X203.6Y-62.2
X203.8Y-63.8
X204.0Y-91.75
X204.0Y-92.75
X204.2Y-77.2
X204.4Y-71.4
X204.75Y-81.5
X204.75Y-82.5
X205.0Y-61.8
X205.0Y-63.0
X205.0Y-71.0
X205.0Y-78.75
X205.0Y-79.75
X205.0Y-91.75
X205.0Y-92.75
X205.0Y-94.5
X205.0Y-95.5
X205.75Y-81.5
X205.75Y-82.5
X206.0Y-63.0
X206.0Y-78.75
X206.0Y-79.75
X206.0Y-91.75
X206.0Y-92.75
X206.75Y-81.5
X206.75Y-82.5
X207.0Y-78.75
X207.0Y-79.75
X207.0Y-84.5
X207.0Y-85.5
X207.0Y-86.5
X207.0Y-87.5
X207.0Y-91.75
X207.0Y-92.75
X207.2Y-61.8
X207.2Y-62.8
X207.75Y-81.5
X207.75Y-82.5
X208.0Y-78.75
X208.0Y-79.75
X208.0Y-84.5
X208.0Y-85.5
X208.0Y-86.5
X208.0Y-87.5
X208.2Y-62.8
X209.6Y-62.0
X209.8Y-63.0
X210.0Y-77.4
X210.0Y-78.4
X210.0Y-79.4
X210.0Y-80.4
X210.4Y-64.0
X210.4Y-71.8
X211.0Y-62.6
X211.0Y-67.2
X211.0Y-68.2
X211.0Y-69.4
X211.0Y-72.4
X211.0Y-73.2
X211.0Y-77.4
X211.0Y-78.4
X211.0Y-79.4
X211.0Y-80.4
X211.2Y-64.4
X211.2Y-65.6
X211.6Y-70.2
T2
X147.75Y-126.5
X148.75Y-126.5
T3
X75.8Y-70.0
X75.8Y-77.2
X207.01Y-66.885
X207.01Y-74.085
M30
