G04 #@! TF.GenerationSoftware,KiCad,Pcbnew,10.0.5*
G04 #@! TF.CreationDate,2026-09-28T12:25:24-04:00*
G04 #@! TF.ProjectId,24-24-converter,32342d32-342d-4636-9f6e-766572746572,1.0*
G04 #@! TF.SameCoordinates,Original*
G04 #@! TF.FileFunction,Copper,L3,Inr*
G04 #@! TF.FilePolarity,Positive*
%FSLAX46Y46*%
G04 Gerber Fmt 4.6, Leading zero omitted, Abs format (unit mm)*
G04 Created by KiCad (PCBNEW 10.0.5) date 2026-09-28 12:25:24*
%MOMM*%
%LPD*%
G01*
G04 APERTURE LIST*
G04 Aperture macros list*
%AMRoundRect*
0 Rectangle with rounded corners*
0 $1 Rounding radius*
0 $2 $3 $4 $5 $6 $7 $8 $9 X,Y pos of 4 corners*
0 Add a 4 corners polygon primitive as box body*
4,1,4,$2,$3,$4,$5,$6,$7,$8,$9,$2,$3,0*
0 Add four circle primitives for the rounded corners*
1,1,$1+$1,$2,$3*
1,1,$1+$1,$4,$5*
1,1,$1+$1,$6,$7*
1,1,$1+$1,$8,$9*
0 Add four rect primitives between the rounded corners*
20,1,$1+$1,$2,$3,$4,$5,0*
20,1,$1+$1,$4,$5,$6,$7,0*
20,1,$1+$1,$6,$7,$8,$9,0*
20,1,$1+$1,$8,$9,$2,$3,0*%
G04 Aperture macros list end*
G04 #@! TA.AperFunction,ComponentPad*
%ADD10R,0.850000X0.850000*%
G04 #@! TD*
G04 #@! TA.AperFunction,ComponentPad*
%ADD11C,0.850000*%
G04 #@! TD*
G04 #@! TA.AperFunction,ComponentPad*
%ADD12RoundRect,1.500000X-1.500000X1.500000X-1.500000X-1.500000X1.500000X-1.500000X1.500000X1.500000X0*%
G04 #@! TD*
G04 #@! TA.AperFunction,ComponentPad*
%ADD13C,6.000000*%
G04 #@! TD*
G04 #@! TA.AperFunction,ViaPad*
%ADD14C,0.600000*%
G04 #@! TD*
G04 #@! TA.AperFunction,Conductor*
%ADD15C,0.200000*%
G04 #@! TD*
G04 APERTURE END LIST*
D10*
G04 #@! TO.N,/EN*
G04 #@! TO.C,J3*
X147750000Y-126500000D03*
D11*
G04 #@! TO.N,GND*
X148750000Y-126500000D03*
G04 #@! TD*
D12*
G04 #@! TO.N,VOUT*
G04 #@! TO.C,J2*
X207010000Y-66885000D03*
D13*
G04 #@! TO.N,GND*
X207010000Y-74085000D03*
G04 #@! TD*
D12*
G04 #@! TO.N,VIN*
G04 #@! TO.C,J1*
X75800000Y-70000000D03*
D13*
G04 #@! TO.N,GND*
X75800000Y-77200000D03*
G04 #@! TD*
D14*
G04 #@! TO.N,VOUT*
X203000000Y-65600000D03*
X164250000Y-77750000D03*
X160250000Y-81250000D03*
X186500000Y-79500000D03*
X199000000Y-75000000D03*
X198500000Y-80500000D03*
X174500000Y-81500000D03*
X164750000Y-81250000D03*
X164500000Y-80000000D03*
X162250000Y-81250000D03*
X189500000Y-82500000D03*
X202000000Y-80000000D03*
X185000000Y-81000000D03*
X163000000Y-77750000D03*
X200000000Y-73000000D03*
X208200000Y-62800000D03*
X174000000Y-87000000D03*
X201500000Y-78000000D03*
X172750000Y-81500000D03*
X205000000Y-63000000D03*
X164500000Y-87000000D03*
X210400000Y-64000000D03*
X188500000Y-81000000D03*
X203800000Y-63800000D03*
X200000000Y-77500000D03*
X170500000Y-81500000D03*
X200000000Y-82000000D03*
X199500000Y-79500000D03*
X157750000Y-81250000D03*
X154750000Y-95250000D03*
X211000000Y-69400000D03*
X198000000Y-79000000D03*
X209600000Y-62000000D03*
X186500000Y-82500000D03*
X194000000Y-80500000D03*
X177000000Y-80500000D03*
X179000000Y-80000000D03*
X170750000Y-79000000D03*
X190500000Y-79500000D03*
X203000000Y-70000000D03*
X211600000Y-70200000D03*
X209800000Y-63000000D03*
X185000000Y-80000000D03*
X170750000Y-80250000D03*
X203600000Y-62200000D03*
X164250000Y-76750000D03*
X163250000Y-81250000D03*
X177000000Y-84500000D03*
X170500000Y-77750000D03*
X140500000Y-103525000D03*
X163000000Y-75750000D03*
X177000000Y-87000000D03*
X158250000Y-82500000D03*
X159250000Y-86750000D03*
X171000000Y-87000000D03*
X202500000Y-72000000D03*
X192500000Y-79500000D03*
X157000000Y-86750000D03*
X202500000Y-74500000D03*
X174250000Y-88000000D03*
X198500000Y-77000000D03*
X190000000Y-81500000D03*
X201000000Y-74000000D03*
X187000000Y-81000000D03*
X167500000Y-87000000D03*
X194000000Y-82000000D03*
X157526471Y-80223530D03*
X207200000Y-61800000D03*
X164250000Y-75750000D03*
X179000000Y-82000000D03*
X181500000Y-79500000D03*
X205000000Y-61800000D03*
X198000000Y-83000000D03*
X197000000Y-83000000D03*
X164250000Y-78750000D03*
X163250000Y-80000000D03*
X157000000Y-95250000D03*
X211200000Y-64400000D03*
X202500000Y-68500000D03*
X156750000Y-88250000D03*
X211000000Y-68200000D03*
X183500000Y-79500000D03*
X203200000Y-67000000D03*
X195500000Y-79500000D03*
X200500000Y-71500000D03*
X211200000Y-65600000D03*
X176000000Y-81500000D03*
X197000000Y-80500000D03*
X200500000Y-75500000D03*
X170500000Y-76500000D03*
X177000000Y-82500000D03*
X180500000Y-79500000D03*
X163000000Y-76750000D03*
X163000000Y-78750000D03*
X162000000Y-87000000D03*
X211000000Y-67200000D03*
X206000000Y-63000000D03*
X135250000Y-103000000D03*
X183500000Y-81000000D03*
X207200000Y-62800000D03*
X168500000Y-81250000D03*
X188500000Y-79500000D03*
X211000000Y-62600000D03*
X202000000Y-76500000D03*
X195500000Y-82000000D03*
X166750000Y-81250000D03*
X183500000Y-82500000D03*
X188000000Y-82500000D03*
X201500000Y-70000000D03*
X185000000Y-82500000D03*
G04 #@! TO.N,GND*
X82000000Y-80000000D03*
X87500000Y-94000000D03*
X70500000Y-73000000D03*
X109000000Y-94000000D03*
X110500000Y-95000000D03*
X97500000Y-81250000D03*
X70500000Y-72000000D03*
X75500000Y-87000000D03*
X128500000Y-92500000D03*
X107000000Y-96000000D03*
X143450000Y-108000000D03*
X208000000Y-86500000D03*
X74500000Y-89000000D03*
X86000000Y-91500000D03*
X206000000Y-92750000D03*
X93000000Y-91000000D03*
X106000000Y-79500000D03*
X191500000Y-95500000D03*
X98500000Y-68000000D03*
X149500000Y-90500000D03*
X75500000Y-85500000D03*
X109500000Y-78500000D03*
X95000000Y-78500000D03*
X97000000Y-94000000D03*
X202500000Y-95500000D03*
X82000000Y-79000000D03*
X70500000Y-64000000D03*
X174000000Y-94000000D03*
X115000000Y-92000000D03*
X168743794Y-93776579D03*
X204200000Y-77200000D03*
X78000000Y-87000000D03*
X100500000Y-93000000D03*
X116000000Y-92000000D03*
X122000000Y-92000000D03*
X77000000Y-87000000D03*
X178500000Y-94000000D03*
X110500000Y-94000000D03*
X108000000Y-96000000D03*
X83000000Y-83500000D03*
X158250000Y-85500000D03*
X204750000Y-81500000D03*
X94000000Y-93000000D03*
X106000000Y-69000000D03*
X105000000Y-69000000D03*
X84500000Y-79000000D03*
X77000000Y-84000000D03*
X180000000Y-95000000D03*
X170743794Y-94776579D03*
X115000000Y-94500000D03*
X146050000Y-110640000D03*
X105000000Y-78500000D03*
X124000000Y-93000000D03*
X94000000Y-68000000D03*
X107000000Y-68000000D03*
X85000000Y-66000000D03*
X81000000Y-89000000D03*
X106000000Y-68000000D03*
X84000000Y-92500000D03*
X136000000Y-108000000D03*
X74500000Y-91500000D03*
X207000000Y-92750000D03*
X79000000Y-83000000D03*
X205750000Y-82500000D03*
X77500000Y-94500000D03*
X77500000Y-93500000D03*
X81000000Y-81000000D03*
X80000000Y-80000000D03*
X83000000Y-91500000D03*
X70500000Y-70000000D03*
X95750000Y-78000000D03*
X117000000Y-95500000D03*
X108000000Y-80500000D03*
X143450000Y-109320000D03*
X118000000Y-96500000D03*
X101500000Y-95000000D03*
X108000000Y-92000000D03*
X85750000Y-81250000D03*
X74500000Y-84500000D03*
X103500000Y-78500000D03*
X207000000Y-86500000D03*
X204400000Y-71400000D03*
X74500000Y-93500000D03*
X112500000Y-95500000D03*
X144750000Y-104040000D03*
X143450000Y-110640000D03*
X92000000Y-94000000D03*
X108000000Y-78500000D03*
X102500000Y-93000000D03*
X152500000Y-88000000D03*
X105000000Y-79500000D03*
X118500000Y-92000000D03*
X140500000Y-115000000D03*
X70500000Y-66000000D03*
X83000000Y-86500000D03*
X96000000Y-69000000D03*
X79000000Y-85000000D03*
X139500000Y-92500000D03*
X104500000Y-91000000D03*
X130500000Y-105000000D03*
X95500000Y-95000000D03*
X100500000Y-94000000D03*
X73500000Y-81000000D03*
X74500000Y-92500000D03*
X160500000Y-93500000D03*
X79500000Y-94500000D03*
X95000000Y-93000000D03*
X208000000Y-84500000D03*
X185500000Y-94000000D03*
X178500000Y-95000000D03*
X83000000Y-87500000D03*
X99500000Y-91000000D03*
X81000000Y-85500000D03*
X107000000Y-78500000D03*
X158000000Y-92500000D03*
X78500000Y-62500000D03*
X114000000Y-93000000D03*
X115000000Y-91000000D03*
X150000000Y-85500000D03*
X169743794Y-92776579D03*
X85000000Y-94000000D03*
X172750000Y-85500000D03*
X148000000Y-87500000D03*
X140500000Y-92500000D03*
X101500000Y-92000000D03*
X82000000Y-65000000D03*
X96250000Y-81250000D03*
X93250000Y-81250000D03*
X82000000Y-81000000D03*
X123000000Y-92000000D03*
X146500000Y-91500000D03*
X82000000Y-85500000D03*
X114000000Y-91000000D03*
X207000000Y-79750000D03*
X199000000Y-94500000D03*
X116000000Y-93000000D03*
X108000000Y-94000000D03*
X93000000Y-94000000D03*
X89500000Y-92000000D03*
X82000000Y-83000000D03*
X83000000Y-64000000D03*
X81500000Y-91500000D03*
X97000000Y-69000000D03*
X94000000Y-96000000D03*
X211000000Y-77400000D03*
X150000000Y-126500000D03*
X73500000Y-84500000D03*
X158000000Y-91500000D03*
X95000000Y-79500000D03*
X205000000Y-95500000D03*
X85000000Y-65000000D03*
X73500000Y-82500000D03*
X91000000Y-96000000D03*
X100500000Y-91000000D03*
X87500000Y-95000000D03*
X211000000Y-79400000D03*
X91000000Y-94000000D03*
X143450000Y-105360000D03*
X87500000Y-67500000D03*
X73500000Y-92500000D03*
X86000000Y-94000000D03*
X138500000Y-93500000D03*
X110000000Y-96000000D03*
X163500000Y-92500000D03*
X205750000Y-81500000D03*
X91000000Y-93000000D03*
X92000000Y-92000000D03*
X207000000Y-78750000D03*
X102500000Y-81000000D03*
X146050000Y-109320000D03*
X79500000Y-91500000D03*
X85000000Y-92500000D03*
X176500000Y-94000000D03*
X109500000Y-68000000D03*
X205000000Y-91750000D03*
X130000000Y-91500000D03*
X166243794Y-92776579D03*
X148500000Y-91500000D03*
X153250000Y-108250000D03*
X107000000Y-95000000D03*
X137462500Y-99212500D03*
X83000000Y-79000000D03*
X156000000Y-92500000D03*
X134000000Y-91500000D03*
X120500000Y-93000000D03*
X78000000Y-85000000D03*
X163500000Y-93500000D03*
X92000000Y-81250000D03*
X114000000Y-95500000D03*
X81000000Y-77800000D03*
X201500000Y-94500000D03*
X83000000Y-85500000D03*
X86000000Y-92500000D03*
X145000000Y-89500000D03*
X78000000Y-84000000D03*
X167743794Y-92776579D03*
X97000000Y-95000000D03*
X78000000Y-86000000D03*
X118500000Y-95500000D03*
X182000000Y-95000000D03*
X95000000Y-96000000D03*
X146050000Y-102720000D03*
X133000000Y-91500000D03*
X77500000Y-96000000D03*
X95000000Y-68000000D03*
X132000000Y-91500000D03*
X81000000Y-86500000D03*
X132000000Y-92500000D03*
X132000000Y-93500000D03*
X79500000Y-90500000D03*
X99500000Y-96000000D03*
X83000000Y-66000000D03*
X107000000Y-94000000D03*
X200500000Y-95500000D03*
X146050000Y-104040000D03*
X80500000Y-64000000D03*
X118500000Y-94500000D03*
X78500000Y-94500000D03*
X84500000Y-80000000D03*
X94250000Y-79250000D03*
X114000000Y-96500000D03*
X78500000Y-63500000D03*
X99500000Y-94000000D03*
X75500000Y-91500000D03*
X93000000Y-92000000D03*
X205000000Y-94500000D03*
X97000000Y-93000000D03*
X73500000Y-93500000D03*
X95500000Y-94000000D03*
X75500000Y-89500000D03*
X183500000Y-94000000D03*
X77500000Y-91500000D03*
X115000000Y-96500000D03*
X87500000Y-65500000D03*
X208000000Y-85500000D03*
X79500000Y-93500000D03*
X70500000Y-74000000D03*
X190000000Y-95500000D03*
X166243794Y-93776579D03*
X125000000Y-91000000D03*
X85000000Y-64000000D03*
X210000000Y-79400000D03*
X151500000Y-85500000D03*
X184500000Y-94000000D03*
X120500000Y-92000000D03*
X116000000Y-95500000D03*
X115000000Y-95500000D03*
X105000000Y-80500000D03*
X74500000Y-83500000D03*
X183500000Y-95000000D03*
X74500000Y-90500000D03*
X70500000Y-63000000D03*
X77000000Y-63500000D03*
X162500000Y-92500000D03*
X137500000Y-91500000D03*
X116000000Y-96500000D03*
X203500000Y-56500000D03*
X84500000Y-57500000D03*
X92000000Y-93000000D03*
X130000000Y-93500000D03*
X95000000Y-67000000D03*
X194500000Y-94500000D03*
X71500000Y-74500000D03*
X92500000Y-69000000D03*
X92500000Y-67000000D03*
X79500000Y-96000000D03*
X97000000Y-67000000D03*
X112500000Y-94500000D03*
X204750000Y-82500000D03*
X100500000Y-92000000D03*
X107000000Y-69000000D03*
X136500000Y-109250000D03*
X171743794Y-94776579D03*
X144750000Y-110640000D03*
X202500000Y-94500000D03*
X86000000Y-90500000D03*
X106000000Y-93000000D03*
X97000000Y-91000000D03*
X145500000Y-85500000D03*
X140500000Y-91500000D03*
X167743794Y-93776579D03*
X110500000Y-92000000D03*
X75500000Y-84500000D03*
X95500000Y-91000000D03*
X74500000Y-95000000D03*
X93000000Y-96000000D03*
X127000000Y-92000000D03*
X100500000Y-96000000D03*
X138500000Y-92500000D03*
X85000000Y-90500000D03*
X144750000Y-106680000D03*
X144750000Y-105360000D03*
X104500000Y-96000000D03*
X151000000Y-87500000D03*
X184500000Y-95000000D03*
X175500000Y-94000000D03*
X78500000Y-93500000D03*
X96000000Y-80500000D03*
X125000000Y-92000000D03*
X92000000Y-96000000D03*
X206000000Y-91750000D03*
X98750000Y-81250000D03*
X100500000Y-95000000D03*
X95000000Y-80500000D03*
X136750000Y-106500000D03*
X194500000Y-95500000D03*
X95500000Y-92000000D03*
X143450000Y-104040000D03*
X160750000Y-85500000D03*
X203500000Y-94500000D03*
X153000000Y-85500000D03*
X175250000Y-85500000D03*
X104500000Y-92000000D03*
X78500000Y-91500000D03*
X172243794Y-93776579D03*
X186500000Y-95000000D03*
X98000000Y-69000000D03*
X97000000Y-92000000D03*
X91000000Y-95000000D03*
X103500000Y-80500000D03*
X147000000Y-86500000D03*
X80000000Y-79000000D03*
X131000000Y-92500000D03*
X91000000Y-92000000D03*
X205000000Y-79750000D03*
X98500000Y-95000000D03*
X77500000Y-92500000D03*
X146050000Y-108000000D03*
X72500000Y-62500000D03*
X95000000Y-69000000D03*
X92500000Y-68000000D03*
X106000000Y-78500000D03*
X151000000Y-90500000D03*
X76000000Y-62500000D03*
X173000000Y-95000000D03*
X193500000Y-95500000D03*
X192500000Y-94500000D03*
X73500000Y-83500000D03*
X140500000Y-93500000D03*
X107000000Y-80500000D03*
X77500000Y-90000000D03*
X73500000Y-87000000D03*
X138500000Y-91500000D03*
X144750000Y-108000000D03*
X205000000Y-71000000D03*
X78500000Y-80000000D03*
X139500000Y-91500000D03*
X118500000Y-91000000D03*
X108000000Y-93000000D03*
X144750000Y-102720000D03*
X84000000Y-95000000D03*
X146500000Y-89500000D03*
X74000000Y-62500000D03*
X148500000Y-90500000D03*
X149000000Y-87500000D03*
X149500000Y-91500000D03*
X83000000Y-65000000D03*
X79500000Y-92500000D03*
X80000000Y-81000000D03*
X70500000Y-67000000D03*
X150500000Y-91500000D03*
X211000000Y-80400000D03*
X109000000Y-69000000D03*
X104500000Y-93000000D03*
X131000000Y-93500000D03*
X84000000Y-90500000D03*
X107000000Y-93000000D03*
X168743794Y-92776579D03*
X208000000Y-78750000D03*
X91000000Y-91000000D03*
X106000000Y-77750000D03*
X207750000Y-82500000D03*
X112500000Y-92000000D03*
X145000000Y-90500000D03*
X149500000Y-89500000D03*
X105000000Y-67000000D03*
X94000000Y-91000000D03*
X116000000Y-94500000D03*
X117000000Y-94500000D03*
X87500000Y-90500000D03*
X83000000Y-84500000D03*
X145000000Y-91500000D03*
X80000000Y-62500000D03*
X83000000Y-92500000D03*
X89500000Y-91000000D03*
X160500000Y-92500000D03*
X85000000Y-95000000D03*
X84000000Y-64000000D03*
X92000000Y-95000000D03*
X170250000Y-85500000D03*
X136250000Y-110500000D03*
X103500000Y-79500000D03*
X205000000Y-92750000D03*
X148500000Y-89500000D03*
X207000000Y-84500000D03*
X211000000Y-78400000D03*
X134000000Y-92500000D03*
X134000000Y-93500000D03*
X148000000Y-86500000D03*
X151500000Y-86500000D03*
X206750000Y-82500000D03*
X75000000Y-63500000D03*
X106000000Y-91000000D03*
X109000000Y-91000000D03*
X139500000Y-93500000D03*
X77000000Y-88500000D03*
X208000000Y-79750000D03*
X75000000Y-62500000D03*
X114000000Y-92000000D03*
X75500000Y-83500000D03*
X82000000Y-87500000D03*
X170743794Y-92776579D03*
X136000000Y-91500000D03*
X101500000Y-93000000D03*
X85000000Y-96000000D03*
X131000000Y-91500000D03*
X176500000Y-95000000D03*
X81500000Y-90500000D03*
X70500000Y-68500000D03*
X96000000Y-79500000D03*
X120500000Y-91000000D03*
X200500000Y-94500000D03*
X89500000Y-94000000D03*
X145500000Y-87500000D03*
X145500000Y-113250000D03*
X75500000Y-81500000D03*
X74500000Y-87000000D03*
X168000000Y-85500000D03*
X93000000Y-93000000D03*
X94750000Y-81250000D03*
X82000000Y-66000000D03*
X94000000Y-94000000D03*
X78000000Y-82500000D03*
X146500000Y-90500000D03*
X108000000Y-91000000D03*
X133000000Y-92500000D03*
X136000000Y-92500000D03*
X103500000Y-67000000D03*
X166000000Y-85500000D03*
X74500000Y-85500000D03*
X117000000Y-96500000D03*
X107000000Y-79500000D03*
X185500000Y-95000000D03*
X196000000Y-95500000D03*
X188000000Y-95000000D03*
X147500000Y-89500000D03*
X177500000Y-94000000D03*
X109000000Y-96000000D03*
X108000000Y-68000000D03*
X86000000Y-96000000D03*
X81500000Y-95000000D03*
X116000000Y-91000000D03*
X81000000Y-84500000D03*
X122000000Y-93000000D03*
X94500000Y-78000000D03*
X109000000Y-93000000D03*
X84000000Y-96000000D03*
X101500000Y-94000000D03*
X143450000Y-102720000D03*
X127000000Y-91000000D03*
X83000000Y-96000000D03*
X104500000Y-94000000D03*
X109000000Y-95000000D03*
X204000000Y-91750000D03*
X107000000Y-92000000D03*
X89500000Y-96000000D03*
X206750000Y-81500000D03*
X207000000Y-85500000D03*
X101500000Y-91000000D03*
X109500000Y-79500000D03*
X89500000Y-95000000D03*
X79000000Y-88500000D03*
X96000000Y-68000000D03*
X82000000Y-86500000D03*
X74000000Y-63500000D03*
X117000000Y-91000000D03*
X78500000Y-81000000D03*
X79000000Y-86000000D03*
X81000000Y-87500000D03*
X79000000Y-84000000D03*
X77000000Y-85000000D03*
X103500000Y-68000000D03*
X78500000Y-96000000D03*
X94000000Y-95000000D03*
X108000000Y-95000000D03*
X112500000Y-91000000D03*
X98500000Y-67000000D03*
X103000000Y-91000000D03*
X163250000Y-85500000D03*
X108000000Y-79500000D03*
X77000000Y-82500000D03*
X97000000Y-96000000D03*
X74500000Y-82500000D03*
X147000000Y-87500000D03*
X77000000Y-86000000D03*
X143450000Y-106680000D03*
X83000000Y-90500000D03*
X98500000Y-91000000D03*
X82000000Y-89000000D03*
X177500000Y-95000000D03*
X146050000Y-105360000D03*
X123000000Y-93000000D03*
X109000000Y-80500000D03*
X70500000Y-65000000D03*
X73500000Y-85500000D03*
X83000000Y-94000000D03*
X104500000Y-95000000D03*
X105000000Y-68000000D03*
X125000000Y-93000000D03*
X94000000Y-67000000D03*
X86000000Y-95000000D03*
X98500000Y-93000000D03*
X106000000Y-67000000D03*
X81000000Y-79000000D03*
X211000000Y-72400000D03*
X196000000Y-94500000D03*
X98500000Y-96000000D03*
X150250000Y-99500000D03*
X79000000Y-87000000D03*
X180000000Y-94000000D03*
X94000000Y-69000000D03*
X98500000Y-94000000D03*
X137500000Y-93500000D03*
X144750000Y-109320000D03*
X110000000Y-93000000D03*
X114000000Y-94500000D03*
X199000000Y-95500000D03*
X87000000Y-92500000D03*
X106000000Y-80500000D03*
X83000000Y-89000000D03*
X207000000Y-87500000D03*
X206000000Y-78750000D03*
X96000000Y-67000000D03*
X83000000Y-95000000D03*
X182000000Y-94000000D03*
X205000000Y-78750000D03*
X206000000Y-79750000D03*
X156000000Y-93500000D03*
X72500000Y-63500000D03*
X207000000Y-91750000D03*
X87000000Y-96000000D03*
X147500000Y-91500000D03*
X98500000Y-92000000D03*
X207750000Y-81500000D03*
X99500000Y-92000000D03*
X102500000Y-96000000D03*
X73500000Y-90500000D03*
X75500000Y-82500000D03*
X124000000Y-91000000D03*
X128500000Y-91500000D03*
X211000000Y-73200000D03*
X94000000Y-92000000D03*
X132500000Y-101750000D03*
X103000000Y-95000000D03*
X84000000Y-81000000D03*
X203500000Y-95500000D03*
X109000000Y-92000000D03*
X103000000Y-94000000D03*
X141750000Y-101250000D03*
X169743794Y-93776579D03*
X81500000Y-92500000D03*
X193500000Y-94500000D03*
X85000000Y-91500000D03*
X117000000Y-93000000D03*
X115000000Y-93000000D03*
X130000000Y-92500000D03*
X191500000Y-94500000D03*
X150000000Y-86500000D03*
X82000000Y-84500000D03*
X87250000Y-81250000D03*
X99500000Y-93000000D03*
X148753555Y-106753555D03*
X208000000Y-87500000D03*
X75500000Y-93500000D03*
X99500000Y-95000000D03*
X89500000Y-93000000D03*
X83000000Y-81000000D03*
X107000000Y-67000000D03*
X81000000Y-80000000D03*
X151000000Y-89500000D03*
X210000000Y-77400000D03*
X76000000Y-63500000D03*
X73500000Y-89000000D03*
X174000000Y-95000000D03*
X73500000Y-95000000D03*
X101500000Y-96000000D03*
X81500000Y-94000000D03*
X117000000Y-92000000D03*
X82000000Y-64000000D03*
X136000000Y-93500000D03*
X110500000Y-91000000D03*
X147500000Y-90500000D03*
X77000000Y-62500000D03*
X78500000Y-92500000D03*
X122000000Y-91000000D03*
X78500000Y-90000000D03*
X186500000Y-94000000D03*
X83000000Y-80000000D03*
X108000000Y-69000000D03*
X128500000Y-93500000D03*
X87500000Y-91500000D03*
X175500000Y-95000000D03*
X75500000Y-90500000D03*
X107000000Y-91000000D03*
X84000000Y-65000000D03*
X158000000Y-93500000D03*
X103000000Y-92000000D03*
X112500000Y-96500000D03*
X140500000Y-102250000D03*
X97000000Y-68000000D03*
X204000000Y-92750000D03*
X145500000Y-86500000D03*
X92000000Y-91000000D03*
X103500000Y-69000000D03*
X146050000Y-106680000D03*
X106000000Y-94000000D03*
X74500000Y-81000000D03*
X75500000Y-95000000D03*
X149000000Y-85500000D03*
X84000000Y-66000000D03*
X106000000Y-96000000D03*
X84000000Y-94000000D03*
X124000000Y-92000000D03*
X141500000Y-93500000D03*
X78000000Y-88500000D03*
X133000000Y-93500000D03*
X153000000Y-87000000D03*
X142000000Y-91500000D03*
X75500000Y-92500000D03*
X81000000Y-63000000D03*
X137500000Y-92500000D03*
X81500000Y-96000000D03*
X109500000Y-67000000D03*
X106000000Y-92000000D03*
X123000000Y-91000000D03*
X210400000Y-71800000D03*
X210000000Y-78400000D03*
X190000000Y-94500000D03*
X162500000Y-93500000D03*
X81000000Y-83000000D03*
X147000000Y-85500000D03*
X93000000Y-95000000D03*
X118000000Y-93000000D03*
X170743794Y-93776579D03*
X73500000Y-91500000D03*
X70500000Y-71000000D03*
X106000000Y-95000000D03*
X192500000Y-95500000D03*
X86000000Y-66000000D03*
X156000000Y-91500000D03*
X210000000Y-80400000D03*
X142000000Y-92500000D03*
X112500000Y-93000000D03*
X108000000Y-67000000D03*
X201500000Y-95500000D03*
X84000000Y-91500000D03*
X188000000Y-94000000D03*
G04 #@! TO.N,VIN*
X92500000Y-82500000D03*
X116500000Y-62000000D03*
X116000000Y-65000000D03*
X115500000Y-60000000D03*
X104000000Y-61500000D03*
X116000000Y-72000000D03*
X117500000Y-78000000D03*
X116500000Y-61000000D03*
X125000000Y-76250000D03*
X118500000Y-83000000D03*
X109500000Y-74000000D03*
X93000000Y-60500000D03*
X107500000Y-74000000D03*
X117000000Y-69000000D03*
X88250000Y-82500000D03*
X96500000Y-61500000D03*
X104000000Y-60500000D03*
X116500000Y-60000000D03*
X121500000Y-80750000D03*
X129000000Y-80250000D03*
X118000000Y-65000000D03*
X96500000Y-60500000D03*
X126750000Y-78250000D03*
X122500000Y-80750000D03*
X115000000Y-73000000D03*
X81800000Y-68600000D03*
X116500000Y-76000000D03*
X107000000Y-61500000D03*
X110594900Y-82654900D03*
X82000000Y-71000000D03*
X108500000Y-74000000D03*
X92000000Y-72000000D03*
X92000000Y-73000000D03*
X114500000Y-62000000D03*
X83000000Y-71000000D03*
X97000000Y-72000000D03*
X119250000Y-85000000D03*
X102000000Y-83500000D03*
X115000000Y-74000000D03*
X106000000Y-74000000D03*
X96000000Y-74000000D03*
X109594900Y-82654900D03*
X86500000Y-72500000D03*
X93000000Y-61500000D03*
X84000000Y-71000000D03*
X109594900Y-83654900D03*
X116500000Y-78000000D03*
X84000000Y-72000000D03*
X108000000Y-61500000D03*
X86500000Y-71500000D03*
X103000000Y-59500000D03*
X91250000Y-82500000D03*
X105000000Y-61500000D03*
X107000000Y-59500000D03*
X126750000Y-81250000D03*
X118500000Y-85500000D03*
X116500000Y-77000000D03*
X116000000Y-69000000D03*
X85500000Y-73500000D03*
X119250000Y-84000000D03*
X124000000Y-80500000D03*
X103000000Y-61500000D03*
X95000000Y-60500000D03*
X116000000Y-80500000D03*
X101250000Y-85250000D03*
X120500000Y-80750000D03*
X107500000Y-72000000D03*
X118000000Y-81500000D03*
X125250000Y-81500000D03*
X140750000Y-116250000D03*
X97000000Y-73000000D03*
X110594900Y-83654900D03*
X118000000Y-64000000D03*
X94500000Y-83500000D03*
X101000000Y-82500000D03*
X118000000Y-85000000D03*
X83000000Y-72000000D03*
X118000000Y-69000000D03*
X82000000Y-72000000D03*
X115500000Y-61000000D03*
X98000000Y-72000000D03*
X106000000Y-73000000D03*
X82000000Y-73000000D03*
X130500000Y-82000000D03*
X126750000Y-77250000D03*
X80500000Y-70000000D03*
X102000000Y-82500000D03*
X99750000Y-82500000D03*
X121500000Y-81750000D03*
X86500000Y-73500000D03*
X103000000Y-60500000D03*
X116250000Y-82750000D03*
X115500000Y-77000000D03*
X104000000Y-74000000D03*
X102500000Y-85250000D03*
X94000000Y-74000000D03*
X93250000Y-85250000D03*
X130500000Y-80000000D03*
X102500000Y-84250000D03*
X97500000Y-59500000D03*
X87500000Y-72500000D03*
X105000000Y-72000000D03*
X124000000Y-81500000D03*
X98000000Y-73000000D03*
X116000000Y-79500000D03*
X117000000Y-64000000D03*
X84000000Y-73000000D03*
X111594900Y-82654900D03*
X80600000Y-71600000D03*
X117500000Y-77000000D03*
X80600000Y-72600000D03*
X114500000Y-61000000D03*
X104000000Y-72000000D03*
X87500000Y-82500000D03*
X116000000Y-73000000D03*
X85500000Y-72500000D03*
X87500000Y-73500000D03*
X97000000Y-74000000D03*
X96000000Y-73000000D03*
X103000000Y-82500000D03*
X132250000Y-80000000D03*
X83000000Y-73000000D03*
X94000000Y-73000000D03*
X117000000Y-81500000D03*
X130500000Y-81000000D03*
X117750000Y-82750000D03*
X118000000Y-68000000D03*
X93500000Y-84500000D03*
X93000000Y-72000000D03*
X117000000Y-65000000D03*
X92000000Y-74000000D03*
X126750000Y-76250000D03*
X94000000Y-59500000D03*
X105000000Y-59500000D03*
X96500000Y-59500000D03*
X98000000Y-74000000D03*
X118500000Y-84000000D03*
X115500000Y-76000000D03*
X109500000Y-72000000D03*
X117000000Y-68000000D03*
X93000000Y-74000000D03*
X114500000Y-60000000D03*
X95750000Y-82750000D03*
X94000000Y-60500000D03*
X119500000Y-81750000D03*
X115000000Y-72000000D03*
X117000000Y-73000000D03*
X117000000Y-79500000D03*
X104000000Y-73000000D03*
X117000000Y-67000000D03*
X97500000Y-61500000D03*
X118000000Y-67000000D03*
X81800000Y-67600000D03*
X108000000Y-82750000D03*
X117500000Y-76000000D03*
X124000000Y-82500000D03*
X105000000Y-74000000D03*
X125000000Y-78250000D03*
X104000000Y-59500000D03*
X115500000Y-62000000D03*
X125250000Y-82500000D03*
X116000000Y-81500000D03*
X80500000Y-69000000D03*
X94000000Y-72000000D03*
X107500000Y-73000000D03*
X85500000Y-71500000D03*
X98500000Y-59500000D03*
X117000000Y-80500000D03*
X119500000Y-83000000D03*
X105000000Y-60500000D03*
X110594900Y-84654900D03*
X94000000Y-61500000D03*
X126750000Y-80250000D03*
X116000000Y-66000000D03*
X95000000Y-59500000D03*
X136250000Y-95500000D03*
X116000000Y-67000000D03*
X80600000Y-73600000D03*
X116000000Y-68000000D03*
X93000000Y-59500000D03*
X119500000Y-80750000D03*
X106000000Y-72000000D03*
X109000000Y-60500000D03*
X115500000Y-78000000D03*
X97500000Y-60500000D03*
X117000000Y-72000000D03*
X122500000Y-81750000D03*
X116000000Y-74000000D03*
X108500000Y-72000000D03*
X132250000Y-81000000D03*
X93500000Y-82500000D03*
X87500000Y-71500000D03*
X116000000Y-64000000D03*
X108000000Y-60500000D03*
X111594900Y-83654900D03*
X126750000Y-82250000D03*
X129000000Y-82250000D03*
X109000000Y-61500000D03*
X118000000Y-66000000D03*
X101500000Y-84500000D03*
X129000000Y-81250000D03*
X93000000Y-73000000D03*
X93500000Y-83500000D03*
X125000000Y-77250000D03*
X109500000Y-73000000D03*
X132250000Y-82000000D03*
X98500000Y-61500000D03*
X118000000Y-80500000D03*
X96000000Y-72000000D03*
X109594900Y-84654900D03*
X80500000Y-68000000D03*
X81800000Y-69600000D03*
X105000000Y-73000000D03*
X109000000Y-59500000D03*
X95000000Y-61500000D03*
X108000000Y-59500000D03*
X94500000Y-82500000D03*
X117000000Y-74000000D03*
X117000000Y-66000000D03*
X98500000Y-60500000D03*
X120500000Y-81750000D03*
X118000000Y-79500000D03*
X125250000Y-80500000D03*
X107000000Y-60500000D03*
X108500000Y-73000000D03*
G04 #@! TO.N,/SW1*
X145500000Y-56500000D03*
X142000000Y-70000000D03*
X137000000Y-64000000D03*
X129500000Y-71500000D03*
X137000000Y-65500000D03*
X145500000Y-68000000D03*
X144500000Y-65000000D03*
X141000000Y-77000000D03*
X144500000Y-57500000D03*
X138000000Y-67000000D03*
X143500000Y-72000000D03*
X145500000Y-65000000D03*
X144000000Y-55500000D03*
X145500000Y-60500000D03*
X134500000Y-71500000D03*
X144500000Y-63500000D03*
X133500000Y-73000000D03*
X146500000Y-71000000D03*
X144000000Y-56500000D03*
X145500000Y-59000000D03*
X138000000Y-59000000D03*
X136000000Y-70500000D03*
X137000000Y-62500000D03*
X131000000Y-71500000D03*
X145000000Y-71000000D03*
X127500000Y-71000000D03*
X125000000Y-73000000D03*
X137000000Y-59000000D03*
X144500000Y-60500000D03*
X138000000Y-56000000D03*
X145500000Y-63500000D03*
X138000000Y-68500000D03*
X144500000Y-59000000D03*
X137500000Y-70500000D03*
X137000000Y-56000000D03*
X137000000Y-67000000D03*
X145500000Y-55500000D03*
X140500000Y-55500000D03*
X133000000Y-74000000D03*
X134500000Y-70500000D03*
X145500000Y-98500000D03*
X137000000Y-57500000D03*
X142000000Y-71000000D03*
X125500000Y-71500000D03*
X144500000Y-68000000D03*
X139000000Y-71000000D03*
X137000000Y-68500000D03*
X145500000Y-58000000D03*
X145500000Y-69500000D03*
X132500000Y-71500000D03*
X139000000Y-70000000D03*
X138000000Y-62500000D03*
X128000000Y-72000000D03*
X144500000Y-62000000D03*
X148772501Y-111977499D03*
X145500000Y-66500000D03*
X143500000Y-71000000D03*
X145500000Y-62000000D03*
X138000000Y-65500000D03*
X138000000Y-61000000D03*
X137500000Y-71500000D03*
X140500000Y-70000000D03*
X142500000Y-55500000D03*
X131000000Y-70500000D03*
X146500000Y-72000000D03*
X140500000Y-71000000D03*
X144500000Y-69500000D03*
X138000000Y-64000000D03*
X137000000Y-61000000D03*
X132500000Y-70500000D03*
X136000000Y-71500000D03*
X138000000Y-57500000D03*
X124250000Y-71750000D03*
X145000000Y-72000000D03*
X144500000Y-66500000D03*
G04 #@! TO.N,/HDRV1*
X135000000Y-111750000D03*
X148950735Y-110950735D03*
X126000000Y-75000000D03*
G04 #@! TO.N,/CSENSE*
X151500000Y-81000000D03*
X140000000Y-80000000D03*
X150500000Y-81000000D03*
X144744100Y-82255900D03*
X155250000Y-78500000D03*
X149000000Y-81000000D03*
X153000000Y-82000000D03*
X149000000Y-80000000D03*
X141750000Y-78250000D03*
X143544100Y-80750587D03*
X141750000Y-79750000D03*
X149500000Y-78000000D03*
X140400000Y-79000000D03*
X143500000Y-82500000D03*
X153000000Y-81000000D03*
X152500000Y-83000000D03*
X151000000Y-78250000D03*
X138250000Y-80750000D03*
X153900000Y-82000000D03*
X135750000Y-80750000D03*
X134000000Y-79000000D03*
X147500000Y-81000000D03*
X153900000Y-83000000D03*
X149500000Y-79250000D03*
X146000000Y-80750000D03*
G04 #@! TO.N,/LDRV2*
X149250000Y-106000000D03*
X154305000Y-80805000D03*
G04 #@! TO.N,/SW2*
X153000000Y-60500000D03*
X154250000Y-61500000D03*
X153000000Y-72000000D03*
X156500000Y-70000000D03*
X162250000Y-70000000D03*
X164000000Y-71000000D03*
X150000000Y-66500000D03*
X158500000Y-71500000D03*
X154250000Y-66750000D03*
X159250000Y-58500000D03*
X158000000Y-70000000D03*
X160726336Y-99500000D03*
X153000000Y-65000000D03*
X154193349Y-57461360D03*
X151500000Y-65000000D03*
X154250000Y-58750000D03*
X160000000Y-70000000D03*
X154250000Y-60000000D03*
X163500000Y-72000000D03*
X153750000Y-105500000D03*
X150000000Y-72000000D03*
X156500000Y-71500000D03*
X162500000Y-72000000D03*
X151500000Y-72000000D03*
X153000000Y-59000000D03*
X166500000Y-71500000D03*
X151500000Y-62000000D03*
X153000000Y-62000000D03*
X155000000Y-71500000D03*
X150000000Y-70500000D03*
X151500000Y-63500000D03*
X163000000Y-70500000D03*
X151500000Y-59000000D03*
X159000000Y-67250000D03*
X150000000Y-56000000D03*
X165000000Y-72000000D03*
X154250000Y-63750000D03*
X153000000Y-63500000D03*
X165500000Y-71000000D03*
X151500000Y-69500000D03*
X154250000Y-65250000D03*
X151500000Y-68000000D03*
X155000000Y-70000000D03*
X151500000Y-57500000D03*
X154250000Y-62750000D03*
X153000000Y-69500000D03*
X151500000Y-66500000D03*
X159250000Y-56500000D03*
X168500000Y-71500000D03*
X156500000Y-74750000D03*
X150000000Y-65000000D03*
X153000000Y-68000000D03*
X150000000Y-59000000D03*
X161500000Y-72000000D03*
X167500000Y-72000000D03*
X151500000Y-56000000D03*
X150000000Y-57500000D03*
X153000000Y-56000000D03*
X154250000Y-56000000D03*
X160500000Y-72000000D03*
X161000000Y-70000000D03*
X150000000Y-69500000D03*
X153000000Y-57500000D03*
X153000000Y-66500000D03*
X153000000Y-70500000D03*
X151500000Y-70500000D03*
X159250000Y-61000000D03*
X150000000Y-62000000D03*
X155500000Y-74000000D03*
X159250000Y-63000000D03*
X159500000Y-71500000D03*
X151500000Y-60500000D03*
X150000000Y-68000000D03*
X159000000Y-65000000D03*
X150000000Y-63500000D03*
X159000000Y-70000000D03*
X150000000Y-60500000D03*
X154250000Y-68000000D03*
X156500000Y-73000000D03*
X155000000Y-73000000D03*
G04 #@! TO.N,/HDRV2*
X149000000Y-104750000D03*
X164500000Y-73044000D03*
X161000000Y-98000000D03*
G04 #@! TO.N,/LDRV1*
X140125000Y-76625000D03*
X145000000Y-97500000D03*
X148466900Y-78966900D03*
X149000000Y-109075000D03*
X145500000Y-101000000D03*
G04 #@! TO.N,Net-(Dboot1-A)*
X152250000Y-110750000D03*
X149250000Y-107500000D03*
G04 #@! TO.N,Net-(U1-VIN)*
X141500000Y-112000000D03*
X152750000Y-98750000D03*
G04 #@! TO.N,Net-(U1-FB)*
X140527501Y-104777501D03*
X135000000Y-104750000D03*
G04 #@! TD*
G04 #@! TO.N,VOUT*
D15*
X141796471Y-103525000D02*
X150071471Y-95250000D01*
X140500000Y-103525000D02*
X141796471Y-103525000D01*
X135775000Y-103525000D02*
X135250000Y-103000000D01*
X150071471Y-95250000D02*
X154750000Y-95250000D01*
X140500000Y-103525000D02*
X135775000Y-103525000D01*
G04 #@! TO.N,VIN*
X140750000Y-116250000D02*
X140750000Y-116098529D01*
X140750000Y-116098529D02*
X134400000Y-109748529D01*
X134400000Y-97350000D02*
X134400000Y-109748529D01*
X136250000Y-95500000D02*
X134400000Y-97350000D01*
G04 #@! TO.N,/SW1*
X142600000Y-82448529D02*
X141000000Y-80848529D01*
X142600000Y-96350000D02*
X142600000Y-82448529D01*
X141000000Y-80848529D02*
X141000000Y-77000000D01*
X144750000Y-98500000D02*
X142600000Y-96350000D01*
X145500000Y-98500000D02*
X144750000Y-98500000D01*
G04 #@! TO.N,/HDRV1*
X135000000Y-111750000D02*
X126000000Y-102750000D01*
X126000000Y-102750000D02*
X126000000Y-75000000D01*
G04 #@! TO.N,/LDRV2*
X154500000Y-94000000D02*
X154500000Y-81000000D01*
X155500000Y-99750000D02*
X149250000Y-106000000D01*
X155500000Y-95000000D02*
X155500000Y-99750000D01*
X155500000Y-95000000D02*
X154500000Y-94000000D01*
X154500000Y-81000000D02*
X154305000Y-80805000D01*
G04 #@! TO.N,/SW2*
X159850000Y-98198529D02*
X159850000Y-81698529D01*
X160726336Y-99074865D02*
X159850000Y-98198529D01*
X160726336Y-99500000D02*
X160726336Y-99074865D01*
X160726336Y-99600000D02*
X160726336Y-99500000D01*
X156500000Y-78348529D02*
X156500000Y-74750000D01*
X159850000Y-81698529D02*
X156500000Y-78348529D01*
G04 #@! TO.N,/HDRV2*
X161400000Y-86751471D02*
X161500000Y-86651471D01*
X161500000Y-86651471D02*
X161500000Y-76044000D01*
X161500000Y-87348529D02*
X161400000Y-87248529D01*
X161400000Y-87248529D02*
X161400000Y-86751471D01*
X161500000Y-97500000D02*
X161500000Y-87348529D01*
X161500000Y-76044000D02*
X164500000Y-73044000D01*
X161000000Y-98000000D02*
X161500000Y-97500000D01*
G04 #@! TO.N,/LDRV1*
X148466900Y-78966900D02*
X146283100Y-78966900D01*
X144144100Y-78795571D02*
X144144100Y-81105900D01*
X146283100Y-78966900D02*
X144144100Y-81105900D01*
X140751471Y-75998529D02*
X141347058Y-75998529D01*
X144144100Y-96644100D02*
X144144100Y-81105900D01*
X141347058Y-75998529D02*
X144144100Y-78795571D01*
X145000000Y-97500000D02*
X144144100Y-96644100D01*
X140125000Y-76625000D02*
X140751471Y-75998529D01*
G04 #@! TO.N,Net-(Dboot1-A)*
X149625000Y-107875000D02*
X149875000Y-107875000D01*
X152250000Y-110750000D02*
X152250000Y-110250000D01*
X152250000Y-110250000D02*
X149875000Y-107875000D01*
X149250000Y-107500000D02*
X149625000Y-107875000D01*
G04 #@! TO.N,Net-(U1-VIN)*
X144050000Y-107851471D02*
X144621471Y-107280000D01*
X143578529Y-108720000D02*
X144050000Y-108248529D01*
X143201471Y-108720000D02*
X143578529Y-108720000D01*
X146650000Y-104850000D02*
X152750000Y-98750000D01*
X145781471Y-106000000D02*
X146258529Y-106000000D01*
X146258529Y-106000000D02*
X146650000Y-105608529D01*
X145350000Y-106928529D02*
X145350000Y-106431471D01*
X141500000Y-112000000D02*
X141500000Y-110421471D01*
X141500000Y-110421471D02*
X143201471Y-108720000D01*
X146650000Y-105608529D02*
X146650000Y-104850000D01*
X144050000Y-108248529D02*
X144050000Y-107851471D01*
X144621471Y-107280000D02*
X144998529Y-107280000D01*
X145350000Y-106431471D02*
X145781471Y-106000000D01*
X144998529Y-107280000D02*
X145350000Y-106928529D01*
G04 #@! TO.N,Net-(U1-FB)*
X140527501Y-104777501D02*
X135027501Y-104777501D01*
X135027501Y-104777501D02*
X135000000Y-104750000D01*
G04 #@! TD*
M02*
