G04 #@! TF.GenerationSoftware,KiCad,Pcbnew,10.0.5*
G04 #@! TF.CreationDate,2026-09-28T12:25:24-04:00*
G04 #@! TF.ProjectId,24-24-converter,32342d32-342d-4636-9f6e-766572746572,1.0*
G04 #@! TF.SameCoordinates,Original*
G04 #@! TF.FileFunction,Copper,L1,Top*
G04 #@! TF.FilePolarity,Positive*
%FSLAX46Y46*%
G04 Gerber Fmt 4.6, Leading zero omitted, Abs format (unit mm)*
G04 Created by KiCad (PCBNEW 10.0.5) date 2026-09-28 12:25:24*
%MOMM*%
%LPD*%
G01*
G04 APERTURE LIST*
G04 Aperture macros list*
%AMRoundRect*
0 Rectangle with rounded corners*
0 $1 Rounding radius*
0 $2 $3 $4 $5 $6 $7 $8 $9 X,Y pos of 4 corners*
0 Add a 4 corners polygon primitive as box body*
4,1,4,$2,$3,$4,$5,$6,$7,$8,$9,$2,$3,0*
0 Add four circle primitives for the rounded corners*
1,1,$1+$1,$2,$3*
1,1,$1+$1,$4,$5*
1,1,$1+$1,$6,$7*
1,1,$1+$1,$8,$9*
0 Add four rect primitives between the rounded corners*
20,1,$1+$1,$2,$3,$4,$5,0*
20,1,$1+$1,$4,$5,$6,$7,0*
20,1,$1+$1,$6,$7,$8,$9,0*
20,1,$1+$1,$8,$9,$2,$3,0*%
G04 Aperture macros list end*
G04 #@! TA.AperFunction,SMDPad,CuDef*
%ADD10RoundRect,0.250000X-0.475000X0.337500X-0.475000X-0.337500X0.475000X-0.337500X0.475000X0.337500X0*%
G04 #@! TD*
G04 #@! TA.AperFunction,SMDPad,CuDef*
%ADD11RoundRect,0.250000X0.400000X0.625000X-0.400000X0.625000X-0.400000X-0.625000X0.400000X-0.625000X0*%
G04 #@! TD*
G04 #@! TA.AperFunction,SMDPad,CuDef*
%ADD12R,1.219200X2.794000*%
G04 #@! TD*
G04 #@! TA.AperFunction,SMDPad,CuDef*
%ADD13R,0.710000X1.372000*%
G04 #@! TD*
G04 #@! TA.AperFunction,SMDPad,CuDef*
%ADD14R,0.710000X0.590000*%
G04 #@! TD*
G04 #@! TA.AperFunction,SMDPad,CuDef*
%ADD15R,4.520000X3.850000*%
G04 #@! TD*
G04 #@! TA.AperFunction,SMDPad,CuDef*
%ADD16RoundRect,0.250001X-0.462499X-0.624999X0.462499X-0.624999X0.462499X0.624999X-0.462499X0.624999X0*%
G04 #@! TD*
G04 #@! TA.AperFunction,ComponentPad*
%ADD17R,0.850000X0.850000*%
G04 #@! TD*
G04 #@! TA.AperFunction,ComponentPad*
%ADD18C,0.850000*%
G04 #@! TD*
G04 #@! TA.AperFunction,SMDPad,CuDef*
%ADD19RoundRect,0.250000X-0.400000X-0.625000X0.400000X-0.625000X0.400000X0.625000X-0.400000X0.625000X0*%
G04 #@! TD*
G04 #@! TA.AperFunction,SMDPad,CuDef*
%ADD20R,1.498600X3.302000*%
G04 #@! TD*
G04 #@! TA.AperFunction,SMDPad,CuDef*
%ADD21R,6.299200X1.397000*%
G04 #@! TD*
G04 #@! TA.AperFunction,ComponentPad*
%ADD22RoundRect,1.500000X-1.500000X1.500000X-1.500000X-1.500000X1.500000X-1.500000X1.500000X1.500000X0*%
G04 #@! TD*
G04 #@! TA.AperFunction,ComponentPad*
%ADD23C,6.000000*%
G04 #@! TD*
G04 #@! TA.AperFunction,SMDPad,CuDef*
%ADD24RoundRect,0.472500X1.102500X-5.777500X1.102500X5.777500X-1.102500X5.777500X-1.102500X-5.777500X0*%
G04 #@! TD*
G04 #@! TA.AperFunction,SMDPad,CuDef*
%ADD25RoundRect,0.250001X0.462499X0.624999X-0.462499X0.624999X-0.462499X-0.624999X0.462499X-0.624999X0*%
G04 #@! TD*
G04 #@! TA.AperFunction,ViaPad*
%ADD26C,0.600000*%
G04 #@! TD*
G04 #@! TA.AperFunction,Conductor*
%ADD27C,0.200000*%
G04 #@! TD*
G04 APERTURE END LIST*
D10*
G04 #@! TO.P,C21,1*
G04 #@! TO.N,VOUT*
X174000000Y-82462500D03*
G04 #@! TO.P,C21,2*
G04 #@! TO.N,GND*
X174000000Y-84537500D03*
G04 #@! TD*
D11*
G04 #@! TO.P,R1,1*
G04 #@! TO.N,VIN*
X94487500Y-55500000D03*
G04 #@! TO.P,R1,2*
G04 #@! TO.N,Net-(D1-A)*
X91387500Y-55500000D03*
G04 #@! TD*
D10*
G04 #@! TO.P,C10,1*
G04 #@! TO.N,VOUT*
X169250000Y-87712500D03*
G04 #@! TO.P,C10,2*
G04 #@! TO.N,GND*
X169250000Y-89787500D03*
G04 #@! TD*
D12*
G04 #@! TO.P,C7,1*
G04 #@! TO.N,VIN*
X89577800Y-84040200D03*
G04 #@! TO.P,C7,2*
G04 #@! TO.N,GND*
X89577800Y-88459800D03*
G04 #@! TD*
D10*
G04 #@! TO.P,C19,1*
G04 #@! TO.N,VOUT*
X160500000Y-87712500D03*
G04 #@! TO.P,C19,2*
G04 #@! TO.N,GND*
X160500000Y-89787500D03*
G04 #@! TD*
D13*
G04 #@! TO.P,M1_1,1,Source_1*
G04 #@! TO.N,/SW1*
X123825000Y-73430000D03*
G04 #@! TO.P,M1_1,2,Source_2*
X122555000Y-73430000D03*
G04 #@! TO.P,M1_1,3,Source_3*
X121285000Y-73430000D03*
G04 #@! TO.P,M1_1,4,Gate_4*
G04 #@! TO.N,/HDRV1*
X120015000Y-73430000D03*
D14*
G04 #@! TO.P,M1_1,5,Drain_5*
G04 #@! TO.N,VIN*
X120015000Y-79361000D03*
G04 #@! TO.P,M1_1,6,Drain_6*
X121285000Y-79361000D03*
G04 #@! TO.P,M1_1,7,Drain_7*
X122555000Y-79361000D03*
G04 #@! TO.P,M1_1,8,Drain_8*
X123825000Y-79361000D03*
D15*
G04 #@! TO.P,M1_1,9,Drain_9*
X121920000Y-77141000D03*
G04 #@! TD*
D13*
G04 #@! TO.P,M4,1,Source_1*
G04 #@! TO.N,/CSENSE*
X150495000Y-79461000D03*
G04 #@! TO.P,M4,2,Source_2*
X151765000Y-79461000D03*
G04 #@! TO.P,M4,3,Source_3*
X153035000Y-79461000D03*
G04 #@! TO.P,M4,4,Gate_4*
G04 #@! TO.N,/LDRV2*
X154305000Y-79461000D03*
D14*
G04 #@! TO.P,M4,5,Drain_5*
G04 #@! TO.N,/SW2*
X154305000Y-73530000D03*
G04 #@! TO.P,M4,6,Drain_6*
X153035000Y-73530000D03*
G04 #@! TO.P,M4,7,Drain_7*
X151765000Y-73530000D03*
G04 #@! TO.P,M4,8,Drain_8*
X150495000Y-73530000D03*
D15*
G04 #@! TO.P,M4,9,Drain_9*
X152400000Y-75750000D03*
G04 #@! TD*
D12*
G04 #@! TO.P,C1,1*
G04 #@! TO.N,VIN*
X139000000Y-83790200D03*
G04 #@! TO.P,C1,2*
G04 #@! TO.N,GND*
X139000000Y-88209800D03*
G04 #@! TD*
G04 #@! TO.P,C6,1*
G04 #@! TO.N,VIN*
X97750000Y-84040200D03*
G04 #@! TO.P,C6,2*
G04 #@! TO.N,GND*
X97750000Y-88459800D03*
G04 #@! TD*
D10*
G04 #@! TO.P,C11,1*
G04 #@! TO.N,VOUT*
X166000000Y-87925000D03*
G04 #@! TO.P,C11,2*
G04 #@! TO.N,GND*
X166000000Y-90000000D03*
G04 #@! TD*
D16*
G04 #@! TO.P,D1,1,K_1*
G04 #@! TO.N,GND*
X84500000Y-55500000D03*
G04 #@! TO.P,D1,2,A_2*
G04 #@! TO.N,Net-(D1-A)*
X87475000Y-55500000D03*
G04 #@! TD*
D17*
G04 #@! TO.P,J3,1,Pin_1_1*
G04 #@! TO.N,/EN*
X147750000Y-126500000D03*
D18*
G04 #@! TO.P,J3,2,Pin_2_2*
G04 #@! TO.N,GND*
X148750000Y-126500000D03*
G04 #@! TD*
D10*
G04 #@! TO.P,C25,1*
G04 #@! TO.N,VOUT*
X164500000Y-82462500D03*
G04 #@! TO.P,C25,2*
G04 #@! TO.N,GND*
X164500000Y-84537500D03*
G04 #@! TD*
G04 #@! TO.P,C8,1*
G04 #@! TO.N,VOUT*
X175750000Y-87712500D03*
G04 #@! TO.P,C8,2*
G04 #@! TO.N,GND*
X175750000Y-89787500D03*
G04 #@! TD*
G04 #@! TO.P,C20,1*
G04 #@! TO.N,VOUT*
X158000000Y-87712500D03*
G04 #@! TO.P,C20,2*
G04 #@! TO.N,GND*
X158000000Y-89787500D03*
G04 #@! TD*
D13*
G04 #@! TO.P,M3,1,Source_1*
G04 #@! TO.N,/SW2*
X161925000Y-73980000D03*
G04 #@! TO.P,M3,2,Source_2*
X160655000Y-73980000D03*
G04 #@! TO.P,M3,3,Source_3*
X159385000Y-73980000D03*
G04 #@! TO.P,M3,4,Gate_4*
G04 #@! TO.N,/HDRV2*
X158115000Y-73980000D03*
D14*
G04 #@! TO.P,M3,5,Drain_5*
G04 #@! TO.N,VOUT*
X158115000Y-79911000D03*
G04 #@! TO.P,M3,6,Drain_6*
X159385000Y-79911000D03*
G04 #@! TO.P,M3,7,Drain_7*
X160655000Y-79911000D03*
G04 #@! TO.P,M3,8,Drain_8*
X161925000Y-79911000D03*
D15*
G04 #@! TO.P,M3,9,Drain_9*
X160020000Y-77691000D03*
G04 #@! TD*
D13*
G04 #@! TO.P,M3_1,1,Source_1*
G04 #@! TO.N,/SW2*
X169545000Y-73539000D03*
G04 #@! TO.P,M3_1,2,Source_2*
X168275000Y-73539000D03*
G04 #@! TO.P,M3_1,3,Source_3*
X167005000Y-73539000D03*
G04 #@! TO.P,M3_1,4,Gate_4*
G04 #@! TO.N,/HDRV2*
X165735000Y-73539000D03*
D14*
G04 #@! TO.P,M3_1,5,Drain_5*
G04 #@! TO.N,VOUT*
X165735000Y-79470000D03*
G04 #@! TO.P,M3_1,6,Drain_6*
X167005000Y-79470000D03*
G04 #@! TO.P,M3_1,7,Drain_7*
X168275000Y-79470000D03*
G04 #@! TO.P,M3_1,8,Drain_8*
X169545000Y-79470000D03*
D15*
G04 #@! TO.P,M3_1,9,Drain_9*
X167640000Y-77250000D03*
G04 #@! TD*
D19*
G04 #@! TO.P,R2,1*
G04 #@! TO.N,VOUT*
X192425000Y-56485000D03*
G04 #@! TO.P,R2,2*
G04 #@! TO.N,Net-(D3-A)*
X195525000Y-56485000D03*
G04 #@! TD*
D20*
G04 #@! TO.P,C15,1*
G04 #@! TO.N,VIN*
X112250000Y-60795600D03*
G04 #@! TO.P,C15,2*
G04 #@! TO.N,GND*
X112250000Y-67704400D03*
G04 #@! TD*
G04 #@! TO.P,C17,1*
G04 #@! TO.N,VIN*
X100500000Y-72917900D03*
G04 #@! TO.P,C17,2*
G04 #@! TO.N,GND*
X100500000Y-79826700D03*
G04 #@! TD*
D21*
G04 #@! TO.P,Rsense1,1*
G04 #@! TO.N,/CSENSE*
X148500000Y-82391800D03*
G04 #@! TO.P,Rsense1,2*
G04 #@! TO.N,GND*
X148500000Y-84500000D03*
G04 #@! TD*
D22*
G04 #@! TO.P,J2,1,Pin_1_1*
G04 #@! TO.N,VOUT*
X207010000Y-66885000D03*
D23*
G04 #@! TO.P,J2,2,Pin_2_2*
G04 #@! TO.N,GND*
X207010000Y-74085000D03*
G04 #@! TD*
D10*
G04 #@! TO.P,C22,1*
G04 #@! TO.N,VOUT*
X171500000Y-82462500D03*
G04 #@! TO.P,C22,2*
G04 #@! TO.N,GND*
X171500000Y-84537500D03*
G04 #@! TD*
G04 #@! TO.P,C9,1*
G04 #@! TO.N,VOUT*
X172500000Y-87712500D03*
G04 #@! TO.P,C9,2*
G04 #@! TO.N,GND*
X172500000Y-89787500D03*
G04 #@! TD*
G04 #@! TO.P,C26,1*
G04 #@! TO.N,VOUT*
X162000000Y-82522500D03*
G04 #@! TO.P,C26,2*
G04 #@! TO.N,GND*
X162000000Y-84597500D03*
G04 #@! TD*
D13*
G04 #@! TO.P,M2_1,1,Source_1*
G04 #@! TO.N,/CSENSE*
X135255000Y-79431000D03*
G04 #@! TO.P,M2_1,2,Source_2*
X136525000Y-79431000D03*
G04 #@! TO.P,M2_1,3,Source_3*
X137795000Y-79431000D03*
G04 #@! TO.P,M2_1,4,Gate_4*
G04 #@! TO.N,/LDRV1*
X139065000Y-79431000D03*
D14*
G04 #@! TO.P,M2_1,5,Drain_5*
G04 #@! TO.N,/SW1*
X139065000Y-73500000D03*
G04 #@! TO.P,M2_1,6,Drain_6*
X137795000Y-73500000D03*
G04 #@! TO.P,M2_1,7,Drain_7*
X136525000Y-73500000D03*
G04 #@! TO.P,M2_1,8,Drain_8*
X135255000Y-73500000D03*
D15*
G04 #@! TO.P,M2_1,9,Drain_9*
X137160000Y-75720000D03*
G04 #@! TD*
D20*
G04 #@! TO.P,C18,1*
G04 #@! TO.N,VIN*
X111750000Y-72795600D03*
G04 #@! TO.P,C18,2*
G04 #@! TO.N,GND*
X111750000Y-79704400D03*
G04 #@! TD*
G04 #@! TO.P,C14,1*
G04 #@! TO.N,VIN*
X101000000Y-60795600D03*
G04 #@! TO.P,C14,2*
G04 #@! TO.N,GND*
X101000000Y-67704400D03*
G04 #@! TD*
D10*
G04 #@! TO.P,C27,1*
G04 #@! TO.N,VOUT*
X159500000Y-82522500D03*
G04 #@! TO.P,C27,2*
G04 #@! TO.N,GND*
X159500000Y-84597500D03*
G04 #@! TD*
D13*
G04 #@! TO.P,M1,1,Source_1*
G04 #@! TO.N,/SW1*
X131445000Y-73430000D03*
G04 #@! TO.P,M1,2,Source_2*
X130175000Y-73430000D03*
G04 #@! TO.P,M1,3,Source_3*
X128905000Y-73430000D03*
G04 #@! TO.P,M1,4,Gate_4*
G04 #@! TO.N,/HDRV1*
X127635000Y-73430000D03*
D14*
G04 #@! TO.P,M1,5,Drain_5*
G04 #@! TO.N,VIN*
X127635000Y-79361000D03*
G04 #@! TO.P,M1,6,Drain_6*
X128905000Y-79361000D03*
G04 #@! TO.P,M1,7,Drain_7*
X130175000Y-79361000D03*
G04 #@! TO.P,M1,8,Drain_8*
X131445000Y-79361000D03*
D15*
G04 #@! TO.P,M1,9,Drain_9*
X129540000Y-77141000D03*
G04 #@! TD*
D20*
G04 #@! TO.P,C30,1*
G04 #@! TO.N,VOUT*
X192000000Y-83295600D03*
G04 #@! TO.P,C30,2*
G04 #@! TO.N,GND*
X192000000Y-90204400D03*
G04 #@! TD*
D12*
G04 #@! TO.P,C2,1*
G04 #@! TO.N,VIN*
X130750000Y-84040200D03*
G04 #@! TO.P,C2,2*
G04 #@! TO.N,GND*
X130750000Y-88459800D03*
G04 #@! TD*
D24*
G04 #@! TO.P,L1,1,1_1*
G04 #@! TO.N,/SW1*
X141125000Y-62750000D03*
G04 #@! TO.P,L1,2,2_2*
G04 #@! TO.N,/SW2*
X156675000Y-62750000D03*
G04 #@! TD*
D25*
G04 #@! TO.P,D3,1,K_1*
G04 #@! TO.N,GND*
X201475000Y-56500000D03*
G04 #@! TO.P,D3,2,A_2*
G04 #@! TO.N,Net-(D3-A)*
X198500000Y-56500000D03*
G04 #@! TD*
D20*
G04 #@! TO.P,C16,1*
G04 #@! TO.N,VIN*
X89500000Y-72923300D03*
G04 #@! TO.P,C16,2*
G04 #@! TO.N,GND*
X89500000Y-79832100D03*
G04 #@! TD*
D22*
G04 #@! TO.P,J1,1,Pin_1_1*
G04 #@! TO.N,VIN*
X75800000Y-70000000D03*
D23*
G04 #@! TO.P,J1,2,Pin_2_2*
G04 #@! TO.N,GND*
X75800000Y-77200000D03*
G04 #@! TD*
D20*
G04 #@! TO.P,C29,1*
G04 #@! TO.N,VOUT*
X181750000Y-82841200D03*
G04 #@! TO.P,C29,2*
G04 #@! TO.N,GND*
X181750000Y-89750000D03*
G04 #@! TD*
D10*
G04 #@! TO.P,C24,1*
G04 #@! TO.N,VOUT*
X166750000Y-82462500D03*
G04 #@! TO.P,C24,2*
G04 #@! TO.N,GND*
X166750000Y-84537500D03*
G04 #@! TD*
D12*
G04 #@! TO.P,C5,1*
G04 #@! TO.N,VIN*
X106000000Y-84040200D03*
G04 #@! TO.P,C5,2*
G04 #@! TO.N,GND*
X106000000Y-88459800D03*
G04 #@! TD*
G04 #@! TO.P,C4,1*
G04 #@! TO.N,VIN*
X114500000Y-84040200D03*
G04 #@! TO.P,C4,2*
G04 #@! TO.N,GND*
X114500000Y-88459800D03*
G04 #@! TD*
D10*
G04 #@! TO.P,C23,1*
G04 #@! TO.N,VOUT*
X169000000Y-82425000D03*
G04 #@! TO.P,C23,2*
G04 #@! TO.N,GND*
X169000000Y-84500000D03*
G04 #@! TD*
G04 #@! TO.P,C12,1*
G04 #@! TO.N,VOUT*
X163000000Y-87925000D03*
G04 #@! TO.P,C12,2*
G04 #@! TO.N,GND*
X163000000Y-90000000D03*
G04 #@! TD*
D12*
G04 #@! TO.P,C3,1*
G04 #@! TO.N,VIN*
X122750000Y-84040200D03*
G04 #@! TO.P,C3,2*
G04 #@! TO.N,GND*
X122750000Y-88459800D03*
G04 #@! TD*
D20*
G04 #@! TO.P,C31,1*
G04 #@! TO.N,VOUT*
X201750000Y-83295600D03*
G04 #@! TO.P,C31,2*
G04 #@! TO.N,GND*
X201750000Y-90204400D03*
G04 #@! TD*
D13*
G04 #@! TO.P,M2,1,Source_1*
G04 #@! TO.N,/CSENSE*
X142845000Y-79461000D03*
G04 #@! TO.P,M2,2,Source_2*
X144115000Y-79461000D03*
G04 #@! TO.P,M2,3,Source_3*
X145385000Y-79461000D03*
G04 #@! TO.P,M2,4,Gate_4*
G04 #@! TO.N,/LDRV1*
X146655000Y-79461000D03*
D14*
G04 #@! TO.P,M2,5,Drain_5*
G04 #@! TO.N,/SW1*
X146655000Y-73530000D03*
G04 #@! TO.P,M2,6,Drain_6*
X145385000Y-73530000D03*
G04 #@! TO.P,M2,7,Drain_7*
X144115000Y-73530000D03*
G04 #@! TO.P,M2,8,Drain_8*
X142845000Y-73530000D03*
D15*
G04 #@! TO.P,M2,9,Drain_9*
X144750000Y-75750000D03*
G04 #@! TD*
D10*
G04 #@! TO.P,C28,1*
G04 #@! TO.N,VOUT*
X157000000Y-82522500D03*
G04 #@! TO.P,C28,2*
G04 #@! TO.N,GND*
X157000000Y-84597500D03*
G04 #@! TD*
D20*
G04 #@! TO.P,C13,1*
G04 #@! TO.N,VIN*
X90500000Y-60468900D03*
G04 #@! TO.P,C13,2*
G04 #@! TO.N,GND*
X90500000Y-67377700D03*
G04 #@! TD*
D26*
G04 #@! TO.N,VOUT*
X203000000Y-65600000D03*
X164250000Y-77750000D03*
X160250000Y-81250000D03*
X186500000Y-79500000D03*
X199000000Y-75000000D03*
X198500000Y-80500000D03*
X174500000Y-81500000D03*
X164750000Y-81250000D03*
X164500000Y-80000000D03*
X162250000Y-81250000D03*
X189500000Y-82500000D03*
X202000000Y-80000000D03*
X185000000Y-81000000D03*
X163000000Y-77750000D03*
X200000000Y-73000000D03*
X208200000Y-62800000D03*
X174000000Y-87000000D03*
X201500000Y-78000000D03*
X172750000Y-81500000D03*
X205000000Y-63000000D03*
X164500000Y-87000000D03*
X210400000Y-64000000D03*
X188500000Y-81000000D03*
X203800000Y-63800000D03*
X200000000Y-77500000D03*
X170500000Y-81500000D03*
X200000000Y-82000000D03*
X199500000Y-79500000D03*
X157750000Y-81250000D03*
X154750000Y-95250000D03*
X211000000Y-69400000D03*
X198000000Y-79000000D03*
X209600000Y-62000000D03*
X186500000Y-82500000D03*
X194000000Y-80500000D03*
X177000000Y-80500000D03*
X179000000Y-80000000D03*
X170750000Y-79000000D03*
X190500000Y-79500000D03*
X203000000Y-70000000D03*
X211600000Y-70200000D03*
X209800000Y-63000000D03*
X185000000Y-80000000D03*
X170750000Y-80250000D03*
X203600000Y-62200000D03*
X164250000Y-76750000D03*
X163250000Y-81250000D03*
X177000000Y-84500000D03*
X170500000Y-77750000D03*
X140500000Y-103525000D03*
X163000000Y-75750000D03*
X177000000Y-87000000D03*
X158250000Y-82500000D03*
X159250000Y-86750000D03*
X171000000Y-87000000D03*
X202500000Y-72000000D03*
X192500000Y-79500000D03*
X157000000Y-86750000D03*
X202500000Y-74500000D03*
X174250000Y-88000000D03*
X198500000Y-77000000D03*
X190000000Y-81500000D03*
X201000000Y-74000000D03*
X187000000Y-81000000D03*
X167500000Y-87000000D03*
X194000000Y-82000000D03*
X157526471Y-80223530D03*
X207200000Y-61800000D03*
X164250000Y-75750000D03*
X179000000Y-82000000D03*
X181500000Y-79500000D03*
X205000000Y-61800000D03*
X198000000Y-83000000D03*
X197000000Y-83000000D03*
X164250000Y-78750000D03*
X163250000Y-80000000D03*
X157000000Y-95250000D03*
X211200000Y-64400000D03*
X202500000Y-68500000D03*
X156750000Y-88250000D03*
X211000000Y-68200000D03*
X183500000Y-79500000D03*
X203200000Y-67000000D03*
X195500000Y-79500000D03*
X200500000Y-71500000D03*
X211200000Y-65600000D03*
X176000000Y-81500000D03*
X197000000Y-80500000D03*
X200500000Y-75500000D03*
X170500000Y-76500000D03*
X177000000Y-82500000D03*
X180500000Y-79500000D03*
X163000000Y-76750000D03*
X163000000Y-78750000D03*
X162000000Y-87000000D03*
X211000000Y-67200000D03*
X206000000Y-63000000D03*
X135250000Y-103000000D03*
X183500000Y-81000000D03*
X207200000Y-62800000D03*
X168500000Y-81250000D03*
X188500000Y-79500000D03*
X211000000Y-62600000D03*
X202000000Y-76500000D03*
X195500000Y-82000000D03*
X166750000Y-81250000D03*
X183500000Y-82500000D03*
X188000000Y-82500000D03*
X201500000Y-70000000D03*
X185000000Y-82500000D03*
G04 #@! TO.N,GND*
X82000000Y-80000000D03*
X87500000Y-94000000D03*
X70500000Y-73000000D03*
X109000000Y-94000000D03*
X110500000Y-95000000D03*
X97500000Y-81250000D03*
X70500000Y-72000000D03*
X75500000Y-87000000D03*
X128500000Y-92500000D03*
X107000000Y-96000000D03*
X143450000Y-108000000D03*
X208000000Y-86500000D03*
X74500000Y-89000000D03*
X86000000Y-91500000D03*
X206000000Y-92750000D03*
X93000000Y-91000000D03*
X106000000Y-79500000D03*
X191500000Y-95500000D03*
X98500000Y-68000000D03*
X149500000Y-90500000D03*
X75500000Y-85500000D03*
X109500000Y-78500000D03*
X95000000Y-78500000D03*
X97000000Y-94000000D03*
X202500000Y-95500000D03*
X82000000Y-79000000D03*
X70500000Y-64000000D03*
X174000000Y-94000000D03*
X115000000Y-92000000D03*
X168743794Y-93776579D03*
X204200000Y-77200000D03*
X78000000Y-87000000D03*
X100500000Y-93000000D03*
X116000000Y-92000000D03*
X122000000Y-92000000D03*
X77000000Y-87000000D03*
X178500000Y-94000000D03*
X110500000Y-94000000D03*
X108000000Y-96000000D03*
X83000000Y-83500000D03*
X158250000Y-85500000D03*
X204750000Y-81500000D03*
X94000000Y-93000000D03*
X106000000Y-69000000D03*
X105000000Y-69000000D03*
X84500000Y-79000000D03*
X77000000Y-84000000D03*
X180000000Y-95000000D03*
X170743794Y-94776579D03*
X115000000Y-94500000D03*
X146050000Y-110640000D03*
X105000000Y-78500000D03*
X124000000Y-93000000D03*
X94000000Y-68000000D03*
X107000000Y-68000000D03*
X85000000Y-66000000D03*
X81000000Y-89000000D03*
X106000000Y-68000000D03*
X84000000Y-92500000D03*
X136000000Y-108000000D03*
X74500000Y-91500000D03*
X207000000Y-92750000D03*
X79000000Y-83000000D03*
X205750000Y-82500000D03*
X77500000Y-94500000D03*
X77500000Y-93500000D03*
X81000000Y-81000000D03*
X80000000Y-80000000D03*
X83000000Y-91500000D03*
X70500000Y-70000000D03*
X95750000Y-78000000D03*
X117000000Y-95500000D03*
X108000000Y-80500000D03*
X143450000Y-109320000D03*
X118000000Y-96500000D03*
X101500000Y-95000000D03*
X108000000Y-92000000D03*
X85750000Y-81250000D03*
X74500000Y-84500000D03*
X103500000Y-78500000D03*
X207000000Y-86500000D03*
X204400000Y-71400000D03*
X74500000Y-93500000D03*
X112500000Y-95500000D03*
X144750000Y-104040000D03*
X143450000Y-110640000D03*
X92000000Y-94000000D03*
X108000000Y-78500000D03*
X102500000Y-93000000D03*
X152500000Y-88000000D03*
X105000000Y-79500000D03*
X118500000Y-92000000D03*
X140500000Y-115000000D03*
X70500000Y-66000000D03*
X83000000Y-86500000D03*
X96000000Y-69000000D03*
X79000000Y-85000000D03*
X139500000Y-92500000D03*
X104500000Y-91000000D03*
X130500000Y-105000000D03*
X95500000Y-95000000D03*
X100500000Y-94000000D03*
X73500000Y-81000000D03*
X74500000Y-92500000D03*
X160500000Y-93500000D03*
X79500000Y-94500000D03*
X95000000Y-93000000D03*
X208000000Y-84500000D03*
X185500000Y-94000000D03*
X178500000Y-95000000D03*
X83000000Y-87500000D03*
X99500000Y-91000000D03*
X81000000Y-85500000D03*
X107000000Y-78500000D03*
X158000000Y-92500000D03*
X78500000Y-62500000D03*
X114000000Y-93000000D03*
X115000000Y-91000000D03*
X150000000Y-85500000D03*
X169743794Y-92776579D03*
X85000000Y-94000000D03*
X172750000Y-85500000D03*
X148000000Y-87500000D03*
X140500000Y-92500000D03*
X101500000Y-92000000D03*
X82000000Y-65000000D03*
X96250000Y-81250000D03*
X93250000Y-81250000D03*
X82000000Y-81000000D03*
X123000000Y-92000000D03*
X146500000Y-91500000D03*
X82000000Y-85500000D03*
X114000000Y-91000000D03*
X207000000Y-79750000D03*
X199000000Y-94500000D03*
X116000000Y-93000000D03*
X108000000Y-94000000D03*
X93000000Y-94000000D03*
X89500000Y-92000000D03*
X82000000Y-83000000D03*
X83000000Y-64000000D03*
X81500000Y-91500000D03*
X97000000Y-69000000D03*
X94000000Y-96000000D03*
X211000000Y-77400000D03*
X150000000Y-126500000D03*
X73500000Y-84500000D03*
X158000000Y-91500000D03*
X95000000Y-79500000D03*
X205000000Y-95500000D03*
X85000000Y-65000000D03*
X73500000Y-82500000D03*
X91000000Y-96000000D03*
X100500000Y-91000000D03*
X87500000Y-95000000D03*
X211000000Y-79400000D03*
X91000000Y-94000000D03*
X143450000Y-105360000D03*
X87500000Y-67500000D03*
X73500000Y-92500000D03*
X86000000Y-94000000D03*
X138500000Y-93500000D03*
X110000000Y-96000000D03*
X163500000Y-92500000D03*
X205750000Y-81500000D03*
X91000000Y-93000000D03*
X92000000Y-92000000D03*
X207000000Y-78750000D03*
X102500000Y-81000000D03*
X146050000Y-109320000D03*
X79500000Y-91500000D03*
X85000000Y-92500000D03*
X176500000Y-94000000D03*
X109500000Y-68000000D03*
X205000000Y-91750000D03*
X130000000Y-91500000D03*
X166243794Y-92776579D03*
X148500000Y-91500000D03*
X153250000Y-108250000D03*
X107000000Y-95000000D03*
X137462500Y-99212500D03*
X83000000Y-79000000D03*
X156000000Y-92500000D03*
X134000000Y-91500000D03*
X120500000Y-93000000D03*
X78000000Y-85000000D03*
X163500000Y-93500000D03*
X92000000Y-81250000D03*
X114000000Y-95500000D03*
X81000000Y-77800000D03*
X201500000Y-94500000D03*
X83000000Y-85500000D03*
X86000000Y-92500000D03*
X145000000Y-89500000D03*
X78000000Y-84000000D03*
X167743794Y-92776579D03*
X97000000Y-95000000D03*
X78000000Y-86000000D03*
X118500000Y-95500000D03*
X182000000Y-95000000D03*
X95000000Y-96000000D03*
X146050000Y-102720000D03*
X133000000Y-91500000D03*
X77500000Y-96000000D03*
X95000000Y-68000000D03*
X132000000Y-91500000D03*
X81000000Y-86500000D03*
X132000000Y-92500000D03*
X132000000Y-93500000D03*
X79500000Y-90500000D03*
X99500000Y-96000000D03*
X83000000Y-66000000D03*
X107000000Y-94000000D03*
X200500000Y-95500000D03*
X146050000Y-104040000D03*
X80500000Y-64000000D03*
X118500000Y-94500000D03*
X78500000Y-94500000D03*
X84500000Y-80000000D03*
X94250000Y-79250000D03*
X114000000Y-96500000D03*
X78500000Y-63500000D03*
X99500000Y-94000000D03*
X75500000Y-91500000D03*
X93000000Y-92000000D03*
X205000000Y-94500000D03*
X97000000Y-93000000D03*
X73500000Y-93500000D03*
X95500000Y-94000000D03*
X75500000Y-89500000D03*
X183500000Y-94000000D03*
X77500000Y-91500000D03*
X115000000Y-96500000D03*
X87500000Y-65500000D03*
X208000000Y-85500000D03*
X79500000Y-93500000D03*
X70500000Y-74000000D03*
X190000000Y-95500000D03*
X166243794Y-93776579D03*
X125000000Y-91000000D03*
X85000000Y-64000000D03*
X210000000Y-79400000D03*
X151500000Y-85500000D03*
X184500000Y-94000000D03*
X120500000Y-92000000D03*
X116000000Y-95500000D03*
X115000000Y-95500000D03*
X105000000Y-80500000D03*
X74500000Y-83500000D03*
X183500000Y-95000000D03*
X74500000Y-90500000D03*
X70500000Y-63000000D03*
X77000000Y-63500000D03*
X162500000Y-92500000D03*
X137500000Y-91500000D03*
X116000000Y-96500000D03*
X203500000Y-56500000D03*
X84500000Y-57500000D03*
X92000000Y-93000000D03*
X130000000Y-93500000D03*
X95000000Y-67000000D03*
X194500000Y-94500000D03*
X71500000Y-74500000D03*
X92500000Y-69000000D03*
X92500000Y-67000000D03*
X79500000Y-96000000D03*
X97000000Y-67000000D03*
X112500000Y-94500000D03*
X204750000Y-82500000D03*
X100500000Y-92000000D03*
X107000000Y-69000000D03*
X136500000Y-109250000D03*
X171743794Y-94776579D03*
X144750000Y-110640000D03*
X202500000Y-94500000D03*
X86000000Y-90500000D03*
X106000000Y-93000000D03*
X97000000Y-91000000D03*
X145500000Y-85500000D03*
X140500000Y-91500000D03*
X167743794Y-93776579D03*
X110500000Y-92000000D03*
X75500000Y-84500000D03*
X95500000Y-91000000D03*
X74500000Y-95000000D03*
X93000000Y-96000000D03*
X127000000Y-92000000D03*
X100500000Y-96000000D03*
X138500000Y-92500000D03*
X85000000Y-90500000D03*
X144750000Y-106680000D03*
X144750000Y-105360000D03*
X104500000Y-96000000D03*
X151000000Y-87500000D03*
X184500000Y-95000000D03*
X175500000Y-94000000D03*
X78500000Y-93500000D03*
X96000000Y-80500000D03*
X125000000Y-92000000D03*
X92000000Y-96000000D03*
X206000000Y-91750000D03*
X98750000Y-81250000D03*
X100500000Y-95000000D03*
X95000000Y-80500000D03*
X136750000Y-106500000D03*
X194500000Y-95500000D03*
X95500000Y-92000000D03*
X143450000Y-104040000D03*
X160750000Y-85500000D03*
X203500000Y-94500000D03*
X153000000Y-85500000D03*
X175250000Y-85500000D03*
X104500000Y-92000000D03*
X78500000Y-91500000D03*
X172243794Y-93776579D03*
X186500000Y-95000000D03*
X98000000Y-69000000D03*
X97000000Y-92000000D03*
X91000000Y-95000000D03*
X103500000Y-80500000D03*
X147000000Y-86500000D03*
X80000000Y-79000000D03*
X131000000Y-92500000D03*
X91000000Y-92000000D03*
X205000000Y-79750000D03*
X98500000Y-95000000D03*
X77500000Y-92500000D03*
X146050000Y-108000000D03*
X72500000Y-62500000D03*
X95000000Y-69000000D03*
X92500000Y-68000000D03*
X106000000Y-78500000D03*
X151000000Y-90500000D03*
X76000000Y-62500000D03*
X173000000Y-95000000D03*
X193500000Y-95500000D03*
X192500000Y-94500000D03*
X73500000Y-83500000D03*
X140500000Y-93500000D03*
X107000000Y-80500000D03*
X77500000Y-90000000D03*
X73500000Y-87000000D03*
X138500000Y-91500000D03*
X144750000Y-108000000D03*
X205000000Y-71000000D03*
X78500000Y-80000000D03*
X139500000Y-91500000D03*
X118500000Y-91000000D03*
X108000000Y-93000000D03*
X144750000Y-102720000D03*
X84000000Y-95000000D03*
X146500000Y-89500000D03*
X74000000Y-62500000D03*
X148500000Y-90500000D03*
X149000000Y-87500000D03*
X149500000Y-91500000D03*
X83000000Y-65000000D03*
X79500000Y-92500000D03*
X80000000Y-81000000D03*
X70500000Y-67000000D03*
X150500000Y-91500000D03*
X211000000Y-80400000D03*
X109000000Y-69000000D03*
X104500000Y-93000000D03*
X131000000Y-93500000D03*
X84000000Y-90500000D03*
X107000000Y-93000000D03*
X168743794Y-92776579D03*
X208000000Y-78750000D03*
X91000000Y-91000000D03*
X106000000Y-77750000D03*
X207750000Y-82500000D03*
X112500000Y-92000000D03*
X145000000Y-90500000D03*
X149500000Y-89500000D03*
X105000000Y-67000000D03*
X94000000Y-91000000D03*
X116000000Y-94500000D03*
X117000000Y-94500000D03*
X87500000Y-90500000D03*
X83000000Y-84500000D03*
X145000000Y-91500000D03*
X80000000Y-62500000D03*
X83000000Y-92500000D03*
X89500000Y-91000000D03*
X160500000Y-92500000D03*
X85000000Y-95000000D03*
X84000000Y-64000000D03*
X92000000Y-95000000D03*
X170250000Y-85500000D03*
X136250000Y-110500000D03*
X103500000Y-79500000D03*
X205000000Y-92750000D03*
X148500000Y-89500000D03*
X207000000Y-84500000D03*
X211000000Y-78400000D03*
X134000000Y-92500000D03*
X134000000Y-93500000D03*
X148000000Y-86500000D03*
X151500000Y-86500000D03*
X206750000Y-82500000D03*
X75000000Y-63500000D03*
X106000000Y-91000000D03*
X109000000Y-91000000D03*
X139500000Y-93500000D03*
X77000000Y-88500000D03*
X208000000Y-79750000D03*
X75000000Y-62500000D03*
X114000000Y-92000000D03*
X75500000Y-83500000D03*
X82000000Y-87500000D03*
X170743794Y-92776579D03*
X136000000Y-91500000D03*
X101500000Y-93000000D03*
X85000000Y-96000000D03*
X131000000Y-91500000D03*
X176500000Y-95000000D03*
X81500000Y-90500000D03*
X70500000Y-68500000D03*
X96000000Y-79500000D03*
X120500000Y-91000000D03*
X200500000Y-94500000D03*
X89500000Y-94000000D03*
X145500000Y-87500000D03*
X145500000Y-113250000D03*
X75500000Y-81500000D03*
X74500000Y-87000000D03*
X168000000Y-85500000D03*
X93000000Y-93000000D03*
X94750000Y-81250000D03*
X82000000Y-66000000D03*
X94000000Y-94000000D03*
X78000000Y-82500000D03*
X146500000Y-90500000D03*
X108000000Y-91000000D03*
X133000000Y-92500000D03*
X136000000Y-92500000D03*
X103500000Y-67000000D03*
X166000000Y-85500000D03*
X74500000Y-85500000D03*
X117000000Y-96500000D03*
X107000000Y-79500000D03*
X185500000Y-95000000D03*
X196000000Y-95500000D03*
X188000000Y-95000000D03*
X147500000Y-89500000D03*
X177500000Y-94000000D03*
X109000000Y-96000000D03*
X108000000Y-68000000D03*
X86000000Y-96000000D03*
X81500000Y-95000000D03*
X116000000Y-91000000D03*
X81000000Y-84500000D03*
X122000000Y-93000000D03*
X94500000Y-78000000D03*
X109000000Y-93000000D03*
X84000000Y-96000000D03*
X101500000Y-94000000D03*
X143450000Y-102720000D03*
X127000000Y-91000000D03*
X83000000Y-96000000D03*
X104500000Y-94000000D03*
X109000000Y-95000000D03*
X204000000Y-91750000D03*
X107000000Y-92000000D03*
X89500000Y-96000000D03*
X206750000Y-81500000D03*
X207000000Y-85500000D03*
X101500000Y-91000000D03*
X109500000Y-79500000D03*
X89500000Y-95000000D03*
X79000000Y-88500000D03*
X96000000Y-68000000D03*
X82000000Y-86500000D03*
X74000000Y-63500000D03*
X117000000Y-91000000D03*
X78500000Y-81000000D03*
X79000000Y-86000000D03*
X81000000Y-87500000D03*
X79000000Y-84000000D03*
X77000000Y-85000000D03*
X103500000Y-68000000D03*
X78500000Y-96000000D03*
X94000000Y-95000000D03*
X108000000Y-95000000D03*
X112500000Y-91000000D03*
X98500000Y-67000000D03*
X103000000Y-91000000D03*
X163250000Y-85500000D03*
X108000000Y-79500000D03*
X77000000Y-82500000D03*
X97000000Y-96000000D03*
X74500000Y-82500000D03*
X147000000Y-87500000D03*
X77000000Y-86000000D03*
X143450000Y-106680000D03*
X83000000Y-90500000D03*
X98500000Y-91000000D03*
X82000000Y-89000000D03*
X177500000Y-95000000D03*
X146050000Y-105360000D03*
X123000000Y-93000000D03*
X109000000Y-80500000D03*
X70500000Y-65000000D03*
X73500000Y-85500000D03*
X83000000Y-94000000D03*
X104500000Y-95000000D03*
X105000000Y-68000000D03*
X125000000Y-93000000D03*
X94000000Y-67000000D03*
X86000000Y-95000000D03*
X98500000Y-93000000D03*
X106000000Y-67000000D03*
X81000000Y-79000000D03*
X211000000Y-72400000D03*
X196000000Y-94500000D03*
X98500000Y-96000000D03*
X150250000Y-99500000D03*
X79000000Y-87000000D03*
X180000000Y-94000000D03*
X94000000Y-69000000D03*
X98500000Y-94000000D03*
X137500000Y-93500000D03*
X144750000Y-109320000D03*
X110000000Y-93000000D03*
X114000000Y-94500000D03*
X199000000Y-95500000D03*
X87000000Y-92500000D03*
X106000000Y-80500000D03*
X83000000Y-89000000D03*
X207000000Y-87500000D03*
X206000000Y-78750000D03*
X96000000Y-67000000D03*
X83000000Y-95000000D03*
X182000000Y-94000000D03*
X205000000Y-78750000D03*
X206000000Y-79750000D03*
X156000000Y-93500000D03*
X72500000Y-63500000D03*
X207000000Y-91750000D03*
X87000000Y-96000000D03*
X147500000Y-91500000D03*
X98500000Y-92000000D03*
X207750000Y-81500000D03*
X99500000Y-92000000D03*
X102500000Y-96000000D03*
X73500000Y-90500000D03*
X75500000Y-82500000D03*
X124000000Y-91000000D03*
X128500000Y-91500000D03*
X211000000Y-73200000D03*
X94000000Y-92000000D03*
X132500000Y-101750000D03*
X103000000Y-95000000D03*
X84000000Y-81000000D03*
X203500000Y-95500000D03*
X109000000Y-92000000D03*
X103000000Y-94000000D03*
X141750000Y-101250000D03*
X169743794Y-93776579D03*
X81500000Y-92500000D03*
X193500000Y-94500000D03*
X85000000Y-91500000D03*
X117000000Y-93000000D03*
X115000000Y-93000000D03*
X130000000Y-92500000D03*
X191500000Y-94500000D03*
X150000000Y-86500000D03*
X82000000Y-84500000D03*
X87250000Y-81250000D03*
X99500000Y-93000000D03*
X148753555Y-106753555D03*
X208000000Y-87500000D03*
X75500000Y-93500000D03*
X99500000Y-95000000D03*
X89500000Y-93000000D03*
X83000000Y-81000000D03*
X107000000Y-67000000D03*
X81000000Y-80000000D03*
X151000000Y-89500000D03*
X210000000Y-77400000D03*
X76000000Y-63500000D03*
X73500000Y-89000000D03*
X174000000Y-95000000D03*
X73500000Y-95000000D03*
X101500000Y-96000000D03*
X81500000Y-94000000D03*
X117000000Y-92000000D03*
X82000000Y-64000000D03*
X136000000Y-93500000D03*
X110500000Y-91000000D03*
X147500000Y-90500000D03*
X77000000Y-62500000D03*
X78500000Y-92500000D03*
X122000000Y-91000000D03*
X78500000Y-90000000D03*
X186500000Y-94000000D03*
X83000000Y-80000000D03*
X108000000Y-69000000D03*
X128500000Y-93500000D03*
X87500000Y-91500000D03*
X175500000Y-95000000D03*
X75500000Y-90500000D03*
X107000000Y-91000000D03*
X84000000Y-65000000D03*
X158000000Y-93500000D03*
X103000000Y-92000000D03*
X112500000Y-96500000D03*
X140500000Y-102250000D03*
X97000000Y-68000000D03*
X204000000Y-92750000D03*
X145500000Y-86500000D03*
X92000000Y-91000000D03*
X103500000Y-69000000D03*
X146050000Y-106680000D03*
X106000000Y-94000000D03*
X74500000Y-81000000D03*
X75500000Y-95000000D03*
X149000000Y-85500000D03*
X84000000Y-66000000D03*
X106000000Y-96000000D03*
X84000000Y-94000000D03*
X124000000Y-92000000D03*
X141500000Y-93500000D03*
X78000000Y-88500000D03*
X133000000Y-93500000D03*
X153000000Y-87000000D03*
X142000000Y-91500000D03*
X75500000Y-92500000D03*
X81000000Y-63000000D03*
X137500000Y-92500000D03*
X81500000Y-96000000D03*
X109500000Y-67000000D03*
X106000000Y-92000000D03*
X123000000Y-91000000D03*
X210400000Y-71800000D03*
X210000000Y-78400000D03*
X190000000Y-94500000D03*
X162500000Y-93500000D03*
X81000000Y-83000000D03*
X147000000Y-85500000D03*
X93000000Y-95000000D03*
X118000000Y-93000000D03*
X170743794Y-93776579D03*
X73500000Y-91500000D03*
X70500000Y-71000000D03*
X106000000Y-95000000D03*
X192500000Y-95500000D03*
X86000000Y-66000000D03*
X156000000Y-91500000D03*
X210000000Y-80400000D03*
X142000000Y-92500000D03*
X112500000Y-93000000D03*
X108000000Y-67000000D03*
X201500000Y-95500000D03*
X84000000Y-91500000D03*
X188000000Y-94000000D03*
G04 #@! TO.N,VIN*
X92500000Y-82500000D03*
X116500000Y-62000000D03*
X116000000Y-65000000D03*
X115500000Y-60000000D03*
X104000000Y-61500000D03*
X116000000Y-72000000D03*
X117500000Y-78000000D03*
X116500000Y-61000000D03*
X125000000Y-76250000D03*
X118500000Y-83000000D03*
X109500000Y-74000000D03*
X93000000Y-60500000D03*
X107500000Y-74000000D03*
X117000000Y-69000000D03*
X88250000Y-82500000D03*
X96500000Y-61500000D03*
X104000000Y-60500000D03*
X116500000Y-60000000D03*
X121500000Y-80750000D03*
X129000000Y-80250000D03*
X118000000Y-65000000D03*
X96500000Y-60500000D03*
X126750000Y-78250000D03*
X122500000Y-80750000D03*
X115000000Y-73000000D03*
X81800000Y-68600000D03*
X116500000Y-76000000D03*
X107000000Y-61500000D03*
X110594900Y-82654900D03*
X82000000Y-71000000D03*
X108500000Y-74000000D03*
X92000000Y-72000000D03*
X92000000Y-73000000D03*
X114500000Y-62000000D03*
X83000000Y-71000000D03*
X97000000Y-72000000D03*
X119250000Y-85000000D03*
X102000000Y-83500000D03*
X115000000Y-74000000D03*
X106000000Y-74000000D03*
X96000000Y-74000000D03*
X109594900Y-82654900D03*
X86500000Y-72500000D03*
X93000000Y-61500000D03*
X84000000Y-71000000D03*
X109594900Y-83654900D03*
X116500000Y-78000000D03*
X84000000Y-72000000D03*
X108000000Y-61500000D03*
X86500000Y-71500000D03*
X103000000Y-59500000D03*
X91250000Y-82500000D03*
X105000000Y-61500000D03*
X107000000Y-59500000D03*
X126750000Y-81250000D03*
X118500000Y-85500000D03*
X116500000Y-77000000D03*
X116000000Y-69000000D03*
X85500000Y-73500000D03*
X119250000Y-84000000D03*
X124000000Y-80500000D03*
X103000000Y-61500000D03*
X95000000Y-60500000D03*
X116000000Y-80500000D03*
X101250000Y-85250000D03*
X120500000Y-80750000D03*
X107500000Y-72000000D03*
X118000000Y-81500000D03*
X125250000Y-81500000D03*
X140750000Y-116250000D03*
X97000000Y-73000000D03*
X110594900Y-83654900D03*
X118000000Y-64000000D03*
X94500000Y-83500000D03*
X101000000Y-82500000D03*
X118000000Y-85000000D03*
X83000000Y-72000000D03*
X118000000Y-69000000D03*
X82000000Y-72000000D03*
X115500000Y-61000000D03*
X98000000Y-72000000D03*
X106000000Y-73000000D03*
X82000000Y-73000000D03*
X130500000Y-82000000D03*
X126750000Y-77250000D03*
X80500000Y-70000000D03*
X102000000Y-82500000D03*
X99750000Y-82500000D03*
X121500000Y-81750000D03*
X86500000Y-73500000D03*
X103000000Y-60500000D03*
X116250000Y-82750000D03*
X115500000Y-77000000D03*
X104000000Y-74000000D03*
X102500000Y-85250000D03*
X94000000Y-74000000D03*
X93250000Y-85250000D03*
X130500000Y-80000000D03*
X102500000Y-84250000D03*
X97500000Y-59500000D03*
X87500000Y-72500000D03*
X105000000Y-72000000D03*
X124000000Y-81500000D03*
X98000000Y-73000000D03*
X116000000Y-79500000D03*
X117000000Y-64000000D03*
X84000000Y-73000000D03*
X111594900Y-82654900D03*
X80600000Y-71600000D03*
X117500000Y-77000000D03*
X80600000Y-72600000D03*
X114500000Y-61000000D03*
X104000000Y-72000000D03*
X87500000Y-82500000D03*
X116000000Y-73000000D03*
X85500000Y-72500000D03*
X87500000Y-73500000D03*
X97000000Y-74000000D03*
X96000000Y-73000000D03*
X103000000Y-82500000D03*
X132250000Y-80000000D03*
X83000000Y-73000000D03*
X94000000Y-73000000D03*
X117000000Y-81500000D03*
X130500000Y-81000000D03*
X117750000Y-82750000D03*
X118000000Y-68000000D03*
X93500000Y-84500000D03*
X93000000Y-72000000D03*
X117000000Y-65000000D03*
X92000000Y-74000000D03*
X126750000Y-76250000D03*
X94000000Y-59500000D03*
X105000000Y-59500000D03*
X96500000Y-59500000D03*
X98000000Y-74000000D03*
X118500000Y-84000000D03*
X115500000Y-76000000D03*
X109500000Y-72000000D03*
X117000000Y-68000000D03*
X93000000Y-74000000D03*
X114500000Y-60000000D03*
X95750000Y-82750000D03*
X94000000Y-60500000D03*
X119500000Y-81750000D03*
X115000000Y-72000000D03*
X117000000Y-73000000D03*
X117000000Y-79500000D03*
X104000000Y-73000000D03*
X117000000Y-67000000D03*
X97500000Y-61500000D03*
X118000000Y-67000000D03*
X81800000Y-67600000D03*
X108000000Y-82750000D03*
X117500000Y-76000000D03*
X124000000Y-82500000D03*
X105000000Y-74000000D03*
X125000000Y-78250000D03*
X104000000Y-59500000D03*
X115500000Y-62000000D03*
X125250000Y-82500000D03*
X116000000Y-81500000D03*
X80500000Y-69000000D03*
X94000000Y-72000000D03*
X107500000Y-73000000D03*
X85500000Y-71500000D03*
X98500000Y-59500000D03*
X117000000Y-80500000D03*
X119500000Y-83000000D03*
X105000000Y-60500000D03*
X110594900Y-84654900D03*
X94000000Y-61500000D03*
X126750000Y-80250000D03*
X116000000Y-66000000D03*
X95000000Y-59500000D03*
X136250000Y-95500000D03*
X116000000Y-67000000D03*
X80600000Y-73600000D03*
X116000000Y-68000000D03*
X93000000Y-59500000D03*
X119500000Y-80750000D03*
X106000000Y-72000000D03*
X109000000Y-60500000D03*
X115500000Y-78000000D03*
X97500000Y-60500000D03*
X117000000Y-72000000D03*
X122500000Y-81750000D03*
X116000000Y-74000000D03*
X108500000Y-72000000D03*
X132250000Y-81000000D03*
X93500000Y-82500000D03*
X87500000Y-71500000D03*
X116000000Y-64000000D03*
X108000000Y-60500000D03*
X111594900Y-83654900D03*
X126750000Y-82250000D03*
X129000000Y-82250000D03*
X109000000Y-61500000D03*
X118000000Y-66000000D03*
X101500000Y-84500000D03*
X129000000Y-81250000D03*
X93000000Y-73000000D03*
X93500000Y-83500000D03*
X125000000Y-77250000D03*
X109500000Y-73000000D03*
X132250000Y-82000000D03*
X98500000Y-61500000D03*
X118000000Y-80500000D03*
X96000000Y-72000000D03*
X109594900Y-84654900D03*
X80500000Y-68000000D03*
X81800000Y-69600000D03*
X105000000Y-73000000D03*
X109000000Y-59500000D03*
X95000000Y-61500000D03*
X108000000Y-59500000D03*
X94500000Y-82500000D03*
X117000000Y-74000000D03*
X117000000Y-66000000D03*
X98500000Y-60500000D03*
X120500000Y-81750000D03*
X118000000Y-79500000D03*
X125250000Y-80500000D03*
X107000000Y-60500000D03*
X108500000Y-73000000D03*
G04 #@! TO.N,/SW1*
X145500000Y-56500000D03*
X142000000Y-70000000D03*
X137000000Y-64000000D03*
X129500000Y-71500000D03*
X137000000Y-65500000D03*
X145500000Y-68000000D03*
X144500000Y-65000000D03*
X141000000Y-77000000D03*
X144500000Y-57500000D03*
X138000000Y-67000000D03*
X143500000Y-72000000D03*
X145500000Y-65000000D03*
X144000000Y-55500000D03*
X145500000Y-60500000D03*
X134500000Y-71500000D03*
X144500000Y-63500000D03*
X133500000Y-73000000D03*
X146500000Y-71000000D03*
X144000000Y-56500000D03*
X145500000Y-59000000D03*
X138000000Y-59000000D03*
X136000000Y-70500000D03*
X137000000Y-62500000D03*
X131000000Y-71500000D03*
X145000000Y-71000000D03*
X127500000Y-71000000D03*
X125000000Y-73000000D03*
X137000000Y-59000000D03*
X144500000Y-60500000D03*
X138000000Y-56000000D03*
X145500000Y-63500000D03*
X138000000Y-68500000D03*
X144500000Y-59000000D03*
X137500000Y-70500000D03*
X137000000Y-56000000D03*
X137000000Y-67000000D03*
X145500000Y-55500000D03*
X140500000Y-55500000D03*
X133000000Y-74000000D03*
X134500000Y-70500000D03*
X145500000Y-98500000D03*
X137000000Y-57500000D03*
X142000000Y-71000000D03*
X125500000Y-71500000D03*
X144500000Y-68000000D03*
X139000000Y-71000000D03*
X137000000Y-68500000D03*
X145500000Y-58000000D03*
X145500000Y-69500000D03*
X132500000Y-71500000D03*
X139000000Y-70000000D03*
X138000000Y-62500000D03*
X128000000Y-72000000D03*
X144500000Y-62000000D03*
X148772501Y-111977499D03*
X145500000Y-66500000D03*
X143500000Y-71000000D03*
X145500000Y-62000000D03*
X138000000Y-65500000D03*
X138000000Y-61000000D03*
X137500000Y-71500000D03*
X140500000Y-70000000D03*
X142500000Y-55500000D03*
X131000000Y-70500000D03*
X146500000Y-72000000D03*
X140500000Y-71000000D03*
X144500000Y-69500000D03*
X138000000Y-64000000D03*
X137000000Y-61000000D03*
X132500000Y-70500000D03*
X136000000Y-71500000D03*
X138000000Y-57500000D03*
X124250000Y-71750000D03*
X145000000Y-72000000D03*
X144500000Y-66500000D03*
G04 #@! TO.N,/HDRV1*
X135000000Y-111750000D03*
X148950735Y-110950735D03*
X126000000Y-75000000D03*
G04 #@! TO.N,/CSENSE*
X151500000Y-81000000D03*
X140000000Y-80000000D03*
X150500000Y-81000000D03*
X144744100Y-82255900D03*
X155250000Y-78500000D03*
X149000000Y-81000000D03*
X153000000Y-82000000D03*
X149000000Y-80000000D03*
X141750000Y-78250000D03*
X143544100Y-80750587D03*
X141750000Y-79750000D03*
X149500000Y-78000000D03*
X140400000Y-79000000D03*
X143500000Y-82500000D03*
X153000000Y-81000000D03*
X152500000Y-83000000D03*
X151000000Y-78250000D03*
X138250000Y-80750000D03*
X153900000Y-82000000D03*
X135750000Y-80750000D03*
X134000000Y-79000000D03*
X147500000Y-81000000D03*
X153900000Y-83000000D03*
X149500000Y-79250000D03*
X146000000Y-80750000D03*
G04 #@! TO.N,/LDRV2*
X149250000Y-106000000D03*
X154305000Y-80805000D03*
G04 #@! TO.N,/SW2*
X153000000Y-60500000D03*
X154250000Y-61500000D03*
X153000000Y-72000000D03*
X156500000Y-70000000D03*
X162250000Y-70000000D03*
X164000000Y-71000000D03*
X150000000Y-66500000D03*
X158500000Y-71500000D03*
X154250000Y-66750000D03*
X159250000Y-58500000D03*
X158000000Y-70000000D03*
X160726336Y-99500000D03*
X153000000Y-65000000D03*
X154193349Y-57461360D03*
X151500000Y-65000000D03*
X154250000Y-58750000D03*
X160000000Y-70000000D03*
X154250000Y-60000000D03*
X163500000Y-72000000D03*
X153750000Y-105500000D03*
X150000000Y-72000000D03*
X156500000Y-71500000D03*
X162500000Y-72000000D03*
X151500000Y-72000000D03*
X153000000Y-59000000D03*
X166500000Y-71500000D03*
X151500000Y-62000000D03*
X153000000Y-62000000D03*
X155000000Y-71500000D03*
X150000000Y-70500000D03*
X151500000Y-63500000D03*
X163000000Y-70500000D03*
X151500000Y-59000000D03*
X159000000Y-67250000D03*
X150000000Y-56000000D03*
X165000000Y-72000000D03*
X154250000Y-63750000D03*
X153000000Y-63500000D03*
X165500000Y-71000000D03*
X151500000Y-69500000D03*
X154250000Y-65250000D03*
X151500000Y-68000000D03*
X155000000Y-70000000D03*
X151500000Y-57500000D03*
X154250000Y-62750000D03*
X153000000Y-69500000D03*
X151500000Y-66500000D03*
X159250000Y-56500000D03*
X168500000Y-71500000D03*
X156500000Y-74750000D03*
X150000000Y-65000000D03*
X153000000Y-68000000D03*
X150000000Y-59000000D03*
X161500000Y-72000000D03*
X167500000Y-72000000D03*
X151500000Y-56000000D03*
X150000000Y-57500000D03*
X153000000Y-56000000D03*
X154250000Y-56000000D03*
X160500000Y-72000000D03*
X161000000Y-70000000D03*
X150000000Y-69500000D03*
X153000000Y-57500000D03*
X153000000Y-66500000D03*
X153000000Y-70500000D03*
X151500000Y-70500000D03*
X159250000Y-61000000D03*
X150000000Y-62000000D03*
X155500000Y-74000000D03*
X159250000Y-63000000D03*
X159500000Y-71500000D03*
X151500000Y-60500000D03*
X150000000Y-68000000D03*
X159000000Y-65000000D03*
X150000000Y-63500000D03*
X159000000Y-70000000D03*
X150000000Y-60500000D03*
X154250000Y-68000000D03*
X156500000Y-73000000D03*
X155000000Y-73000000D03*
G04 #@! TO.N,/HDRV2*
X149000000Y-104750000D03*
X164500000Y-73044000D03*
X161000000Y-98000000D03*
G04 #@! TO.N,/LDRV1*
X140125000Y-76625000D03*
X145000000Y-97500000D03*
X148466900Y-78966900D03*
X149000000Y-109075000D03*
X145500000Y-101000000D03*
G04 #@! TO.N,Net-(Dboot1-A)*
X152250000Y-110750000D03*
X149250000Y-107500000D03*
G04 #@! TO.N,Net-(U1-VIN)*
X141500000Y-112000000D03*
X152750000Y-98750000D03*
G04 #@! TO.N,Net-(U1-FB)*
X140527501Y-104777501D03*
X135000000Y-104750000D03*
G04 #@! TD*
G04 #@! TO.N,VOUT*
D27*
X181610000Y-82535578D02*
X181610000Y-82626200D01*
X194570128Y-63929872D02*
X192425000Y-61784744D01*
X194570128Y-63929872D02*
X198929872Y-63929872D01*
X201930000Y-82626200D02*
X201930000Y-82535578D01*
X165740000Y-79366000D02*
X165735000Y-79366000D01*
X191770000Y-82626200D02*
X191770000Y-82535578D01*
X192425000Y-56485000D02*
X192425000Y-61784744D01*
X201930000Y-82535578D02*
X201171322Y-81776900D01*
X198929872Y-63929872D02*
X202500000Y-67500000D01*
X192565000Y-56500000D02*
X192550000Y-56485000D01*
X158120000Y-79366000D02*
X158115000Y-79366000D01*
X154750000Y-95250000D02*
X157000000Y-95250000D01*
G04 #@! TO.N,GND*
X84500000Y-55500000D02*
X84500000Y-57500000D01*
X191770000Y-89535000D02*
X191770000Y-89625622D01*
X181610000Y-89535000D02*
X181610000Y-89625622D01*
X201930000Y-89625622D02*
X201930000Y-89535000D01*
X208095000Y-73000000D02*
X207010000Y-74085000D01*
X201475000Y-56500000D02*
X203500000Y-56500000D01*
G04 #@! TO.N,VIN*
X94487500Y-55500000D02*
X95149400Y-55500000D01*
X95149400Y-55500000D02*
X100965000Y-61315600D01*
X139065000Y-83935000D02*
X139065000Y-84150200D01*
G04 #@! TO.N,Net-(D1-A)*
X87475000Y-55500000D02*
X91387500Y-55500000D01*
G04 #@! TO.N,/SW1*
X148772501Y-111977499D02*
X148750000Y-112000000D01*
X149600000Y-108826471D02*
X149600000Y-111150000D01*
X128905000Y-73099000D02*
X128905000Y-73430000D01*
X141000000Y-77000000D02*
X141000000Y-74071800D01*
X145500000Y-98500000D02*
X145500000Y-99250000D01*
X146650000Y-100400000D02*
X146650000Y-106548529D01*
X149248529Y-108475000D02*
X149600000Y-108826471D01*
X145500000Y-99250000D02*
X146650000Y-100400000D01*
X149600000Y-111150000D02*
X148772501Y-111977499D01*
X146650000Y-106548529D02*
X148576471Y-108475000D01*
X148576471Y-108475000D02*
X149248529Y-108475000D01*
G04 #@! TO.N,/HDRV1*
X120015000Y-73801000D02*
X120630000Y-74416000D01*
X126649000Y-74416000D02*
X127635000Y-73430000D01*
X120015000Y-73430000D02*
X120015000Y-73801000D01*
X148950735Y-110950735D02*
X148549265Y-110950735D01*
X135850000Y-112600000D02*
X135000000Y-111750000D01*
X126000000Y-74416000D02*
X126649000Y-74416000D01*
X148549265Y-110950735D02*
X146900000Y-112600000D01*
X146900000Y-112600000D02*
X135850000Y-112600000D01*
X126000000Y-74416000D02*
X126000000Y-75000000D01*
X120630000Y-74416000D02*
X126000000Y-74416000D01*
G04 #@! TO.N,/CSENSE*
X145415000Y-79170900D02*
X145415000Y-78966900D01*
X151765000Y-78970000D02*
X151765000Y-78990900D01*
X137795000Y-78966900D02*
X137795000Y-79297900D01*
G04 #@! TO.N,/LDRV2*
X154305000Y-80805000D02*
X154305000Y-78970000D01*
G04 #@! TO.N,/SW2*
X154726336Y-105500000D02*
X153750000Y-105500000D01*
X160726336Y-99500000D02*
X154726336Y-105500000D01*
X167005000Y-73430000D02*
X167005000Y-73099000D01*
G04 #@! TO.N,/HDRV2*
X163450000Y-74966000D02*
X158770000Y-74966000D01*
X149000000Y-104750000D02*
X149250000Y-104750000D01*
X158115000Y-74311000D02*
X158115000Y-73980000D01*
X164000000Y-74416000D02*
X163450000Y-74966000D01*
X156000000Y-98000000D02*
X161000000Y-98000000D01*
X149250000Y-104750000D02*
X156000000Y-98000000D01*
X158115000Y-73730000D02*
X158115000Y-74101000D01*
X164000000Y-73544000D02*
X164000000Y-74416000D01*
X158115000Y-73761000D02*
X158115000Y-73430000D01*
X164500000Y-73044000D02*
X164000000Y-73544000D01*
X164749000Y-74416000D02*
X164000000Y-74416000D01*
X165735000Y-73430000D02*
X164749000Y-74416000D01*
X158770000Y-74966000D02*
X158115000Y-74311000D01*
G04 #@! TO.N,Net-(D3-A)*
X195540000Y-56500000D02*
X195525000Y-56485000D01*
X198500000Y-56500000D02*
X195540000Y-56500000D01*
G04 #@! TO.N,/LDRV1*
X148714023Y-109075000D02*
X149000000Y-109075000D01*
X140125000Y-76625000D02*
X140000000Y-76750000D01*
X140000000Y-76750000D02*
X140000000Y-78031900D01*
X146685000Y-78966900D02*
X148466900Y-78966900D01*
X145450000Y-101050000D02*
X145500000Y-101000000D01*
X140000000Y-78031900D02*
X139065000Y-78966900D01*
X145826960Y-107305489D02*
X145450000Y-106928529D01*
X146944512Y-107305489D02*
X145826960Y-107305489D01*
X146944512Y-107305489D02*
X148714023Y-109075000D01*
X145450000Y-106928529D02*
X145450000Y-101050000D01*
G04 #@! TD*
G04 #@! TA.AperFunction,Conductor*
G04 #@! TO.N,GND*
G36*
X170250266Y-89462501D02*
G01*
X170250265Y-89462542D01*
X170250456Y-89462501D01*
X170258383Y-89462530D01*
X170258391Y-89462533D01*
X170258392Y-89462531D01*
X171749979Y-89468125D01*
X172316009Y-89472370D01*
X175509803Y-89496323D01*
X175500000Y-89500000D01*
X156000000Y-89462500D01*
X170249794Y-89462500D01*
X170250266Y-89462501D01*
G37*
G04 #@! TD.AperFunction*
G04 #@! TA.AperFunction,Conductor*
G36*
X155584848Y-87417252D02*
G01*
X155572177Y-87432975D01*
X155570126Y-87435257D01*
X155567943Y-87438229D01*
X155521014Y-87527944D01*
X155521013Y-87527947D01*
X155501011Y-87596068D01*
X155490500Y-87669177D01*
X155490500Y-87669179D01*
X155490500Y-87914542D01*
X155492442Y-87946231D01*
X155496203Y-87976794D01*
X155497880Y-87985817D01*
X155498711Y-87994846D01*
X155399999Y-87599998D01*
X155603387Y-87396610D01*
X155584848Y-87417252D01*
G37*
G04 #@! TD.AperFunction*
G04 #@! TD*
G04 #@! TA.AperFunction,Conductor*
G04 #@! TO.N,/SW2*
G36*
X160679044Y-55716325D02*
G01*
X160746286Y-55739102D01*
X160767980Y-55758428D01*
X160951228Y-55964225D01*
X160981591Y-56028402D01*
X160982775Y-56057431D01*
X160036676Y-68682951D01*
X159977307Y-69475233D01*
X155500000Y-69250000D01*
X158750000Y-55637201D01*
X160679044Y-55716325D01*
G37*
G04 #@! TD.AperFunction*
G04 #@! TD*
G04 #@! TA.AperFunction,Conductor*
G04 #@! TO.N,/SW2*
G36*
X167200102Y-70611566D02*
G01*
X169717045Y-71289204D01*
X169749986Y-71303358D01*
X169776106Y-71319322D01*
X169810402Y-71350185D01*
X170462988Y-72201705D01*
X170480529Y-72232982D01*
X170491549Y-72261536D01*
X170500000Y-72306903D01*
X170500000Y-73679694D01*
X170494895Y-73715195D01*
X170487364Y-73740841D01*
X170455564Y-73794435D01*
X169799716Y-74450283D01*
X169771011Y-74471773D01*
X169747550Y-74484585D01*
X169687160Y-74500000D01*
X167320305Y-74500000D01*
X167284804Y-74494895D01*
X167259158Y-74487364D01*
X167205564Y-74455564D01*
X166549716Y-73799716D01*
X166528223Y-73771006D01*
X166515412Y-73747544D01*
X166500000Y-73687159D01*
X166500000Y-72500000D01*
X165750000Y-72500000D01*
X164637035Y-72500000D01*
X164620589Y-72498922D01*
X164604357Y-72496785D01*
X164588193Y-72493570D01*
X164573003Y-72489500D01*
X164573001Y-72489500D01*
X164426999Y-72489500D01*
X164426996Y-72489500D01*
X164426994Y-72489500D01*
X164411809Y-72493569D01*
X164395651Y-72496783D01*
X164379417Y-72498921D01*
X164362965Y-72500000D01*
X163500000Y-72500000D01*
X163500000Y-73429694D01*
X163494895Y-73465195D01*
X163487364Y-73490841D01*
X163455564Y-73544435D01*
X162799716Y-74200283D01*
X162771011Y-74221773D01*
X162747550Y-74234585D01*
X162687160Y-74250000D01*
X158868614Y-74250000D01*
X158833113Y-74244895D01*
X158817874Y-74240420D01*
X158758148Y-74202035D01*
X158758140Y-74202025D01*
X158756935Y-74200634D01*
X158729048Y-74144912D01*
X158727377Y-74137229D01*
X158724499Y-74110451D01*
X158724499Y-73268943D01*
X158724499Y-73268936D01*
X158724498Y-73268927D01*
X158709734Y-73194699D01*
X158709733Y-73194697D01*
X158709733Y-73194696D01*
X158653483Y-73110515D01*
X158569302Y-73054266D01*
X158569299Y-73054265D01*
X158495070Y-73039500D01*
X158495068Y-73039500D01*
X157734936Y-73039500D01*
X157734921Y-73039502D01*
X157734897Y-73039506D01*
X157695545Y-73047334D01*
X157659732Y-73049252D01*
X157643913Y-73047837D01*
X157577848Y-73021842D01*
X157571928Y-73017243D01*
X157532891Y-72966133D01*
X157529042Y-72956880D01*
X157521854Y-72933342D01*
X157517069Y-72909562D01*
X157514594Y-72885083D01*
X157514248Y-72769005D01*
X157514248Y-72769003D01*
X158098754Y-69380731D01*
X159977307Y-69475233D01*
X160036676Y-68682951D01*
X167200102Y-70611566D01*
G37*
G04 #@! TD.AperFunction*
G04 #@! TD*
G04 #@! TA.AperFunction,Conductor*
G04 #@! TO.N,GND*
G36*
X148027290Y-83806154D02*
G01*
X148029771Y-83806239D01*
X148032199Y-83806311D01*
X148034719Y-83806373D01*
X148037227Y-83806423D01*
X148038784Y-83806446D01*
X148039723Y-83806461D01*
X148039798Y-83806461D01*
X148039815Y-83806462D01*
X148042326Y-83806487D01*
X148042339Y-83806487D01*
X148042433Y-83806488D01*
X148044820Y-83806500D01*
X148044910Y-83806500D01*
X151593757Y-83806500D01*
X151661878Y-83826502D01*
X151673633Y-83835517D01*
X151673813Y-83835295D01*
X151676701Y-83837622D01*
X151676703Y-83837624D01*
X151724180Y-83875879D01*
X151774015Y-83907157D01*
X151829148Y-83933292D01*
X151850597Y-83940515D01*
X151850601Y-83940516D01*
X151850604Y-83940517D01*
X151886430Y-83949795D01*
X151886442Y-83949798D01*
X151921715Y-83956290D01*
X151958514Y-83960378D01*
X154119695Y-84045163D01*
X154154595Y-84051531D01*
X155500000Y-84500000D01*
X155000000Y-84500000D01*
X154500000Y-86000000D01*
X147000000Y-86000000D01*
X145500000Y-90499999D01*
X144102328Y-94693010D01*
X144061811Y-94751310D01*
X143996206Y-94778449D01*
X143988669Y-94779028D01*
X143323123Y-94810096D01*
X143322220Y-94810135D01*
X143321435Y-94810166D01*
X143320570Y-94810197D01*
X140787769Y-94892790D01*
X140787762Y-94892790D01*
X138734040Y-94959759D01*
X138253712Y-94975422D01*
X138253652Y-94975422D01*
X137638640Y-94995478D01*
X137569903Y-94977707D01*
X137521686Y-94925595D01*
X137508786Y-94861564D01*
X137512052Y-94810115D01*
X137955502Y-87823119D01*
X137979779Y-87756402D01*
X138036272Y-87713401D01*
X138081249Y-87705100D01*
X138339600Y-87705100D01*
X138339600Y-87233857D01*
X138359602Y-87165736D01*
X138413258Y-87119243D01*
X138461758Y-87107916D01*
X139530559Y-87075317D01*
X139599258Y-87093233D01*
X139647365Y-87145446D01*
X139660400Y-87201258D01*
X139660400Y-87705100D01*
X141705100Y-87705100D01*
X141705100Y-87149324D01*
X141710203Y-87113830D01*
X141714677Y-87098591D01*
X141753043Y-87038877D01*
X141755208Y-87037000D01*
X141809083Y-87009512D01*
X141815031Y-87008123D01*
X141839822Y-87004884D01*
X141923361Y-87002337D01*
X142000000Y-87000000D01*
X142000001Y-86999998D01*
X142000002Y-86999998D01*
X143662288Y-84672795D01*
X144037593Y-84147366D01*
X144057705Y-84125298D01*
X144079829Y-84106169D01*
X144104578Y-84089452D01*
X144864473Y-83698396D01*
X144927063Y-83684529D01*
X148027290Y-83806154D01*
G37*
G04 #@! TD.AperFunction*
G04 #@! TD*
G04 #@! TA.AperFunction,Conductor*
G04 #@! TO.N,GND*
G36*
X79264661Y-61539813D02*
G01*
X80679780Y-61783200D01*
X80706389Y-61790866D01*
X87966572Y-64780353D01*
X88370113Y-64946517D01*
X88387008Y-64955008D01*
X88473139Y-65006739D01*
X88478005Y-65026392D01*
X86000000Y-68000000D01*
X80000000Y-65000000D01*
X79255792Y-64906974D01*
X73210308Y-64151288D01*
X72466100Y-64058262D01*
X72466099Y-64058262D01*
X72466100Y-64058261D01*
X72466102Y-64058261D01*
X72500000Y-63937500D01*
X71500000Y-63937500D01*
X71500000Y-67499993D01*
X71500000Y-71500001D01*
X71999999Y-72499998D01*
X72000003Y-72500005D01*
X72701936Y-73402491D01*
X72701939Y-73402493D01*
X74328146Y-75493330D01*
X74313289Y-75504731D01*
X74104731Y-75713289D01*
X73925179Y-75947285D01*
X73824185Y-76122210D01*
X73002736Y-75300761D01*
X73002735Y-75300761D01*
X72896528Y-75459712D01*
X72896524Y-75459719D01*
X72739927Y-75752692D01*
X72612802Y-76059597D01*
X72612801Y-76059601D01*
X72516370Y-76377494D01*
X72451560Y-76703313D01*
X72419000Y-77033895D01*
X72419000Y-77366104D01*
X72451560Y-77696686D01*
X72516370Y-78022505D01*
X72612801Y-78340398D01*
X72612802Y-78340402D01*
X72739927Y-78647307D01*
X72896524Y-78940279D01*
X73002736Y-79099237D01*
X73824184Y-78277788D01*
X73925179Y-78452715D01*
X74104731Y-78686711D01*
X74313289Y-78895269D01*
X74361042Y-78931911D01*
X71739035Y-83379385D01*
X69738382Y-77377424D01*
X69733216Y-77355632D01*
X69710690Y-77200000D01*
X69524958Y-75916809D01*
X69523734Y-75894447D01*
X69538636Y-75459719D01*
X69585434Y-74094423D01*
X69991132Y-62258697D01*
X70214357Y-62024032D01*
X70275799Y-61988462D01*
X70299353Y-61985032D01*
X74750000Y-61762500D01*
X79237026Y-61538148D01*
X79264661Y-61539813D01*
G37*
G04 #@! TD.AperFunction*
G04 #@! TD*
G04 #@! TA.AperFunction,Conductor*
G04 #@! TO.N,VOUT*
G36*
X170217997Y-75005102D02*
G01*
X170244529Y-75012892D01*
X170294641Y-75041339D01*
X170577011Y-75302823D01*
X171007999Y-75701931D01*
X171030576Y-75729794D01*
X171044747Y-75753532D01*
X171062188Y-75808454D01*
X171461536Y-81000000D01*
X156500000Y-81000000D01*
X156500000Y-77787472D01*
X156502420Y-77762895D01*
X156507171Y-77739010D01*
X156514336Y-77715388D01*
X157015993Y-76504280D01*
X157027631Y-76482506D01*
X157041161Y-76462258D01*
X157056820Y-76443178D01*
X157943178Y-75556820D01*
X157962258Y-75541161D01*
X157982506Y-75527631D01*
X158004280Y-75515993D01*
X158518921Y-75302821D01*
X158553666Y-75293954D01*
X158580677Y-75291051D01*
X158626755Y-75294623D01*
X158723325Y-75320499D01*
X158723329Y-75320500D01*
X163496671Y-75320500D01*
X163586832Y-75296341D01*
X163667668Y-75249671D01*
X163867623Y-75049714D01*
X163896334Y-75028222D01*
X163919794Y-75015412D01*
X163980179Y-75000000D01*
X170182505Y-75000000D01*
X170217997Y-75005102D01*
G37*
G04 #@! TD.AperFunction*
G04 #@! TD*
G04 #@! TA.AperFunction,Conductor*
G04 #@! TO.N,/SW1*
G36*
X145767677Y-55020002D02*
G01*
X145786507Y-55034810D01*
X146499167Y-55714341D01*
X146534664Y-55775826D01*
X146538073Y-55799538D01*
X147461784Y-75197477D01*
X147445045Y-75266472D01*
X147427726Y-75289777D01*
X146786674Y-75971617D01*
X146725440Y-76007547D01*
X146696647Y-76011298D01*
X140329658Y-76100845D01*
X140295276Y-76096564D01*
X140230909Y-76079317D01*
X140198001Y-76070500D01*
X140051999Y-76070500D01*
X140051996Y-76070500D01*
X139932242Y-76102587D01*
X139901405Y-76106868D01*
X136686144Y-76152089D01*
X136617749Y-76133046D01*
X136595905Y-76115821D01*
X136037533Y-75565246D01*
X136003071Y-75503174D01*
X136000000Y-75475526D01*
X136000000Y-74894736D01*
X136000000Y-55802190D01*
X136020002Y-55734069D01*
X136036905Y-55713095D01*
X136713095Y-55036905D01*
X136775407Y-55002879D01*
X136802190Y-55000000D01*
X145699556Y-55000000D01*
X145767677Y-55020002D01*
G37*
G04 #@! TD.AperFunction*
G04 #@! TD*
G04 #@! TA.AperFunction,Conductor*
G04 #@! TO.N,VOUT*
G36*
X180667676Y-78519707D02*
G01*
X180736917Y-78574926D01*
X180775344Y-78654718D01*
X180778439Y-78726391D01*
X180097834Y-83623991D01*
X180066430Y-83706800D01*
X180002206Y-83767782D01*
X179917884Y-83794859D01*
X179900728Y-83795600D01*
X177546300Y-83795600D01*
X177546300Y-83774812D01*
X177550899Y-83766814D01*
X177548961Y-83695843D01*
X177508961Y-83637187D01*
X177443601Y-83609469D01*
X176640516Y-83516301D01*
X176573658Y-83526848D01*
X176520002Y-83573341D01*
X176500000Y-83641462D01*
X176500000Y-83883499D01*
X176499998Y-83883499D01*
X176499998Y-83883498D01*
X176000010Y-83820000D01*
X176000004Y-83820000D01*
X176000000Y-83820000D01*
X175747992Y-83820000D01*
X175378535Y-83820000D01*
X175334250Y-83815010D01*
X175313848Y-83810353D01*
X175234357Y-83772165D01*
X175218413Y-83759500D01*
X175187087Y-83728355D01*
X175145734Y-83676911D01*
X175079940Y-83595060D01*
X175079762Y-83594917D01*
X174958164Y-83497172D01*
X174935754Y-83479158D01*
X174770022Y-83396963D01*
X174593826Y-83353145D01*
X174591159Y-83352432D01*
X174590486Y-83352315D01*
X174548963Y-83349500D01*
X174548955Y-83349500D01*
X174548954Y-83349500D01*
X173451046Y-83349500D01*
X173451045Y-83349500D01*
X173451036Y-83349500D01*
X173409513Y-83352315D01*
X173408837Y-83352433D01*
X173406174Y-83353145D01*
X173229977Y-83396963D01*
X173064244Y-83479158D01*
X172920060Y-83595059D01*
X172919148Y-83596194D01*
X172887508Y-83627588D01*
X172873336Y-83638799D01*
X172793393Y-83676911D01*
X172704831Y-83676563D01*
X172625798Y-83638311D01*
X172612121Y-83627404D01*
X172581092Y-83596492D01*
X172579942Y-83595062D01*
X172579938Y-83595059D01*
X172471237Y-83507681D01*
X172471235Y-83507679D01*
X172435757Y-83479160D01*
X172270022Y-83396963D01*
X172093826Y-83353145D01*
X172091159Y-83352432D01*
X172090486Y-83352315D01*
X172048963Y-83349500D01*
X172048955Y-83349500D01*
X172048954Y-83349500D01*
X170951046Y-83349500D01*
X170951045Y-83349500D01*
X170951036Y-83349500D01*
X170909513Y-83352315D01*
X170908837Y-83352433D01*
X170906174Y-83353145D01*
X170729977Y-83396963D01*
X170564241Y-83479160D01*
X170424315Y-83591638D01*
X170423092Y-83592614D01*
X170388398Y-83620056D01*
X170308453Y-83658164D01*
X170219890Y-83657811D01*
X170140865Y-83619558D01*
X170127194Y-83608655D01*
X170096172Y-83577753D01*
X170079938Y-83557558D01*
X170079934Y-83557555D01*
X169935757Y-83441660D01*
X169770022Y-83359463D01*
X169593826Y-83315645D01*
X169591159Y-83314932D01*
X169590486Y-83314815D01*
X169548963Y-83312000D01*
X169548955Y-83312000D01*
X169548954Y-83312000D01*
X168451046Y-83312000D01*
X168451045Y-83312000D01*
X168451036Y-83312000D01*
X168409513Y-83314815D01*
X168408837Y-83314933D01*
X168406174Y-83315645D01*
X168229977Y-83359463D01*
X168064244Y-83441658D01*
X167993824Y-83498265D01*
X167956182Y-83522120D01*
X167938686Y-83530629D01*
X167852420Y-83550670D01*
X167766009Y-83531299D01*
X167759211Y-83528058D01*
X167749126Y-83523249D01*
X167710094Y-83498724D01*
X167709523Y-83498265D01*
X167685755Y-83479159D01*
X167566155Y-83419843D01*
X167520022Y-83396963D01*
X167343826Y-83353145D01*
X167341159Y-83352432D01*
X167340486Y-83352315D01*
X167298963Y-83349500D01*
X167298955Y-83349500D01*
X167298954Y-83349500D01*
X166201046Y-83349500D01*
X166201045Y-83349500D01*
X166201036Y-83349500D01*
X166159513Y-83352315D01*
X166158837Y-83352433D01*
X166156174Y-83353145D01*
X165979977Y-83396963D01*
X165814242Y-83479160D01*
X165814241Y-83479160D01*
X165767153Y-83517012D01*
X165729511Y-83540868D01*
X165712013Y-83549378D01*
X165625747Y-83569419D01*
X165539330Y-83550046D01*
X165522447Y-83541996D01*
X165483419Y-83517473D01*
X165435754Y-83479158D01*
X165270022Y-83396963D01*
X165093826Y-83353145D01*
X165091159Y-83352432D01*
X165090486Y-83352315D01*
X165048963Y-83349500D01*
X165048955Y-83349500D01*
X165048954Y-83349500D01*
X163951046Y-83349500D01*
X163951045Y-83349500D01*
X163951036Y-83349500D01*
X163909513Y-83352315D01*
X163908837Y-83352433D01*
X163906174Y-83353145D01*
X163729977Y-83396963D01*
X163564244Y-83479158D01*
X163420064Y-83595055D01*
X163420059Y-83595061D01*
X163394771Y-83626519D01*
X163363149Y-83657897D01*
X163347889Y-83669971D01*
X163267949Y-83708091D01*
X163179387Y-83707751D01*
X163179365Y-83707746D01*
X163176931Y-83707181D01*
X163106510Y-83675419D01*
X163096779Y-83668486D01*
X163084175Y-83658395D01*
X163084142Y-83658438D01*
X163079938Y-83655059D01*
X163059711Y-83638799D01*
X162935756Y-83539159D01*
X162928678Y-83535649D01*
X162921367Y-83532023D01*
X162921366Y-83532022D01*
X162921366Y-83532023D01*
X162770022Y-83456963D01*
X162598024Y-83414189D01*
X162593873Y-83412983D01*
X162590488Y-83412315D01*
X162548960Y-83409500D01*
X162548955Y-83409500D01*
X162548954Y-83409500D01*
X161451046Y-83409500D01*
X161451045Y-83409500D01*
X161451036Y-83409500D01*
X161409513Y-83412315D01*
X161408837Y-83412433D01*
X161406174Y-83413145D01*
X161229977Y-83456963D01*
X161064244Y-83539158D01*
X160920058Y-83655061D01*
X160919138Y-83656206D01*
X160918166Y-83657169D01*
X160916461Y-83659071D01*
X160916350Y-83658971D01*
X160887515Y-83687581D01*
X160873343Y-83698793D01*
X160793402Y-83736909D01*
X160704839Y-83736565D01*
X160625796Y-83698309D01*
X160612121Y-83687403D01*
X160581100Y-83656503D01*
X160579942Y-83655062D01*
X160579936Y-83655056D01*
X160458646Y-83557560D01*
X160458642Y-83557556D01*
X160435760Y-83539162D01*
X160435748Y-83539155D01*
X160421372Y-83532026D01*
X160421366Y-83532021D01*
X160421366Y-83532023D01*
X160270022Y-83456963D01*
X160098024Y-83414189D01*
X160093873Y-83412983D01*
X160090488Y-83412315D01*
X160048960Y-83409500D01*
X160048955Y-83409500D01*
X160048954Y-83409500D01*
X158951046Y-83409500D01*
X158951045Y-83409500D01*
X158951036Y-83409500D01*
X158909513Y-83412315D01*
X158908837Y-83412433D01*
X158906174Y-83413145D01*
X158729977Y-83456963D01*
X158564244Y-83539158D01*
X158420058Y-83655061D01*
X158419138Y-83656206D01*
X158418166Y-83657169D01*
X158416461Y-83659071D01*
X158416350Y-83658971D01*
X158387515Y-83687581D01*
X158373343Y-83698793D01*
X158293402Y-83736909D01*
X158204839Y-83736565D01*
X158125796Y-83698309D01*
X158112121Y-83687403D01*
X158081100Y-83656503D01*
X158079942Y-83655062D01*
X158079936Y-83655056D01*
X157958646Y-83557560D01*
X157958642Y-83557556D01*
X157935760Y-83539162D01*
X157935748Y-83539155D01*
X157921372Y-83532026D01*
X157921366Y-83532021D01*
X157921366Y-83532023D01*
X157770022Y-83456963D01*
X157598024Y-83414189D01*
X157593873Y-83412983D01*
X157590488Y-83412315D01*
X157548960Y-83409500D01*
X157548955Y-83409500D01*
X157548954Y-83409500D01*
X156451046Y-83409500D01*
X156451045Y-83409500D01*
X156451036Y-83409500D01*
X156409513Y-83412315D01*
X156408840Y-83412432D01*
X156406174Y-83413145D01*
X156229977Y-83456963D01*
X156189552Y-83477012D01*
X156184860Y-83478140D01*
X156147664Y-83492216D01*
X156128377Y-83496854D01*
X156105958Y-83497113D01*
X156103443Y-83497719D01*
X156100913Y-83497172D01*
X156039819Y-83497881D01*
X155960602Y-83461168D01*
X155945811Y-83449803D01*
X155914551Y-83419843D01*
X155908338Y-83412432D01*
X155908243Y-83412318D01*
X155826507Y-83314815D01*
X155704990Y-83169856D01*
X155680369Y-83132721D01*
X155677576Y-83127268D01*
X155670341Y-83113138D01*
X155656093Y-83058472D01*
X155654639Y-83055729D01*
X155654509Y-83052396D01*
X155648601Y-83029727D01*
X155647924Y-83011260D01*
X155650846Y-82969227D01*
X155939806Y-81339489D01*
X155952446Y-81296771D01*
X155964548Y-81268138D01*
X156002042Y-81210184D01*
X156003365Y-81208760D01*
X156021299Y-81191716D01*
X156177357Y-81060894D01*
X156214486Y-81036278D01*
X156242159Y-81022108D01*
X156308217Y-81001770D01*
X156309762Y-81001577D01*
X156310144Y-81001530D01*
X156334776Y-81000000D01*
X173499998Y-81000000D01*
X173500000Y-81000000D01*
X177312963Y-78881684D01*
X177334457Y-78871379D01*
X177356471Y-78862405D01*
X177379041Y-78854748D01*
X178649881Y-78507053D01*
X178702396Y-78500000D01*
X180581333Y-78500000D01*
X180667676Y-78519707D01*
G37*
G04 #@! TD.AperFunction*
G04 #@! TD*
G04 #@! TA.AperFunction,Conductor*
G04 #@! TO.N,GND*
G36*
X177536717Y-88795600D02*
G01*
X180853807Y-88795600D01*
X181159679Y-95500000D01*
X158342901Y-95500000D01*
X158274780Y-95479998D01*
X158274242Y-95479650D01*
X157497131Y-94974626D01*
X157456670Y-94931975D01*
X157443711Y-94909529D01*
X157443709Y-94909527D01*
X157443707Y-94909524D01*
X157340477Y-94806294D01*
X157340470Y-94806288D01*
X157250552Y-94754374D01*
X157201559Y-94702991D01*
X157198415Y-94696433D01*
X157196417Y-94691938D01*
X157196415Y-94691933D01*
X156891811Y-94006574D01*
X157000000Y-94000000D01*
X155788178Y-89152712D01*
X155999998Y-89462498D01*
X155999999Y-89462498D01*
X156000000Y-89462500D01*
X175500000Y-89500000D01*
X177424543Y-88778295D01*
X177495347Y-88773105D01*
X177536717Y-88795600D01*
G37*
G04 #@! TD.AperFunction*
G04 #@! TA.AperFunction,Conductor*
G36*
X175265931Y-84520002D02*
G01*
X175286905Y-84536905D01*
X175910905Y-85160905D01*
X175944931Y-85223217D01*
X175939866Y-85294032D01*
X175910905Y-85339095D01*
X175286905Y-85963095D01*
X175224593Y-85997121D01*
X175197810Y-86000000D01*
X156000000Y-86000000D01*
X156000000Y-86485330D01*
X155996629Y-86514279D01*
X155845491Y-87154508D01*
X155399999Y-87599999D01*
X155000000Y-86000000D01*
X154500000Y-86000000D01*
X155000000Y-84500000D01*
X155500000Y-84500000D01*
X175197810Y-84500000D01*
X175265931Y-84520002D01*
G37*
G04 #@! TD.AperFunction*
G04 #@! TD*
G04 #@! TA.AperFunction,Conductor*
G04 #@! TO.N,GND*
G36*
X155635581Y-88542324D02*
G01*
X155635581Y-88542326D01*
X155742667Y-88970669D01*
X157000000Y-94000000D01*
X156891811Y-94006574D01*
X156143192Y-94052070D01*
X148290063Y-94529332D01*
X144820918Y-94740164D01*
X144819150Y-94740259D01*
X144075000Y-94774997D01*
X147000000Y-86000000D01*
X155000000Y-86000000D01*
X155635581Y-88542324D01*
G37*
G04 #@! TD.AperFunction*
G04 #@! TD*
G04 #@! TA.AperFunction,Conductor*
G04 #@! TO.N,VOUT*
G36*
X209465232Y-61497325D02*
G01*
X211674453Y-61667265D01*
X211759028Y-61693537D01*
X211805195Y-61730466D01*
X211946511Y-61883069D01*
X211990717Y-61959809D01*
X211999500Y-62018278D01*
X211999500Y-70754861D01*
X211979793Y-70841204D01*
X211933844Y-70902578D01*
X211819568Y-71005735D01*
X211742271Y-71048962D01*
X211665924Y-71055980D01*
X210752568Y-70962319D01*
X210696718Y-70948210D01*
X210662666Y-70934106D01*
X210488691Y-70899500D01*
X210311309Y-70899500D01*
X210311308Y-70899500D01*
X210282373Y-70905255D01*
X210223253Y-70908040D01*
X208292498Y-70710049D01*
X208236647Y-70695940D01*
X208224440Y-70690884D01*
X208224439Y-70690883D01*
X208224435Y-70690882D01*
X208107563Y-70655429D01*
X208030659Y-70611508D01*
X207980428Y-70538567D01*
X207966819Y-70451056D01*
X207992527Y-70366306D01*
X208052462Y-70301104D01*
X208134751Y-70268363D01*
X208165330Y-70265999D01*
X208588581Y-70265999D01*
X208588589Y-70265998D01*
X208750487Y-70255635D01*
X208750489Y-70255634D01*
X209020281Y-70200688D01*
X209020282Y-70200688D01*
X209279218Y-70107038D01*
X209521745Y-69976692D01*
X209742724Y-69812411D01*
X209937411Y-69617724D01*
X210101692Y-69396745D01*
X210232038Y-69154218D01*
X210325688Y-68895282D01*
X210325688Y-68895281D01*
X210380636Y-68625481D01*
X210390998Y-68463617D01*
X210391000Y-68463583D01*
X210391000Y-67520000D01*
X209169224Y-67520000D01*
X209221502Y-67324895D01*
X209260000Y-67032473D01*
X209260000Y-66737527D01*
X209221502Y-66445105D01*
X209169224Y-66250000D01*
X210390999Y-66250000D01*
X210390999Y-65306418D01*
X210390998Y-65306410D01*
X210380635Y-65144512D01*
X210380634Y-65144510D01*
X210325688Y-64874718D01*
X210325688Y-64874717D01*
X210232038Y-64615781D01*
X210101692Y-64373254D01*
X209937411Y-64152275D01*
X209742724Y-63957588D01*
X209521745Y-63793307D01*
X209279218Y-63662961D01*
X209020282Y-63569311D01*
X208750481Y-63514363D01*
X208588617Y-63504001D01*
X208588583Y-63504000D01*
X207645000Y-63504000D01*
X207645000Y-64725775D01*
X207449895Y-64673498D01*
X207157473Y-64635000D01*
X206862527Y-64635000D01*
X206570105Y-64673498D01*
X206375000Y-64725775D01*
X206375000Y-63504000D01*
X205431419Y-63504000D01*
X205431410Y-63504001D01*
X205269512Y-63514364D01*
X205269510Y-63514365D01*
X204999718Y-63569311D01*
X204999717Y-63569311D01*
X204740781Y-63662961D01*
X204498254Y-63793307D01*
X204277275Y-63957588D01*
X204082588Y-64152275D01*
X203918307Y-64373254D01*
X203787961Y-64615781D01*
X203694311Y-64874717D01*
X203694311Y-64874718D01*
X203639363Y-65144518D01*
X203629001Y-65306382D01*
X203629000Y-65306416D01*
X203629000Y-66250000D01*
X204850776Y-66250000D01*
X204798498Y-66445105D01*
X204760000Y-66737527D01*
X204760000Y-67032473D01*
X204798498Y-67324895D01*
X204850776Y-67520000D01*
X203629001Y-67520000D01*
X203629001Y-68463589D01*
X203639364Y-68625487D01*
X203639365Y-68625489D01*
X203694311Y-68895281D01*
X203694311Y-68895282D01*
X203787961Y-69154218D01*
X203918307Y-69396745D01*
X204082588Y-69617724D01*
X204277275Y-69812411D01*
X204466966Y-69953432D01*
X204524501Y-70020761D01*
X204547125Y-70106386D01*
X204530357Y-70193348D01*
X204477518Y-70264422D01*
X204458800Y-70278596D01*
X204425964Y-70300536D01*
X204425958Y-70300541D01*
X204414155Y-70312343D01*
X201816125Y-70045927D01*
X202892380Y-61822318D01*
X202923124Y-61739267D01*
X202964261Y-61693656D01*
X203686201Y-61107524D01*
X203765651Y-61068404D01*
X203826886Y-61063606D01*
X209465232Y-61497325D01*
G37*
G04 #@! TD.AperFunction*
G04 #@! TD*
G04 #@! TA.AperFunction,Conductor*
G04 #@! TO.N,VOUT*
G36*
X177443601Y-83609469D02*
G01*
X177508961Y-83637187D01*
X177548961Y-83695843D01*
X177550899Y-83766814D01*
X177546300Y-83774812D01*
X177546300Y-87790454D01*
X177541195Y-87825955D01*
X177533482Y-87852221D01*
X177495097Y-87911946D01*
X177489260Y-87916706D01*
X177470578Y-87931032D01*
X177447590Y-87945037D01*
X176287078Y-88491596D01*
X176261643Y-88500397D01*
X176235863Y-88506328D01*
X176209131Y-88509527D01*
X166375000Y-88628012D01*
X156570691Y-88746134D01*
X156535134Y-88741458D01*
X156509527Y-88734273D01*
X156455009Y-88702589D01*
X155800338Y-88055759D01*
X155766658Y-87996689D01*
X155753760Y-87945096D01*
X155750000Y-87914543D01*
X155750000Y-87669177D01*
X155770002Y-87601056D01*
X155786905Y-87580081D01*
X156028985Y-87338002D01*
X156056008Y-87306240D01*
X156098049Y-87214129D01*
X156186293Y-86840316D01*
X156219825Y-86780173D01*
X156450288Y-86549711D01*
X156478991Y-86528224D01*
X156502455Y-86515411D01*
X156562840Y-86500000D01*
X176500000Y-86500000D01*
X176500000Y-83641462D01*
X176520002Y-83573341D01*
X176573658Y-83526848D01*
X176640516Y-83516301D01*
X177443601Y-83609469D01*
G37*
G04 #@! TD.AperFunction*
G04 #@! TD*
G04 #@! TA.AperFunction,Conductor*
G04 #@! TO.N,VIN*
G36*
X103000000Y-58125000D02*
G01*
X117189864Y-58479746D01*
X117225223Y-58485736D01*
X117254615Y-58495170D01*
X117294583Y-58516565D01*
X117879529Y-58982278D01*
X118139032Y-59188885D01*
X118163623Y-59214987D01*
X118181377Y-59240238D01*
X118200355Y-59281413D01*
X118907596Y-62039729D01*
X119574464Y-64640591D01*
X120195310Y-67061962D01*
X120199043Y-67085892D01*
X120200439Y-67109738D01*
X120199523Y-67133945D01*
X120023515Y-68438820D01*
X120017986Y-68462398D01*
X120010323Y-68485022D01*
X120000383Y-68507108D01*
X117999979Y-72007818D01*
X117999977Y-72007822D01*
X117695362Y-72540899D01*
X117644198Y-72590121D01*
X117588561Y-72604359D01*
X114206816Y-72674111D01*
X114138298Y-72655518D01*
X114090708Y-72602833D01*
X114078564Y-72557473D01*
X114036667Y-71993542D01*
X113870881Y-69762061D01*
X113885781Y-69692647D01*
X113894929Y-69678213D01*
X113900649Y-69670415D01*
X113900784Y-69670231D01*
X113901310Y-69669505D01*
X113901725Y-69668937D01*
X113943876Y-69576876D01*
X113960270Y-69507799D01*
X113966924Y-69434237D01*
X113801167Y-66284865D01*
X113798911Y-66261760D01*
X113795722Y-66239465D01*
X113764401Y-66147908D01*
X113729299Y-66086196D01*
X113684016Y-66027844D01*
X113621008Y-65966987D01*
X113585906Y-65905275D01*
X113582889Y-65885693D01*
X113500752Y-64780122D01*
X113500814Y-64770141D01*
X112761249Y-64640591D01*
X109875000Y-64135000D01*
X106250010Y-63500000D01*
X97000000Y-63125000D01*
X88569978Y-62783241D01*
X88534715Y-62776703D01*
X88509496Y-62768174D01*
X88456830Y-62733790D01*
X87835105Y-62053107D01*
X87814934Y-62023457D01*
X87803242Y-61999533D01*
X87790603Y-61937918D01*
X87959081Y-58568360D01*
X87965952Y-58533163D01*
X87974847Y-58507658D01*
X88008122Y-58456780D01*
X88698897Y-57815933D01*
X88728391Y-57795534D01*
X88741682Y-57788910D01*
X88752565Y-57783486D01*
X88811912Y-57770297D01*
X103000000Y-58125000D01*
G37*
G04 #@! TD.AperFunction*
G04 #@! TD*
G04 #@! TA.AperFunction,Conductor*
G04 #@! TO.N,/SW2*
G36*
X156257144Y-55403173D02*
G01*
X160341889Y-55630104D01*
X160377130Y-55637198D01*
X160458865Y-55666277D01*
X160463596Y-55672221D01*
X160463597Y-55672221D01*
X160457555Y-55707240D01*
X158750000Y-55637201D01*
X155500000Y-69250000D01*
X158098755Y-69380731D01*
X157514247Y-72769011D01*
X157514247Y-72769003D01*
X157488168Y-72920181D01*
X157135127Y-74966690D01*
X157103836Y-75030419D01*
X157093626Y-75040362D01*
X156284237Y-75743980D01*
X156219704Y-75773577D01*
X156205508Y-75774827D01*
X153000000Y-75875000D01*
X149802954Y-75974906D01*
X149734241Y-75957041D01*
X149711325Y-75939443D01*
X149038307Y-75287128D01*
X149003313Y-75225355D01*
X149000000Y-75196652D01*
X149000000Y-55804250D01*
X149020002Y-55736129D01*
X149039408Y-55712719D01*
X149709433Y-55078883D01*
X149772665Y-55046601D01*
X149803008Y-55044611D01*
X156257144Y-55403173D01*
G37*
G04 #@! TD.AperFunction*
G04 #@! TD*
G04 #@! TA.AperFunction,Conductor*
G04 #@! TO.N,/CSENSE*
G36*
X134536878Y-77505102D02*
G01*
X134552122Y-77509578D01*
X134611847Y-77547960D01*
X134611859Y-77547974D01*
X134613064Y-77549365D01*
X134640947Y-77605072D01*
X134642619Y-77612755D01*
X134645501Y-77639548D01*
X134645501Y-77670076D01*
X134660265Y-77744301D01*
X134660265Y-77744302D01*
X134716514Y-77828482D01*
X134716515Y-77828482D01*
X134716516Y-77828484D01*
X134800697Y-77884733D01*
X134800699Y-77884734D01*
X134874933Y-77899500D01*
X139308754Y-77899499D01*
X139344244Y-77904600D01*
X139355275Y-77907839D01*
X139415001Y-77946219D01*
X139444497Y-78010799D01*
X139434396Y-78081073D01*
X139434393Y-78081080D01*
X139431155Y-78088170D01*
X139405637Y-78124922D01*
X139089770Y-78440788D01*
X139061062Y-78462278D01*
X139037606Y-78475086D01*
X138977220Y-78490500D01*
X138684936Y-78490500D01*
X138684931Y-78490500D01*
X138684925Y-78490501D01*
X138610698Y-78505265D01*
X138610696Y-78505265D01*
X138526515Y-78561515D01*
X138470266Y-78645696D01*
X138470265Y-78645699D01*
X138455500Y-78719926D01*
X138455500Y-78719930D01*
X138455500Y-80142063D01*
X138455501Y-80142069D01*
X138455501Y-80142073D01*
X138470265Y-80216300D01*
X138470265Y-80216302D01*
X138526514Y-80300482D01*
X138526515Y-80300482D01*
X138526516Y-80300484D01*
X138610697Y-80356733D01*
X138610699Y-80356734D01*
X138684933Y-80371500D01*
X139445066Y-80371499D01*
X139445287Y-80371499D01*
X139447302Y-80371135D01*
X139450064Y-80370686D01*
X139452807Y-80369959D01*
X139494326Y-80361701D01*
X139519301Y-80356734D01*
X139603484Y-80300484D01*
X139659734Y-80216301D01*
X139674500Y-80142067D01*
X139674499Y-78929042D01*
X139677555Y-78918635D01*
X139679602Y-78893548D01*
X139683282Y-78881014D01*
X139684049Y-78877485D01*
X139718065Y-78815173D01*
X139783313Y-78749926D01*
X146045500Y-78749926D01*
X146045500Y-78749930D01*
X146045500Y-80172063D01*
X146045501Y-80172069D01*
X146045501Y-80172073D01*
X146060265Y-80246300D01*
X146060265Y-80246302D01*
X146116514Y-80330482D01*
X146116515Y-80330482D01*
X146116516Y-80330484D01*
X146200697Y-80386733D01*
X146200699Y-80386734D01*
X146274933Y-80401500D01*
X147035066Y-80401499D01*
X147035287Y-80401499D01*
X147037302Y-80401135D01*
X147040064Y-80400686D01*
X147042807Y-80399959D01*
X147084326Y-80391701D01*
X147109301Y-80386734D01*
X147193484Y-80330484D01*
X147249734Y-80246301D01*
X147264500Y-80172067D01*
X147264499Y-79465514D01*
X147269601Y-79430023D01*
X147274076Y-79414780D01*
X147312454Y-79355057D01*
X147313903Y-79353801D01*
X147369585Y-79325949D01*
X147377269Y-79324278D01*
X147404047Y-79321400D01*
X147966913Y-79321400D01*
X148002410Y-79326503D01*
X148023805Y-79332786D01*
X148028056Y-79334034D01*
X148081653Y-79365835D01*
X148126429Y-79410611D01*
X148126430Y-79410612D01*
X148126432Y-79410613D01*
X148127133Y-79411118D01*
X148129699Y-79412499D01*
X148249383Y-79481599D01*
X148252433Y-79483494D01*
X148252869Y-79483610D01*
X148252871Y-79483612D01*
X148393899Y-79521400D01*
X148393901Y-79521400D01*
X148539899Y-79521400D01*
X148539901Y-79521400D01*
X148680929Y-79483612D01*
X148680932Y-79483610D01*
X148680933Y-79483610D01*
X148680934Y-79483609D01*
X148681364Y-79483494D01*
X148684414Y-79481599D01*
X148746941Y-79445500D01*
X148807371Y-79410611D01*
X148910611Y-79307371D01*
X148983612Y-79180929D01*
X149021400Y-79039901D01*
X149021400Y-78893899D01*
X148989904Y-78776353D01*
X148989904Y-78776351D01*
X148983611Y-78752869D01*
X148983610Y-78752867D01*
X148981912Y-78749926D01*
X153695500Y-78749926D01*
X153695500Y-78749930D01*
X153695500Y-80172063D01*
X153695501Y-80172069D01*
X153695501Y-80172073D01*
X153710264Y-80246298D01*
X153710264Y-80246299D01*
X153710265Y-80246300D01*
X153746469Y-80300482D01*
X153746470Y-80300484D01*
X153746471Y-80300484D01*
X153766516Y-80330484D01*
X153777564Y-80337866D01*
X153804245Y-80361831D01*
X153814417Y-80374002D01*
X153814434Y-80374023D01*
X153842766Y-80439111D01*
X153843268Y-80443106D01*
X153836944Y-80501099D01*
X153835586Y-80504911D01*
X153826013Y-80525625D01*
X153788288Y-80590968D01*
X153788260Y-80591036D01*
X153788018Y-80591974D01*
X153750500Y-80731998D01*
X153750500Y-80878001D01*
X153763629Y-80926999D01*
X153788288Y-81019030D01*
X153788291Y-81019037D01*
X153861283Y-81145462D01*
X153861290Y-81145472D01*
X153861308Y-81145492D01*
X153964521Y-81248705D01*
X153964527Y-81248709D01*
X153964529Y-81248711D01*
X153964530Y-81248712D01*
X153964532Y-81248713D01*
X153965233Y-81249218D01*
X153967799Y-81250599D01*
X154087483Y-81319699D01*
X154090533Y-81321594D01*
X154090969Y-81321710D01*
X154090971Y-81321712D01*
X154231999Y-81359500D01*
X154232001Y-81359500D01*
X154377999Y-81359500D01*
X154378001Y-81359500D01*
X154519029Y-81321712D01*
X154519031Y-81321710D01*
X154519466Y-81321594D01*
X154522529Y-81319690D01*
X154582250Y-81285211D01*
X154645471Y-81248711D01*
X154748711Y-81145471D01*
X154813989Y-81032406D01*
X154821710Y-81019033D01*
X154821711Y-81019030D01*
X154821712Y-81019029D01*
X154859500Y-80878001D01*
X154859500Y-80731999D01*
X154821712Y-80590971D01*
X154821710Y-80590968D01*
X154821710Y-80590966D01*
X154787311Y-80531386D01*
X154773982Y-80498092D01*
X154770236Y-80482650D01*
X154773616Y-80411736D01*
X154773619Y-80411729D01*
X154774937Y-80407922D01*
X154806241Y-80358733D01*
X154809145Y-80355915D01*
X154826894Y-80341568D01*
X154843484Y-80330484D01*
X154899734Y-80246301D01*
X154914500Y-80172067D01*
X154914499Y-78749934D01*
X154914499Y-78749770D01*
X154914460Y-78749422D01*
X154913905Y-78746946D01*
X154899734Y-78675699D01*
X154899733Y-78675697D01*
X154899733Y-78675696D01*
X154843483Y-78591515D01*
X154759302Y-78535266D01*
X154759299Y-78535265D01*
X154685070Y-78520500D01*
X154685068Y-78520500D01*
X153924936Y-78520500D01*
X153924931Y-78520500D01*
X153924925Y-78520501D01*
X153850698Y-78535265D01*
X153850696Y-78535265D01*
X153766515Y-78591515D01*
X153710266Y-78675696D01*
X153710265Y-78675699D01*
X153695500Y-78749926D01*
X148981912Y-78749926D01*
X148910614Y-78626433D01*
X148910613Y-78626432D01*
X148910605Y-78626422D01*
X148910597Y-78626414D01*
X148910590Y-78626406D01*
X148807392Y-78523208D01*
X148807378Y-78523195D01*
X148807377Y-78523194D01*
X148807367Y-78523186D01*
X148680933Y-78450189D01*
X148664272Y-78445724D01*
X148664270Y-78445723D01*
X148585420Y-78424596D01*
X148539901Y-78412400D01*
X148539900Y-78412400D01*
X148393898Y-78412400D01*
X148307585Y-78435527D01*
X148307584Y-78435526D01*
X148252873Y-78450186D01*
X148252861Y-78450191D01*
X148126436Y-78523183D01*
X148126428Y-78523189D01*
X148126421Y-78523195D01*
X148114352Y-78535265D01*
X148100275Y-78549342D01*
X148088103Y-78561514D01*
X148086928Y-78562689D01*
X148058224Y-78584176D01*
X148034764Y-78596986D01*
X147974378Y-78612400D01*
X147281076Y-78612400D01*
X147245580Y-78607296D01*
X147213260Y-78597806D01*
X147178758Y-78581676D01*
X147119616Y-78542158D01*
X147114795Y-78538201D01*
X147109301Y-78535265D01*
X147035073Y-78520500D01*
X147035068Y-78520500D01*
X146274936Y-78520500D01*
X146274931Y-78520500D01*
X146274925Y-78520501D01*
X146200698Y-78535265D01*
X146200696Y-78535265D01*
X146116515Y-78591515D01*
X146060266Y-78675696D01*
X146060265Y-78675699D01*
X146045500Y-78749926D01*
X139783313Y-78749926D01*
X139786293Y-78746946D01*
X139878565Y-78654674D01*
X139878569Y-78654668D01*
X139878577Y-78654661D01*
X139971722Y-78561516D01*
X140283671Y-78249568D01*
X140330341Y-78168732D01*
X140354500Y-78078571D01*
X140354500Y-77644115D01*
X140359603Y-77608621D01*
X140364077Y-77593382D01*
X140402456Y-77533656D01*
X140403865Y-77532436D01*
X140459586Y-77504549D01*
X140467270Y-77502878D01*
X140494048Y-77500000D01*
X140706676Y-77500000D01*
X140739286Y-77504293D01*
X140822682Y-77526638D01*
X140823807Y-77526850D01*
X140926999Y-77554500D01*
X140927001Y-77554500D01*
X141072999Y-77554500D01*
X141073001Y-77554500D01*
X141176163Y-77526858D01*
X141176467Y-77526865D01*
X141222106Y-77514636D01*
X141222107Y-77514637D01*
X141242130Y-77509271D01*
X141260714Y-77504293D01*
X141293323Y-77500000D01*
X142091386Y-77500000D01*
X142126878Y-77505102D01*
X142142122Y-77509578D01*
X142201847Y-77547960D01*
X142201859Y-77547974D01*
X142203064Y-77549365D01*
X142230947Y-77605072D01*
X142232619Y-77612755D01*
X142235501Y-77639548D01*
X142235501Y-77700072D01*
X142250265Y-77774301D01*
X142250265Y-77774302D01*
X142306514Y-77858482D01*
X142306515Y-77858482D01*
X142306516Y-77858484D01*
X142390697Y-77914733D01*
X142390699Y-77914734D01*
X142464933Y-77929500D01*
X147035066Y-77929499D01*
X147035289Y-77929499D01*
X147037274Y-77929141D01*
X147040056Y-77928689D01*
X147042822Y-77927956D01*
X147060346Y-77924470D01*
X147071664Y-77922219D01*
X147071665Y-77922218D01*
X147109301Y-77914734D01*
X147193484Y-77858484D01*
X147249734Y-77774301D01*
X147264500Y-77700067D01*
X147264500Y-77644115D01*
X147269603Y-77608621D01*
X147274077Y-77593382D01*
X147312456Y-77533656D01*
X147313865Y-77532436D01*
X147369586Y-77504549D01*
X147377270Y-77502878D01*
X147404048Y-77500000D01*
X149741386Y-77500000D01*
X149776878Y-77505102D01*
X149792122Y-77509578D01*
X149851847Y-77547960D01*
X149851859Y-77547974D01*
X149853064Y-77549365D01*
X149880947Y-77605072D01*
X149882619Y-77612755D01*
X149885501Y-77639548D01*
X149885501Y-77700072D01*
X149900265Y-77774301D01*
X149900265Y-77774302D01*
X149956514Y-77858482D01*
X149956515Y-77858482D01*
X149956516Y-77858484D01*
X150040697Y-77914733D01*
X150040699Y-77914734D01*
X150114933Y-77929500D01*
X154685066Y-77929499D01*
X154685289Y-77929499D01*
X154687274Y-77929141D01*
X154690056Y-77928689D01*
X154692822Y-77927956D01*
X154710346Y-77924470D01*
X154721664Y-77922219D01*
X154721665Y-77922218D01*
X154759301Y-77914734D01*
X154843484Y-77858484D01*
X154899734Y-77774301D01*
X154914500Y-77700067D01*
X154914500Y-77644115D01*
X154919603Y-77608621D01*
X154924077Y-77593382D01*
X154962456Y-77533656D01*
X154963865Y-77532436D01*
X155019586Y-77504549D01*
X155027270Y-77502878D01*
X155054048Y-77500000D01*
X155173804Y-77500000D01*
X155209295Y-77505102D01*
X155233481Y-77512203D01*
X155293205Y-77550585D01*
X155293780Y-77551253D01*
X155420904Y-77700072D01*
X155833296Y-78182847D01*
X155852472Y-78213154D01*
X155862779Y-78236153D01*
X155872384Y-78306497D01*
X155872249Y-78307374D01*
X155458946Y-80919444D01*
X155445843Y-80958722D01*
X155406820Y-81032406D01*
X155394721Y-81061030D01*
X155394711Y-81061057D01*
X155371838Y-81124943D01*
X155359188Y-81167694D01*
X155343606Y-81233775D01*
X155343605Y-81233780D01*
X155054646Y-82863509D01*
X155054644Y-82863519D01*
X155046803Y-82927236D01*
X155043881Y-82969284D01*
X155043881Y-82969291D01*
X155042830Y-83033448D01*
X155042830Y-83033471D01*
X155043506Y-83051906D01*
X155043507Y-83051911D01*
X155044663Y-83059783D01*
X155034768Y-83130087D01*
X154999943Y-83175476D01*
X154301599Y-83748715D01*
X154270921Y-83767293D01*
X154244969Y-83778318D01*
X154190764Y-83788252D01*
X151968687Y-83701077D01*
X151933414Y-83694585D01*
X151911965Y-83687362D01*
X151862130Y-83656084D01*
X151858954Y-83652840D01*
X151844245Y-83634718D01*
X151833083Y-83618014D01*
X151748903Y-83561766D01*
X151674672Y-83547000D01*
X151674669Y-83547000D01*
X148044910Y-83547000D01*
X148042399Y-83546975D01*
X148039891Y-83546925D01*
X148037463Y-83546853D01*
X142791646Y-83341055D01*
X142764193Y-83336917D01*
X142737849Y-83329909D01*
X142711963Y-83319857D01*
X141584567Y-82731722D01*
X141561515Y-82716246D01*
X141540695Y-82698651D01*
X141521591Y-82678500D01*
X140702893Y-81597819D01*
X140522348Y-81359500D01*
X140466075Y-81285220D01*
X140250000Y-81000000D01*
X140249999Y-81000000D01*
X134320305Y-81000000D01*
X134284804Y-80994895D01*
X134259158Y-80987364D01*
X134205564Y-80955564D01*
X133549716Y-80299716D01*
X133528223Y-80271006D01*
X133515412Y-80247544D01*
X133500000Y-80187159D01*
X133500000Y-78320305D01*
X133505102Y-78284813D01*
X133512635Y-78259158D01*
X133544433Y-78205566D01*
X134200286Y-77549713D01*
X134228989Y-77528225D01*
X134252455Y-77515411D01*
X134312840Y-77500000D01*
X134501386Y-77500000D01*
X134536878Y-77505102D01*
G37*
G04 #@! TD.AperFunction*
G04 #@! TD*
G04 #@! TA.AperFunction,Conductor*
G04 #@! TO.N,VIN*
G36*
X125777892Y-75514637D02*
G01*
X125778342Y-75513551D01*
X125785965Y-75516709D01*
X125785971Y-75516712D01*
X125926999Y-75554500D01*
X125927001Y-75554500D01*
X126072999Y-75554500D01*
X126073001Y-75554500D01*
X126214029Y-75516712D01*
X126214036Y-75516707D01*
X126221658Y-75513551D01*
X126222107Y-75514637D01*
X126276736Y-75500000D01*
X132197810Y-75500000D01*
X132265931Y-75520002D01*
X132286905Y-75536905D01*
X132963095Y-76213095D01*
X132997121Y-76275407D01*
X133000000Y-76302190D01*
X133000000Y-81500000D01*
X118500000Y-81000000D01*
X118040952Y-75999250D01*
X118040952Y-75999249D01*
X118040952Y-75801815D01*
X118060954Y-75733694D01*
X118077857Y-75712720D01*
X118253672Y-75536905D01*
X118315984Y-75502879D01*
X118342767Y-75500000D01*
X125723264Y-75500000D01*
X125777892Y-75514637D01*
G37*
G04 #@! TD.AperFunction*
G04 #@! TD*
G04 #@! TA.AperFunction,Conductor*
G04 #@! TO.N,VOUT*
G36*
X201816125Y-70045927D02*
G01*
X204414155Y-70312343D01*
X204425958Y-70300541D01*
X204425964Y-70300536D01*
X204458800Y-70278596D01*
X204477518Y-70264422D01*
X204530357Y-70193348D01*
X204547125Y-70106386D01*
X204524501Y-70020761D01*
X204466966Y-69953432D01*
X204277275Y-69812411D01*
X204082588Y-69617724D01*
X203918307Y-69396745D01*
X203787961Y-69154218D01*
X203694311Y-68895282D01*
X203694311Y-68895281D01*
X203639365Y-68625489D01*
X203639364Y-68625487D01*
X203629001Y-68463589D01*
X203629001Y-67520000D01*
X203756001Y-67520000D01*
X203756001Y-68472594D01*
X203762140Y-68581934D01*
X203811011Y-68840224D01*
X203811011Y-68840226D01*
X203811013Y-68840234D01*
X203898156Y-69089279D01*
X203900046Y-69092552D01*
X204020670Y-69320783D01*
X204020675Y-69320791D01*
X204020679Y-69320798D01*
X204020681Y-69320801D01*
X204176785Y-69532315D01*
X204176792Y-69532323D01*
X204176799Y-69532330D01*
X204176807Y-69532339D01*
X204362659Y-69718191D01*
X204362668Y-69718199D01*
X204362676Y-69718207D01*
X204362684Y-69718214D01*
X204574198Y-69874318D01*
X204574201Y-69874320D01*
X204574207Y-69874323D01*
X204574215Y-69874328D01*
X204762814Y-69974006D01*
X204813694Y-70023520D01*
X204829728Y-70092683D01*
X204805824Y-70159534D01*
X204794305Y-70173209D01*
X204636920Y-70335187D01*
X204013749Y-70976538D01*
X204004757Y-70984931D01*
X203937467Y-71041851D01*
X203937465Y-71041853D01*
X203895259Y-71087250D01*
X203867903Y-71124826D01*
X203856408Y-71138470D01*
X203633288Y-71368101D01*
X203633286Y-71368105D01*
X202923594Y-79625543D01*
X202923373Y-79627869D01*
X202496728Y-83704671D01*
X202496107Y-83711468D01*
X202495599Y-83717969D01*
X202495160Y-83724699D01*
X202494820Y-83731247D01*
X202494557Y-83737967D01*
X202494385Y-83744540D01*
X202494299Y-83751246D01*
X202494299Y-83761609D01*
X202474297Y-83829730D01*
X202457394Y-83850704D01*
X202029814Y-84278284D01*
X202001110Y-84299774D01*
X201987196Y-84307371D01*
X201977649Y-84312585D01*
X201917260Y-84328000D01*
X201094015Y-84328000D01*
X201058514Y-84322895D01*
X201043275Y-84318420D01*
X200983551Y-84280037D01*
X200971407Y-84266022D01*
X200967438Y-84264702D01*
X200950192Y-84250291D01*
X200949901Y-84250000D01*
X200949900Y-84250000D01*
X197546298Y-84250000D01*
X197528581Y-84267717D01*
X197522000Y-84273844D01*
X197496946Y-84295553D01*
X197441231Y-84323446D01*
X197433549Y-84325118D01*
X197406752Y-84328000D01*
X196347815Y-84328000D01*
X196312314Y-84322895D01*
X196297075Y-84318420D01*
X196237351Y-84280037D01*
X196225207Y-84266022D01*
X196221238Y-84264702D01*
X196203992Y-84250291D01*
X196203701Y-84250000D01*
X196203700Y-84250000D01*
X192800098Y-84250000D01*
X192782381Y-84267717D01*
X192775800Y-84273844D01*
X192750746Y-84295553D01*
X192695031Y-84323446D01*
X192687349Y-84325118D01*
X192660552Y-84328000D01*
X191344015Y-84328000D01*
X191308514Y-84322895D01*
X191293275Y-84318420D01*
X191233551Y-84280037D01*
X191221407Y-84266022D01*
X191217438Y-84264702D01*
X191200192Y-84250291D01*
X191199901Y-84250000D01*
X191199900Y-84250000D01*
X187796298Y-84250000D01*
X187778581Y-84267717D01*
X187772000Y-84273844D01*
X187746946Y-84295553D01*
X187691231Y-84323446D01*
X187683549Y-84325118D01*
X187656752Y-84328000D01*
X186097815Y-84328000D01*
X186062314Y-84322895D01*
X186047075Y-84318420D01*
X185987349Y-84280035D01*
X185987341Y-84280025D01*
X185986136Y-84278634D01*
X185958249Y-84222912D01*
X185956578Y-84215229D01*
X185953700Y-84188451D01*
X185953700Y-83795600D01*
X182550100Y-83795600D01*
X182550100Y-84183884D01*
X182544995Y-84219385D01*
X182540520Y-84234624D01*
X182502135Y-84294350D01*
X182502125Y-84294358D01*
X182500734Y-84295563D01*
X182445031Y-84323446D01*
X182437349Y-84325118D01*
X182410552Y-84328000D01*
X181094015Y-84328000D01*
X181058514Y-84322895D01*
X181043275Y-84318420D01*
X180983549Y-84280035D01*
X180983541Y-84280025D01*
X180982336Y-84278634D01*
X180954449Y-84222912D01*
X180952778Y-84215229D01*
X180949900Y-84188451D01*
X180949900Y-83795600D01*
X179900728Y-83795600D01*
X179917884Y-83794859D01*
X180002206Y-83767782D01*
X180066430Y-83706800D01*
X180097834Y-83623991D01*
X180778439Y-78726391D01*
X180775344Y-78654718D01*
X180736917Y-78574926D01*
X180667676Y-78519707D01*
X180581333Y-78500000D01*
X178702396Y-78500000D01*
X178649881Y-78507053D01*
X178331840Y-78594066D01*
X178727774Y-78485741D01*
X178742544Y-78482638D01*
X178757426Y-78480434D01*
X178772469Y-78479121D01*
X187250000Y-78250000D01*
X195801452Y-78018880D01*
X195801459Y-78018879D01*
X195815237Y-78018507D01*
X195815248Y-78018505D01*
X196500000Y-78000000D01*
X202365167Y-65850723D01*
X201816125Y-70045927D01*
G37*
G04 #@! TD.AperFunction*
G04 #@! TA.AperFunction,Conductor*
G36*
X206375000Y-63631000D02*
G01*
X205422443Y-63631000D01*
X205422438Y-63631000D01*
X205422401Y-63631001D01*
X205313064Y-63637140D01*
X205054774Y-63686011D01*
X205054772Y-63686011D01*
X205054764Y-63686013D01*
X204805716Y-63773157D01*
X204802446Y-63775046D01*
X204574215Y-63895670D01*
X204574207Y-63895675D01*
X204574167Y-63895703D01*
X204362700Y-64051772D01*
X204362677Y-64051791D01*
X204362659Y-64051807D01*
X204176807Y-64237659D01*
X204176791Y-64237677D01*
X204176772Y-64237700D01*
X204020703Y-64449167D01*
X204020675Y-64449207D01*
X204020670Y-64449215D01*
X203900046Y-64677446D01*
X203898157Y-64680716D01*
X203811013Y-64929764D01*
X203811011Y-64929772D01*
X203811010Y-64929778D01*
X203762142Y-65188054D01*
X203762001Y-65189558D01*
X203761945Y-65191583D01*
X203756000Y-65297421D01*
X203756000Y-66250000D01*
X203629000Y-66250000D01*
X203629000Y-65306416D01*
X203629001Y-65306382D01*
X203639363Y-65144518D01*
X203694311Y-64874718D01*
X203694311Y-64874717D01*
X203787961Y-64615781D01*
X203918307Y-64373254D01*
X204082588Y-64152275D01*
X204277275Y-63957588D01*
X204498254Y-63793307D01*
X204740781Y-63662961D01*
X204999717Y-63569311D01*
X204999718Y-63569311D01*
X205269510Y-63514365D01*
X205269512Y-63514364D01*
X205431410Y-63504001D01*
X205431419Y-63504000D01*
X206375000Y-63504000D01*
X206375000Y-63631000D01*
G37*
G04 #@! TD.AperFunction*
G04 #@! TA.AperFunction,Conductor*
G36*
X208588617Y-63504001D02*
G01*
X208750481Y-63514363D01*
X209020282Y-63569311D01*
X209279218Y-63662961D01*
X209521745Y-63793307D01*
X209742724Y-63957588D01*
X209937411Y-64152275D01*
X210101692Y-64373254D01*
X210213349Y-64581009D01*
X210183961Y-64597610D01*
X210113080Y-64593563D01*
X210055639Y-64551838D01*
X210044012Y-64533763D01*
X209999320Y-64449201D01*
X209999318Y-64449198D01*
X209843214Y-64237684D01*
X209843207Y-64237676D01*
X209843199Y-64237668D01*
X209843191Y-64237659D01*
X209657339Y-64051807D01*
X209657330Y-64051799D01*
X209657323Y-64051792D01*
X209657315Y-64051785D01*
X209657303Y-64051776D01*
X209657298Y-64051772D01*
X209445831Y-63895703D01*
X209445827Y-63895700D01*
X209445801Y-63895681D01*
X209445798Y-63895679D01*
X209445792Y-63895676D01*
X209445791Y-63895675D01*
X209445783Y-63895670D01*
X209217552Y-63775046D01*
X209214279Y-63773156D01*
X208965234Y-63686013D01*
X208965226Y-63686011D01*
X208965220Y-63686010D01*
X208706956Y-63637145D01*
X208706943Y-63637143D01*
X208597583Y-63631000D01*
X208597578Y-63631000D01*
X207645000Y-63631000D01*
X207645000Y-63504000D01*
X208588583Y-63504000D01*
X208588617Y-63504001D01*
G37*
G04 #@! TD.AperFunction*
G04 #@! TD*
G04 #@! TA.AperFunction,Conductor*
G04 #@! TO.N,GND*
G36*
X72466102Y-64058261D02*
G01*
X72466100Y-64058261D01*
X72466099Y-64058262D01*
X72261074Y-64788664D01*
X72261072Y-64788671D01*
X71983050Y-65779131D01*
X71500000Y-67499993D01*
X71500000Y-63937500D01*
X72500000Y-63937500D01*
X72466102Y-64058261D01*
G37*
G04 #@! TD.AperFunction*
G04 #@! TD*
G04 #@! TA.AperFunction,Conductor*
G04 #@! TO.N,VIN*
G36*
X117935637Y-75027276D02*
G01*
X117987770Y-75075469D01*
X118005532Y-75134989D01*
X118040928Y-75998689D01*
X118040969Y-75999786D01*
X118041361Y-76011963D01*
X118042244Y-76013328D01*
X118500000Y-81000000D01*
X133000000Y-81500000D01*
X133000000Y-81000000D01*
X133830822Y-81000000D01*
X133898943Y-81020002D01*
X133919912Y-81036900D01*
X134022070Y-81139058D01*
X134073145Y-81178735D01*
X134126739Y-81210535D01*
X134126747Y-81210538D01*
X134126748Y-81210539D01*
X134186035Y-81236348D01*
X134186048Y-81236353D01*
X134202567Y-81241203D01*
X134211689Y-81243882D01*
X134247868Y-81251753D01*
X134283369Y-81256858D01*
X134320305Y-81259500D01*
X135492471Y-81259500D01*
X135525009Y-81263774D01*
X135525948Y-81264025D01*
X135526020Y-81264057D01*
X135526024Y-81264046D01*
X135535969Y-81266710D01*
X135535971Y-81266712D01*
X135676999Y-81304500D01*
X135677001Y-81304500D01*
X135822999Y-81304500D01*
X135823001Y-81304500D01*
X135964029Y-81266712D01*
X135964030Y-81266710D01*
X135973976Y-81264046D01*
X135973988Y-81264042D01*
X135974925Y-81263791D01*
X136007528Y-81259500D01*
X137992471Y-81259500D01*
X138025009Y-81263774D01*
X138025948Y-81264025D01*
X138026020Y-81264057D01*
X138026024Y-81264046D01*
X138035969Y-81266710D01*
X138035971Y-81266712D01*
X138176999Y-81304500D01*
X138177001Y-81304500D01*
X138322999Y-81304500D01*
X138323001Y-81304500D01*
X138464029Y-81266712D01*
X138464030Y-81266710D01*
X138473976Y-81264046D01*
X138473988Y-81264042D01*
X138474925Y-81263791D01*
X138507528Y-81259500D01*
X140058411Y-81259500D01*
X140126532Y-81279502D01*
X140158845Y-81309414D01*
X140261835Y-81445362D01*
X140261843Y-81445371D01*
X140315503Y-81516202D01*
X140315503Y-81516201D01*
X140496048Y-81754520D01*
X141133593Y-82596080D01*
X141150147Y-82625370D01*
X141216661Y-82791653D01*
X141219578Y-82799734D01*
X141222213Y-82807895D01*
X141224574Y-82816162D01*
X141549485Y-84120874D01*
X141553110Y-84156548D01*
X141552525Y-84170640D01*
X141529715Y-84237871D01*
X141474179Y-84282096D01*
X141465611Y-84285586D01*
X141418071Y-84294900D01*
X139660400Y-84294900D01*
X139660400Y-85093884D01*
X139655295Y-85129385D01*
X139650820Y-85144624D01*
X139612435Y-85204350D01*
X139612425Y-85204358D01*
X139611034Y-85205563D01*
X139555331Y-85233446D01*
X139547649Y-85235118D01*
X139520852Y-85238000D01*
X138483715Y-85238000D01*
X138448214Y-85232895D01*
X138432975Y-85228420D01*
X138373249Y-85190035D01*
X138373241Y-85190025D01*
X138372036Y-85188634D01*
X138344149Y-85132912D01*
X138342478Y-85125229D01*
X138339600Y-85098451D01*
X138339600Y-84294900D01*
X136294900Y-84294900D01*
X136294900Y-85814768D01*
X136289795Y-85850269D01*
X136285320Y-85865508D01*
X136246976Y-85925198D01*
X136245771Y-85926243D01*
X136189541Y-85954272D01*
X136181442Y-85956002D01*
X136154196Y-85958779D01*
X133598289Y-85940019D01*
X133562832Y-85934655D01*
X133547626Y-85930069D01*
X133488185Y-85891252D01*
X133486828Y-85889663D01*
X133459433Y-85834170D01*
X133457878Y-85826893D01*
X133455100Y-85800578D01*
X133455100Y-84544900D01*
X131410400Y-84544900D01*
X131410400Y-85343884D01*
X131405295Y-85379385D01*
X131400820Y-85394624D01*
X131362435Y-85454350D01*
X131362425Y-85454358D01*
X131361034Y-85455563D01*
X131305331Y-85483446D01*
X131297649Y-85485118D01*
X131270852Y-85488000D01*
X130233715Y-85488000D01*
X130198214Y-85482895D01*
X130182975Y-85478420D01*
X130123249Y-85440035D01*
X130123241Y-85440025D01*
X130122036Y-85438634D01*
X130094149Y-85382912D01*
X130092478Y-85375229D01*
X130089600Y-85348451D01*
X130089600Y-84544900D01*
X128044900Y-84544900D01*
X128044900Y-85754215D01*
X128039795Y-85789716D01*
X128035320Y-85804955D01*
X127996976Y-85864645D01*
X127995771Y-85865690D01*
X127939541Y-85893719D01*
X127931442Y-85895449D01*
X127904196Y-85898226D01*
X125598289Y-85881301D01*
X125562832Y-85875937D01*
X125547626Y-85871351D01*
X125488185Y-85832534D01*
X125486828Y-85830945D01*
X125459433Y-85775452D01*
X125457878Y-85768175D01*
X125455100Y-85741860D01*
X125455100Y-84544900D01*
X123410400Y-84544900D01*
X123410400Y-85343884D01*
X123405295Y-85379385D01*
X123400820Y-85394624D01*
X123362435Y-85454350D01*
X123362425Y-85454358D01*
X123361034Y-85455563D01*
X123305331Y-85483446D01*
X123297649Y-85485118D01*
X123270852Y-85488000D01*
X122233715Y-85488000D01*
X122198214Y-85482895D01*
X122182975Y-85478420D01*
X122123249Y-85440035D01*
X122123241Y-85440025D01*
X122122036Y-85438634D01*
X122094149Y-85382912D01*
X122092478Y-85375229D01*
X122089600Y-85348451D01*
X122089600Y-84544900D01*
X120044900Y-84544900D01*
X120044900Y-85695496D01*
X120039795Y-85730997D01*
X120035320Y-85746236D01*
X119996976Y-85805926D01*
X119995771Y-85806971D01*
X119939541Y-85835000D01*
X119931442Y-85836730D01*
X119904196Y-85839507D01*
X117348289Y-85820748D01*
X117312832Y-85815384D01*
X117297626Y-85810798D01*
X117238185Y-85771981D01*
X117236828Y-85770392D01*
X117209433Y-85714899D01*
X117207878Y-85707622D01*
X117205100Y-85681307D01*
X117205100Y-84544900D01*
X115160400Y-84544900D01*
X115160400Y-85343884D01*
X115155295Y-85379385D01*
X115150820Y-85394624D01*
X115112435Y-85454350D01*
X115112425Y-85454358D01*
X115111034Y-85455563D01*
X115055331Y-85483446D01*
X115047649Y-85485118D01*
X115020852Y-85488000D01*
X113983715Y-85488000D01*
X113948214Y-85482895D01*
X113932975Y-85478420D01*
X113873249Y-85440035D01*
X113873241Y-85440025D01*
X113872036Y-85438634D01*
X113844149Y-85382912D01*
X113842478Y-85375229D01*
X113839600Y-85348451D01*
X113839600Y-84544900D01*
X111794900Y-84544900D01*
X111794900Y-85634943D01*
X111789795Y-85670444D01*
X111785320Y-85685683D01*
X111746976Y-85745373D01*
X111745771Y-85746418D01*
X111689541Y-85774447D01*
X111681442Y-85776177D01*
X111654196Y-85778954D01*
X108848289Y-85758360D01*
X108812832Y-85752996D01*
X108797626Y-85748410D01*
X108738185Y-85709593D01*
X108736828Y-85708004D01*
X108709433Y-85652511D01*
X108707878Y-85645234D01*
X108705100Y-85618919D01*
X108705100Y-84544900D01*
X106660400Y-84544900D01*
X106660400Y-85343884D01*
X106655295Y-85379385D01*
X106650820Y-85394624D01*
X106612435Y-85454350D01*
X106612425Y-85454358D01*
X106611034Y-85455563D01*
X106555331Y-85483446D01*
X106547649Y-85485118D01*
X106520852Y-85488000D01*
X105483715Y-85488000D01*
X105448214Y-85482895D01*
X105432975Y-85478420D01*
X105373249Y-85440035D01*
X105373241Y-85440025D01*
X105372036Y-85438634D01*
X105344149Y-85382912D01*
X105342478Y-85375229D01*
X105339600Y-85348451D01*
X105339600Y-84544900D01*
X103294900Y-84544900D01*
X103294900Y-85572555D01*
X103289795Y-85608056D01*
X103285320Y-85623295D01*
X103246976Y-85682985D01*
X103245771Y-85684030D01*
X103189541Y-85712059D01*
X103181442Y-85713789D01*
X103154196Y-85716566D01*
X100598289Y-85697807D01*
X100562832Y-85692443D01*
X100547626Y-85687857D01*
X100488185Y-85649040D01*
X100486828Y-85647451D01*
X100459433Y-85591958D01*
X100457878Y-85584681D01*
X100455100Y-85558366D01*
X100455100Y-84544900D01*
X98410400Y-84544900D01*
X98410400Y-85343884D01*
X98405295Y-85379385D01*
X98400820Y-85394624D01*
X98362435Y-85454350D01*
X98362425Y-85454358D01*
X98361034Y-85455563D01*
X98305331Y-85483446D01*
X98297649Y-85485118D01*
X98270852Y-85488000D01*
X97233715Y-85488000D01*
X97198214Y-85482895D01*
X97182975Y-85478420D01*
X97123249Y-85440035D01*
X97123241Y-85440025D01*
X97122036Y-85438634D01*
X97094149Y-85382912D01*
X97092478Y-85375229D01*
X97089600Y-85348451D01*
X97089600Y-84544900D01*
X95044900Y-84544900D01*
X95044900Y-85512002D01*
X95039795Y-85547503D01*
X95035320Y-85562742D01*
X94996976Y-85622432D01*
X94995771Y-85623477D01*
X94939541Y-85651506D01*
X94931442Y-85653236D01*
X94904196Y-85656013D01*
X92426089Y-85637824D01*
X92390632Y-85632460D01*
X92375426Y-85627874D01*
X92315985Y-85589057D01*
X92314628Y-85587468D01*
X92287233Y-85531975D01*
X92285678Y-85524698D01*
X92282900Y-85498383D01*
X92282900Y-84544900D01*
X90238200Y-84544900D01*
X90238200Y-85343884D01*
X90233095Y-85379385D01*
X90228620Y-85394624D01*
X90190235Y-85454350D01*
X90190225Y-85454358D01*
X90188834Y-85455563D01*
X90133131Y-85483446D01*
X90125449Y-85485118D01*
X90098652Y-85488000D01*
X89061515Y-85488000D01*
X89026014Y-85482895D01*
X89010775Y-85478420D01*
X88951049Y-85440035D01*
X88951041Y-85440025D01*
X88949836Y-85438634D01*
X88921949Y-85382912D01*
X88920278Y-85375229D01*
X88917400Y-85348451D01*
X88917400Y-84544900D01*
X87079565Y-84544900D01*
X87044064Y-84539795D01*
X87028825Y-84535320D01*
X86969114Y-84496951D01*
X86966707Y-84494174D01*
X86939576Y-84441784D01*
X86938458Y-84437250D01*
X86934993Y-84414025D01*
X86847259Y-82816162D01*
X86846572Y-82803642D01*
X86843747Y-82752216D01*
X86843666Y-82750522D01*
X86843594Y-82748775D01*
X86843537Y-82747140D01*
X86831882Y-82322303D01*
X86836011Y-82286687D01*
X86842688Y-82261403D01*
X86875410Y-82204488D01*
X86894952Y-82184946D01*
X86957261Y-82150921D01*
X86980947Y-82148080D01*
X93013684Y-82000037D01*
X93016775Y-82000000D01*
X114500000Y-82000000D01*
X114425569Y-81516201D01*
X114266851Y-80484531D01*
X113519981Y-75629876D01*
X113529392Y-75559506D01*
X113575355Y-75505395D01*
X113630599Y-75485488D01*
X117865725Y-75014919D01*
X117935637Y-75027276D01*
G37*
G04 #@! TD.AperFunction*
G04 #@! TD*
G04 #@! TA.AperFunction,Conductor*
G04 #@! TO.N,GND*
G36*
X112700518Y-65485723D02*
G01*
X112768270Y-65506938D01*
X112785803Y-65521074D01*
X113503735Y-66214497D01*
X113538837Y-66276209D01*
X113542026Y-66298504D01*
X113707783Y-69447876D01*
X113691389Y-69516953D01*
X113674414Y-69540100D01*
X113036389Y-70229224D01*
X112975432Y-70265621D01*
X112947004Y-70269585D01*
X108625000Y-70375000D01*
X104250517Y-70481694D01*
X104248981Y-70481722D01*
X102750738Y-70499991D01*
X102749202Y-70500000D01*
X90269695Y-70500000D01*
X90231243Y-70493989D01*
X88908456Y-70070081D01*
X88873672Y-70052622D01*
X87750000Y-69250000D01*
X86000002Y-68000001D01*
X86000000Y-68000000D01*
X88456011Y-65052785D01*
X112700518Y-65485723D01*
G37*
G04 #@! TD.AperFunction*
G04 #@! TD*
G04 #@! TA.AperFunction,Conductor*
G04 #@! TO.N,GND*
G36*
X95000000Y-77500000D02*
G01*
X95000004Y-77499999D01*
X95000005Y-77500000D01*
X95125579Y-77496511D01*
X95738676Y-77479480D01*
X95738686Y-77479481D01*
X95749710Y-77479174D01*
X95749711Y-77479175D01*
X104000000Y-77250000D01*
X112197091Y-77022302D01*
X112265739Y-77040404D01*
X112288437Y-77057928D01*
X112961850Y-77712895D01*
X112996737Y-77774729D01*
X113000000Y-77803219D01*
X113000000Y-80448710D01*
X112979998Y-80516831D01*
X112964182Y-80536706D01*
X112286044Y-81231690D01*
X112224154Y-81266477D01*
X112198953Y-81269656D01*
X97912700Y-81620239D01*
X82825399Y-81990479D01*
X82825399Y-81990480D01*
X72407136Y-82246143D01*
X74361042Y-78931911D01*
X74547285Y-79074821D01*
X74722209Y-79175814D01*
X73900761Y-79997262D01*
X74059720Y-80103475D01*
X74352692Y-80260072D01*
X74659597Y-80387197D01*
X74659601Y-80387198D01*
X74977494Y-80483629D01*
X75303313Y-80548439D01*
X75633895Y-80580999D01*
X75633911Y-80581000D01*
X75966089Y-80581000D01*
X75966104Y-80580999D01*
X76296686Y-80548439D01*
X76622505Y-80483629D01*
X76940398Y-80387198D01*
X76940402Y-80387197D01*
X77247307Y-80260072D01*
X77540279Y-80103475D01*
X77699237Y-79997263D01*
X76877789Y-79175814D01*
X77052715Y-79074821D01*
X77286711Y-78895269D01*
X77495269Y-78686711D01*
X77674821Y-78452715D01*
X77775814Y-78277788D01*
X78597263Y-79099237D01*
X78703475Y-78940279D01*
X78860072Y-78647307D01*
X78987197Y-78340402D01*
X78987198Y-78340398D01*
X79083629Y-78022505D01*
X79148439Y-77696686D01*
X79180999Y-77366104D01*
X79181000Y-77366088D01*
X79181000Y-77033911D01*
X79180999Y-77033895D01*
X79148439Y-76703313D01*
X79083629Y-76377494D01*
X78987198Y-76059601D01*
X78987197Y-76059597D01*
X78860072Y-75752692D01*
X78703475Y-75459720D01*
X78597262Y-75300761D01*
X77775813Y-76122209D01*
X77674821Y-75947285D01*
X77495269Y-75713289D01*
X77286711Y-75504731D01*
X77052715Y-75325179D01*
X76877789Y-75224185D01*
X77741377Y-74360597D01*
X77743121Y-74362341D01*
X77766781Y-74337366D01*
X77773443Y-74334436D01*
X95000000Y-77500000D01*
G37*
G04 #@! TD.AperFunction*
G04 #@! TA.AperFunction,Conductor*
G36*
X74663463Y-73762944D02*
G01*
X74726844Y-73794927D01*
X74762874Y-73856102D01*
X74760111Y-73927045D01*
X74719431Y-73985232D01*
X74677266Y-74007442D01*
X74659609Y-74012798D01*
X74659597Y-74012802D01*
X74352692Y-74139927D01*
X74059719Y-74296524D01*
X74059712Y-74296528D01*
X73900761Y-74402735D01*
X73900761Y-74402736D01*
X74722210Y-75224185D01*
X74547285Y-75325179D01*
X74313289Y-75504731D01*
X74328146Y-75493330D01*
X72701939Y-73402493D01*
X74663463Y-73762944D01*
G37*
G04 #@! TD.AperFunction*
G04 #@! TD*
G04 #@! TA.AperFunction,Conductor*
G04 #@! TO.N,VIN*
G36*
X73178121Y-64408784D02*
G01*
X78523830Y-65076997D01*
X78555786Y-65085354D01*
X81475929Y-66276404D01*
X81506870Y-66294536D01*
X81531661Y-66314293D01*
X81552682Y-66336801D01*
X81553044Y-66336505D01*
X81556293Y-66340476D01*
X81556304Y-66340488D01*
X81659521Y-66443705D01*
X81659527Y-66443709D01*
X81659529Y-66443711D01*
X81659530Y-66443712D01*
X81659532Y-66443713D01*
X81660233Y-66444218D01*
X81662799Y-66445599D01*
X81782483Y-66514699D01*
X81785533Y-66516594D01*
X81785969Y-66516710D01*
X81785971Y-66516712D01*
X81926999Y-66554500D01*
X81927001Y-66554500D01*
X82073001Y-66554500D01*
X82073002Y-66554500D01*
X82081191Y-66553422D01*
X82081345Y-66554598D01*
X82101305Y-66552197D01*
X82132102Y-66552930D01*
X82176684Y-66562223D01*
X84166788Y-67373933D01*
X84175529Y-67377894D01*
X85016295Y-67798277D01*
X85856899Y-68218579D01*
X85873786Y-68228747D01*
X86143528Y-68421420D01*
X87599169Y-69461164D01*
X88722841Y-70263786D01*
X88757263Y-70284547D01*
X88792047Y-70302006D01*
X88829262Y-70317202D01*
X88829272Y-70317205D01*
X88829279Y-70317208D01*
X90152039Y-70741107D01*
X90152041Y-70741107D01*
X90152049Y-70741110D01*
X90184396Y-70748772D01*
X90191154Y-70750373D01*
X90191156Y-70750373D01*
X90191163Y-70750375D01*
X90191174Y-70750376D01*
X90191181Y-70750378D01*
X90212072Y-70753643D01*
X90229615Y-70756386D01*
X90269676Y-70759499D01*
X90269690Y-70759499D01*
X90269695Y-70759500D01*
X92442614Y-70759500D01*
X92490200Y-70768831D01*
X93508699Y-71184249D01*
X93509100Y-71184516D01*
X93531949Y-71193733D01*
X93532399Y-71193916D01*
X93547388Y-71200029D01*
X93569101Y-71193166D01*
X93569361Y-71193161D01*
X103740698Y-71004802D01*
X113250786Y-70828690D01*
X113250786Y-70828689D01*
X113260341Y-70828513D01*
X113260360Y-70828510D01*
X113551273Y-70823123D01*
X113949163Y-70815756D01*
X113949162Y-70815755D01*
X113949164Y-70815754D01*
X114036667Y-71993542D01*
X114078564Y-72557473D01*
X114090708Y-72602833D01*
X114138298Y-72655518D01*
X114206816Y-72674111D01*
X117588561Y-72604359D01*
X117644198Y-72590121D01*
X117695362Y-72540899D01*
X117999977Y-72007822D01*
X117999979Y-72007818D01*
X118008138Y-71993539D01*
X118008138Y-71993540D01*
X118014194Y-72732721D01*
X118014282Y-72743513D01*
X118014282Y-72743515D01*
X118019577Y-73389851D01*
X118038907Y-75749633D01*
X118038907Y-75749634D01*
X118039896Y-75870471D01*
X118036204Y-75883434D01*
X118005532Y-75134989D01*
X117987770Y-75075469D01*
X117935637Y-75027276D01*
X117865725Y-75014919D01*
X113630599Y-75485488D01*
X113575355Y-75505395D01*
X113529392Y-75559506D01*
X113519981Y-75629876D01*
X113567404Y-75938128D01*
X113567403Y-75938128D01*
X104746708Y-75817613D01*
X101239423Y-75769694D01*
X95481943Y-75691031D01*
X85888174Y-75559953D01*
X85867123Y-75557890D01*
X83770829Y-75172673D01*
X77820340Y-74079208D01*
X77767827Y-74074996D01*
X77668971Y-74096895D01*
X77662157Y-74099892D01*
X77661032Y-74100390D01*
X77584257Y-74154746D01*
X77517102Y-74177783D01*
X77484790Y-74175057D01*
X74985525Y-73633979D01*
X74951909Y-73621479D01*
X74946459Y-73618510D01*
X74896208Y-73568357D01*
X74881048Y-73498997D01*
X74905794Y-73432453D01*
X74962588Y-73389851D01*
X74962612Y-73389842D01*
X74964923Y-73388978D01*
X75009047Y-73380999D01*
X75165000Y-73380999D01*
X75165000Y-72323430D01*
X75185002Y-72255309D01*
X75238658Y-72208816D01*
X75308932Y-72198712D01*
X75323602Y-72201721D01*
X75360105Y-72211502D01*
X75360109Y-72211502D01*
X75360111Y-72211503D01*
X75435475Y-72221424D01*
X75652527Y-72250000D01*
X75947466Y-72250000D01*
X75947473Y-72250000D01*
X76211751Y-72215207D01*
X76239888Y-72211503D01*
X76239888Y-72211502D01*
X76239895Y-72211502D01*
X76276390Y-72201723D01*
X76347365Y-72203413D01*
X76406161Y-72243207D01*
X76434109Y-72308472D01*
X76435000Y-72323430D01*
X76435000Y-73380999D01*
X77378568Y-73380999D01*
X77378578Y-73380999D01*
X77540484Y-73370635D01*
X77540492Y-73370634D01*
X77540496Y-73370633D01*
X77540498Y-73370633D01*
X77613428Y-73355779D01*
X77810289Y-73315686D01*
X77810294Y-73315685D01*
X78069210Y-73222041D01*
X78069219Y-73222037D01*
X78310171Y-73092537D01*
X78311434Y-73091882D01*
X78311729Y-73091700D01*
X78311747Y-73091691D01*
X78311749Y-73091690D01*
X78532721Y-72927414D01*
X78532727Y-72927408D01*
X78727411Y-72732725D01*
X78727414Y-72732721D01*
X78891690Y-72511749D01*
X78891691Y-72511747D01*
X78891700Y-72511729D01*
X78891882Y-72511434D01*
X78892537Y-72510171D01*
X79022037Y-72269219D01*
X79022041Y-72269210D01*
X79115685Y-72010294D01*
X79115686Y-72010289D01*
X79170635Y-71740487D01*
X79181000Y-71578579D01*
X79181000Y-70635000D01*
X78123430Y-70635000D01*
X78055309Y-70614998D01*
X78008816Y-70561342D01*
X77998712Y-70491068D01*
X78001721Y-70476397D01*
X78011502Y-70439895D01*
X78050000Y-70147473D01*
X78050000Y-69852527D01*
X78011502Y-69560105D01*
X78001723Y-69523609D01*
X78003413Y-69452635D01*
X78043207Y-69393839D01*
X78108472Y-69365891D01*
X78123430Y-69365000D01*
X79180999Y-69365000D01*
X79180999Y-68421432D01*
X79180999Y-68421430D01*
X79180999Y-68421422D01*
X79170635Y-68259515D01*
X79170634Y-68259507D01*
X79164369Y-68228747D01*
X79115752Y-67990036D01*
X79115686Y-67989712D01*
X79115686Y-67989710D01*
X79115685Y-67989705D01*
X79022041Y-67730789D01*
X79022039Y-67730784D01*
X79022038Y-67730781D01*
X78976856Y-67646714D01*
X78892554Y-67489857D01*
X78891885Y-67488568D01*
X78891695Y-67488260D01*
X78891691Y-67488252D01*
X78891690Y-67488250D01*
X78727414Y-67267278D01*
X78727412Y-67267275D01*
X78532723Y-67072586D01*
X78311753Y-66908312D01*
X78311749Y-66908309D01*
X78311747Y-66908308D01*
X78311743Y-66908305D01*
X78311423Y-66908109D01*
X78310095Y-66907420D01*
X78069223Y-66777963D01*
X78069214Y-66777959D01*
X78069192Y-66777951D01*
X77810296Y-66684314D01*
X77810287Y-66684312D01*
X77809961Y-66684246D01*
X77540490Y-66629364D01*
X77503123Y-66626972D01*
X77378580Y-66619000D01*
X77378570Y-66619000D01*
X76435000Y-66619000D01*
X76435000Y-67676569D01*
X76414998Y-67744690D01*
X76361342Y-67791183D01*
X76291068Y-67801287D01*
X76276392Y-67798277D01*
X76270077Y-67796585D01*
X76239895Y-67788498D01*
X76239888Y-67788497D01*
X76239882Y-67788495D01*
X75947475Y-67750000D01*
X75947473Y-67750000D01*
X75652527Y-67750000D01*
X75652524Y-67750000D01*
X75360117Y-67788495D01*
X75360111Y-67788497D01*
X75360109Y-67788497D01*
X75360105Y-67788498D01*
X75323608Y-67798277D01*
X75252631Y-67796585D01*
X75193836Y-67756789D01*
X75165891Y-67691524D01*
X75165000Y-67676569D01*
X75165000Y-66619000D01*
X74221422Y-66619000D01*
X74059515Y-66629364D01*
X74059507Y-66629365D01*
X74059506Y-66629365D01*
X74059498Y-66629366D01*
X73790035Y-66684246D01*
X73789714Y-66684311D01*
X73789702Y-66684314D01*
X73530806Y-66777951D01*
X73530784Y-66777959D01*
X73530775Y-66777963D01*
X73289903Y-66907420D01*
X73288582Y-66908105D01*
X73288245Y-66908312D01*
X73067275Y-67072586D01*
X72872586Y-67267275D01*
X72708312Y-67488245D01*
X72708105Y-67488582D01*
X72707420Y-67489903D01*
X72577963Y-67730775D01*
X72577959Y-67730784D01*
X72577951Y-67730806D01*
X72484314Y-67989702D01*
X72484311Y-67989712D01*
X72484246Y-67990036D01*
X72429365Y-68259502D01*
X72429364Y-68259510D01*
X72427636Y-68286496D01*
X72419000Y-68421420D01*
X72419000Y-69365000D01*
X73476570Y-69365000D01*
X73544691Y-69385002D01*
X73591184Y-69438658D01*
X73601288Y-69508932D01*
X73598278Y-69523602D01*
X73592773Y-69544146D01*
X73588496Y-69560111D01*
X73550000Y-69852524D01*
X73550000Y-70147475D01*
X73588496Y-70439888D01*
X73588498Y-70439895D01*
X73598276Y-70476390D01*
X73596587Y-70547365D01*
X73556793Y-70606161D01*
X73491528Y-70634109D01*
X73476570Y-70635000D01*
X72419001Y-70635000D01*
X72419001Y-71578577D01*
X72425909Y-71686515D01*
X72429364Y-71740489D01*
X72429365Y-71740496D01*
X72461093Y-71896277D01*
X72484312Y-72010284D01*
X72484314Y-72010295D01*
X72484314Y-72010296D01*
X72577951Y-72269192D01*
X72577959Y-72269214D01*
X72577963Y-72269223D01*
X72707420Y-72510095D01*
X72708109Y-72511423D01*
X72708305Y-72511743D01*
X72708308Y-72511747D01*
X72708309Y-72511749D01*
X72708312Y-72511753D01*
X72872585Y-72732721D01*
X72872588Y-72732725D01*
X73067271Y-72927408D01*
X73067274Y-72927410D01*
X73067276Y-72927412D01*
X73130399Y-72974339D01*
X73173134Y-73031032D01*
X73178435Y-73101830D01*
X73144617Y-73164255D01*
X73082419Y-73198488D01*
X73032454Y-73199382D01*
X72893288Y-73173809D01*
X72829904Y-73141825D01*
X72816602Y-73127240D01*
X72228275Y-72370818D01*
X72215035Y-72349811D01*
X71772802Y-71465344D01*
X71759500Y-71408995D01*
X71759500Y-68621823D01*
X71761052Y-68602108D01*
X72098368Y-66472802D01*
X72119913Y-66336801D01*
X72149687Y-66148847D01*
X72152824Y-66134510D01*
X72235228Y-65840950D01*
X72235229Y-65840943D01*
X72510916Y-64858802D01*
X72626258Y-64447893D01*
X72663925Y-64387713D01*
X72728149Y-64357451D01*
X72763194Y-64356918D01*
X73178121Y-64408784D01*
G37*
G04 #@! TD.AperFunction*
G04 #@! TD*
G04 #@! TA.AperFunction,Conductor*
G04 #@! TO.N,GND*
G36*
X73094297Y-75392322D02*
G01*
X73005586Y-75525089D01*
X72854872Y-75807057D01*
X72732520Y-76102439D01*
X72732519Y-76102442D01*
X72639712Y-76408390D01*
X72577338Y-76721961D01*
X72577336Y-76721978D01*
X72546000Y-77040134D01*
X72546000Y-77359865D01*
X72577336Y-77678021D01*
X72577338Y-77678038D01*
X72639712Y-77991609D01*
X72732519Y-78297557D01*
X72732520Y-78297560D01*
X72854872Y-78592942D01*
X73005586Y-78874910D01*
X73094297Y-79007675D01*
X73002736Y-79099237D01*
X72896524Y-78940279D01*
X72739927Y-78647307D01*
X72612802Y-78340402D01*
X72612801Y-78340398D01*
X72516370Y-78022505D01*
X72451560Y-77696686D01*
X72419000Y-77366104D01*
X72419000Y-77033895D01*
X72451560Y-76703313D01*
X72516370Y-76377494D01*
X72612801Y-76059601D01*
X72612802Y-76059597D01*
X72739927Y-75752692D01*
X72896524Y-75459719D01*
X72896528Y-75459712D01*
X73002735Y-75300761D01*
X73002736Y-75300761D01*
X73094297Y-75392322D01*
G37*
G04 #@! TD.AperFunction*
G04 #@! TA.AperFunction,Conductor*
G36*
X69589564Y-73973911D02*
G01*
X69549247Y-73873117D01*
X69542510Y-73850158D01*
X69502772Y-73643814D01*
X69500500Y-73619994D01*
X69500500Y-62824830D01*
X69520502Y-62756709D01*
X69535203Y-62737991D01*
X69991132Y-62258697D01*
X69589564Y-73973911D01*
G37*
G04 #@! TD.AperFunction*
G04 #@! TA.AperFunction,Conductor*
G36*
X86000000Y-68000000D02*
G01*
X88478005Y-65026392D01*
X88478005Y-65026393D01*
X88478006Y-65026392D01*
X86000000Y-68000000D01*
G37*
G04 #@! TD.AperFunction*
G04 #@! TD*
G04 #@! TA.AperFunction,Conductor*
G04 #@! TO.N,GND*
G36*
X71739035Y-83379385D02*
G01*
X72407137Y-82246142D01*
X82825399Y-81990480D01*
X82825399Y-81990479D01*
X86738732Y-86686479D01*
X86831900Y-86798281D01*
X86850702Y-86828813D01*
X86862300Y-86855563D01*
X86872700Y-86905686D01*
X86872700Y-87955100D01*
X88917400Y-87955100D01*
X88917400Y-87159699D01*
X88922503Y-87124205D01*
X88924012Y-87119064D01*
X88926977Y-87108964D01*
X88965326Y-87049267D01*
X88965604Y-87049025D01*
X88966524Y-87048228D01*
X89022762Y-87020199D01*
X89030886Y-87018464D01*
X89058148Y-87015693D01*
X90095052Y-87023599D01*
X90130507Y-87028974D01*
X90140535Y-87032002D01*
X90145714Y-87033566D01*
X90205142Y-87072404D01*
X90206502Y-87073998D01*
X90233867Y-87129449D01*
X90235418Y-87136707D01*
X90238200Y-87163038D01*
X90238200Y-87955100D01*
X92282900Y-87955100D01*
X92282900Y-87185361D01*
X92288003Y-87149867D01*
X92291487Y-87138000D01*
X92292477Y-87134626D01*
X92330856Y-87074902D01*
X92332063Y-87073857D01*
X92388262Y-87045861D01*
X92396382Y-87044127D01*
X92423648Y-87041355D01*
X94901752Y-87060249D01*
X94937203Y-87065623D01*
X94952416Y-87070217D01*
X95011836Y-87109049D01*
X95013197Y-87110644D01*
X95040567Y-87166100D01*
X95042118Y-87173358D01*
X95044900Y-87199689D01*
X95044900Y-87955100D01*
X97089600Y-87955100D01*
X97089600Y-87222012D01*
X97094703Y-87186518D01*
X97099177Y-87171279D01*
X97137556Y-87111553D01*
X97138763Y-87110508D01*
X97194962Y-87082512D01*
X97203082Y-87080778D01*
X97230348Y-87078006D01*
X98267249Y-87085911D01*
X98302706Y-87091286D01*
X98312078Y-87094116D01*
X98317915Y-87095879D01*
X98377342Y-87134717D01*
X98378702Y-87136311D01*
X98406067Y-87191762D01*
X98407618Y-87199020D01*
X98410400Y-87225351D01*
X98410400Y-87955100D01*
X100455100Y-87955100D01*
X100455100Y-87247674D01*
X100460203Y-87212180D01*
X100462635Y-87203897D01*
X100464677Y-87196939D01*
X100503026Y-87137242D01*
X100504100Y-87136311D01*
X100504224Y-87136203D01*
X100560462Y-87108174D01*
X100568589Y-87106439D01*
X100595848Y-87103668D01*
X102917230Y-87121368D01*
X102976083Y-87121817D01*
X102979099Y-87122413D01*
X102998266Y-87122034D01*
X103001725Y-87122013D01*
X103039223Y-87122299D01*
X103050440Y-87121001D01*
X103148297Y-87119064D01*
X103183881Y-87123463D01*
X103199212Y-87127637D01*
X103259685Y-87164830D01*
X103259692Y-87164839D01*
X103260480Y-87165713D01*
X103281762Y-87206699D01*
X103285774Y-87211778D01*
X103286092Y-87215037D01*
X103289747Y-87222076D01*
X103291747Y-87230848D01*
X103294900Y-87258857D01*
X103294900Y-87955100D01*
X105339600Y-87955100D01*
X105339600Y-87217339D01*
X105344703Y-87181845D01*
X105347805Y-87171279D01*
X105349177Y-87166604D01*
X105387556Y-87106880D01*
X105389460Y-87105230D01*
X105443961Y-87077611D01*
X105450515Y-87076117D01*
X105476012Y-87072993D01*
X106513797Y-87052453D01*
X106549389Y-87056854D01*
X106564715Y-87061027D01*
X106625149Y-87098180D01*
X106625939Y-87099055D01*
X106655248Y-87155467D01*
X106657248Y-87164240D01*
X106660400Y-87192246D01*
X106660400Y-87955100D01*
X108705100Y-87955100D01*
X108705100Y-87150728D01*
X108710203Y-87115234D01*
X108712658Y-87106872D01*
X108714677Y-87099993D01*
X108753056Y-87040269D01*
X108754966Y-87038615D01*
X108809461Y-87011002D01*
X108816006Y-87009510D01*
X108841514Y-87006383D01*
X111648297Y-86950830D01*
X111683887Y-86955230D01*
X111694283Y-86958061D01*
X111699215Y-86959404D01*
X111759649Y-86996557D01*
X111760439Y-86997432D01*
X111789748Y-87053844D01*
X111791462Y-87061365D01*
X111791748Y-87062617D01*
X111794900Y-87090623D01*
X111794900Y-87955100D01*
X113839600Y-87955100D01*
X113839600Y-87156115D01*
X113844703Y-87120621D01*
X113846285Y-87115234D01*
X113849177Y-87105380D01*
X113887556Y-87045656D01*
X113888965Y-87044436D01*
X113944686Y-87016549D01*
X113952370Y-87014878D01*
X113979148Y-87012000D01*
X115016285Y-87012000D01*
X115051777Y-87017102D01*
X115067021Y-87021578D01*
X115126746Y-87059960D01*
X115126758Y-87059974D01*
X115127963Y-87061365D01*
X115155846Y-87117072D01*
X115157518Y-87124755D01*
X115160400Y-87151548D01*
X115160400Y-87955100D01*
X117205100Y-87955100D01*
X117205100Y-86982494D01*
X117210203Y-86947000D01*
X117214677Y-86931761D01*
X117253056Y-86872035D01*
X117254960Y-86870385D01*
X117309461Y-86842766D01*
X117316015Y-86841272D01*
X117341512Y-86838148D01*
X119898297Y-86787544D01*
X119933887Y-86791944D01*
X119944283Y-86794775D01*
X119949215Y-86796118D01*
X120009649Y-86833271D01*
X120010439Y-86834146D01*
X120039748Y-86890558D01*
X120041748Y-86899331D01*
X120044900Y-86927337D01*
X120044900Y-87955100D01*
X122089600Y-87955100D01*
X122089600Y-87156115D01*
X122094703Y-87120621D01*
X122096285Y-87115234D01*
X122099177Y-87105380D01*
X122137556Y-87045656D01*
X122138965Y-87044436D01*
X122194686Y-87016549D01*
X122202370Y-87014878D01*
X122229148Y-87012000D01*
X123266285Y-87012000D01*
X123301777Y-87017102D01*
X123317021Y-87021578D01*
X123376746Y-87059960D01*
X123376758Y-87059974D01*
X123377963Y-87061365D01*
X123405846Y-87117072D01*
X123407518Y-87124755D01*
X123410400Y-87151548D01*
X123410400Y-87955100D01*
X125455100Y-87955100D01*
X125455100Y-86819208D01*
X125460203Y-86783714D01*
X125463235Y-86773386D01*
X125464677Y-86768473D01*
X125503039Y-86708763D01*
X125504938Y-86707118D01*
X125559462Y-86679480D01*
X125566023Y-86677985D01*
X125591512Y-86674862D01*
X125654130Y-86673624D01*
X127898297Y-86629206D01*
X127933883Y-86633605D01*
X127949215Y-86637779D01*
X128009684Y-86674972D01*
X128010492Y-86675867D01*
X128039748Y-86732220D01*
X128041748Y-86740993D01*
X128044900Y-86768999D01*
X128044900Y-87955100D01*
X130089600Y-87955100D01*
X130089600Y-87156115D01*
X130094703Y-87120621D01*
X130096285Y-87115234D01*
X130099177Y-87105380D01*
X130137556Y-87045656D01*
X130138965Y-87044436D01*
X130194686Y-87016549D01*
X130202370Y-87014878D01*
X130229148Y-87012000D01*
X131266285Y-87012000D01*
X131301777Y-87017102D01*
X131317021Y-87021578D01*
X131376746Y-87059960D01*
X131376758Y-87059974D01*
X131377963Y-87061365D01*
X131405846Y-87117072D01*
X131407518Y-87124755D01*
X131410400Y-87151548D01*
X131410400Y-87955100D01*
X133455100Y-87955100D01*
X133455100Y-86660870D01*
X133460203Y-86625376D01*
X133464677Y-86610137D01*
X133503045Y-86550421D01*
X133504939Y-86548779D01*
X133559471Y-86521140D01*
X133566023Y-86519647D01*
X133591513Y-86516525D01*
X136148296Y-86465921D01*
X136183883Y-86470320D01*
X136199212Y-86474494D01*
X136259684Y-86511686D01*
X136260492Y-86512582D01*
X136289748Y-86568935D01*
X136291748Y-86577708D01*
X136294900Y-86605714D01*
X136294900Y-87705100D01*
X138081249Y-87705100D01*
X138036272Y-87713401D01*
X137979779Y-87756402D01*
X137955502Y-87823119D01*
X137512052Y-94810115D01*
X137508786Y-94861564D01*
X137521686Y-94925595D01*
X137569903Y-94977707D01*
X137609196Y-94987865D01*
X137502759Y-94999692D01*
X137502737Y-94999694D01*
X136708957Y-95087892D01*
X136673110Y-95086739D01*
X136649305Y-95082531D01*
X136597722Y-95060785D01*
X136575757Y-95045005D01*
X136571027Y-95044345D01*
X136559899Y-95038637D01*
X136464035Y-94983289D01*
X136455702Y-94981056D01*
X136447372Y-94978824D01*
X136447370Y-94978823D01*
X136368520Y-94957696D01*
X136323001Y-94945500D01*
X136323000Y-94945500D01*
X136176998Y-94945500D01*
X136090685Y-94968627D01*
X136090684Y-94968626D01*
X136035973Y-94983286D01*
X136035961Y-94983291D01*
X135909533Y-95056284D01*
X135909530Y-95056287D01*
X135909509Y-95056306D01*
X135818107Y-95147709D01*
X135789398Y-95169201D01*
X135763221Y-95183495D01*
X135716749Y-95198137D01*
X128500000Y-96000000D01*
X120251118Y-96916541D01*
X120247315Y-96916905D01*
X120246172Y-96916997D01*
X120243485Y-96917214D01*
X120239692Y-96917461D01*
X118755758Y-96991817D01*
X118751974Y-96991950D01*
X118750556Y-96991978D01*
X118748140Y-96992026D01*
X118744330Y-96992044D01*
X95375000Y-96746052D01*
X72069873Y-96500734D01*
X72034433Y-96495257D01*
X72008754Y-96487423D01*
X71955957Y-96455532D01*
X71505195Y-96000000D01*
X71299178Y-95791803D01*
X71277840Y-95762985D01*
X71265094Y-95739348D01*
X71250000Y-95679549D01*
X71250000Y-81912279D01*
X71739035Y-83379385D01*
G37*
G04 #@! TD.AperFunction*
G04 #@! TA.AperFunction,Conductor*
G36*
X139551777Y-86767102D02*
G01*
X139567021Y-86771578D01*
X139626746Y-86809960D01*
X139626758Y-86809974D01*
X139627963Y-86811365D01*
X139655846Y-86867072D01*
X139657518Y-86874755D01*
X139660400Y-86901548D01*
X139660400Y-87201258D01*
X139647365Y-87145446D01*
X139599258Y-87093233D01*
X139530559Y-87075317D01*
X138461758Y-87107916D01*
X138413258Y-87119243D01*
X138359602Y-87165736D01*
X138339600Y-87233857D01*
X138339600Y-86906115D01*
X138344703Y-86870621D01*
X138349177Y-86855382D01*
X138387556Y-86795656D01*
X138388965Y-86794436D01*
X138444686Y-86766549D01*
X138452370Y-86764878D01*
X138479148Y-86762000D01*
X139516285Y-86762000D01*
X139551777Y-86767102D01*
G37*
G04 #@! TD.AperFunction*
G04 #@! TA.AperFunction,Conductor*
G36*
X77699237Y-79997263D02*
G01*
X77540279Y-80103475D01*
X77247307Y-80260072D01*
X76940402Y-80387197D01*
X76940398Y-80387198D01*
X76622505Y-80483629D01*
X76296686Y-80548439D01*
X75966104Y-80580999D01*
X75966089Y-80581000D01*
X75633911Y-80581000D01*
X75633895Y-80580999D01*
X75303313Y-80548439D01*
X74977494Y-80483629D01*
X74659601Y-80387198D01*
X74659597Y-80387197D01*
X74352692Y-80260072D01*
X74059720Y-80103475D01*
X73900761Y-79997262D01*
X73992321Y-79905701D01*
X74125086Y-79994411D01*
X74125089Y-79994413D01*
X74407057Y-80145127D01*
X74702439Y-80267479D01*
X74702442Y-80267480D01*
X75008390Y-80360287D01*
X75321961Y-80422661D01*
X75321978Y-80422663D01*
X75518893Y-80442057D01*
X75640122Y-80453998D01*
X75640127Y-80453998D01*
X75640134Y-80453999D01*
X75640150Y-80454000D01*
X75959837Y-80454000D01*
X75959850Y-80454000D01*
X75959865Y-80453999D01*
X76278021Y-80422663D01*
X76278038Y-80422661D01*
X76591609Y-80360287D01*
X76897557Y-80267480D01*
X76897560Y-80267479D01*
X77192942Y-80145127D01*
X77474910Y-79994413D01*
X77607675Y-79905701D01*
X77699237Y-79997263D01*
G37*
G04 #@! TD.AperFunction*
G04 #@! TA.AperFunction,Conductor*
G36*
X79100856Y-77920170D02*
G01*
X79103865Y-77920771D01*
X79083629Y-78022505D01*
X78987198Y-78340398D01*
X78987197Y-78340402D01*
X78860072Y-78647307D01*
X78703475Y-78940279D01*
X78597263Y-79099237D01*
X78505701Y-79007675D01*
X78594413Y-78874910D01*
X78745127Y-78592942D01*
X78867479Y-78297560D01*
X78867480Y-78297557D01*
X78955574Y-78007144D01*
X78994487Y-77947768D01*
X79059328Y-77918852D01*
X79100856Y-77920170D01*
G37*
G04 #@! TD.AperFunction*
G04 #@! TD*
G04 #@! TA.AperFunction,Conductor*
G04 #@! TO.N,GND*
G36*
X210161485Y-71510381D02*
G01*
X210235232Y-71512413D01*
X210251738Y-71512869D01*
X210251740Y-71512868D01*
X210251745Y-71512869D01*
X210310865Y-71510084D01*
X210344814Y-71505931D01*
X210360111Y-71505000D01*
X210416645Y-71505000D01*
X210441225Y-71507421D01*
X210480874Y-71515307D01*
X210491532Y-71517427D01*
X210506579Y-71521400D01*
X210548414Y-71535267D01*
X210604264Y-71549376D01*
X210690800Y-71564660D01*
X211604156Y-71658321D01*
X211721349Y-71658938D01*
X211797696Y-71651920D01*
X211852199Y-71642570D01*
X211922717Y-71650766D01*
X211977613Y-71695787D01*
X211999454Y-71763341D01*
X211999500Y-71766756D01*
X211999500Y-96433311D01*
X211994395Y-96468812D01*
X211986990Y-96494029D01*
X211953314Y-96549461D01*
X211550927Y-96935410D01*
X211521774Y-96956300D01*
X211498060Y-96968614D01*
X211437322Y-96982763D01*
X176888283Y-96250058D01*
X176852902Y-96244202D01*
X176831697Y-96237484D01*
X176780793Y-96206598D01*
X176777093Y-96202909D01*
X176761742Y-96184353D01*
X176761043Y-96183322D01*
X176595452Y-95938877D01*
X176579769Y-95906622D01*
X176572989Y-95885439D01*
X176568750Y-95826057D01*
X176569619Y-95820909D01*
X176575882Y-95797644D01*
X176687500Y-95500000D01*
X181159679Y-95500000D01*
X180853807Y-88795600D01*
X180949900Y-88795600D01*
X180949900Y-88192315D01*
X180955003Y-88156821D01*
X180959477Y-88141582D01*
X180997856Y-88081856D01*
X180999265Y-88080636D01*
X181054986Y-88052749D01*
X181062670Y-88051078D01*
X181089448Y-88048200D01*
X182405985Y-88048200D01*
X182441477Y-88053302D01*
X182456721Y-88057778D01*
X182516446Y-88096160D01*
X182516458Y-88096174D01*
X182517663Y-88097565D01*
X182545546Y-88153272D01*
X182547218Y-88160955D01*
X182550100Y-88187748D01*
X182550100Y-88795600D01*
X185953700Y-88795600D01*
X185953700Y-88098388D01*
X185958803Y-88062894D01*
X185961619Y-88053303D01*
X185963277Y-88047653D01*
X186001645Y-87987939D01*
X186003217Y-87986576D01*
X186058532Y-87958763D01*
X186065821Y-87957151D01*
X186092139Y-87954183D01*
X187367573Y-87945320D01*
X187651317Y-87943347D01*
X187686838Y-87948203D01*
X187702114Y-87952573D01*
X187762102Y-87990538D01*
X187763084Y-87991656D01*
X187763189Y-87991775D01*
X187791540Y-88047700D01*
X187793325Y-88055768D01*
X187796300Y-88082987D01*
X187796300Y-89250000D01*
X191199900Y-89250000D01*
X191199900Y-88646715D01*
X191205003Y-88611221D01*
X191209477Y-88595982D01*
X191247856Y-88536256D01*
X191249265Y-88535036D01*
X191304986Y-88507149D01*
X191312670Y-88505478D01*
X191339448Y-88502600D01*
X192655985Y-88502600D01*
X192691477Y-88507702D01*
X192706721Y-88512178D01*
X192766446Y-88550560D01*
X192766458Y-88550574D01*
X192767663Y-88551965D01*
X192795546Y-88607672D01*
X192797218Y-88615355D01*
X192800100Y-88642148D01*
X192800100Y-89250000D01*
X196203700Y-89250000D01*
X196203700Y-88027150D01*
X196208803Y-87991656D01*
X196213277Y-87976417D01*
X196251654Y-87916693D01*
X196253224Y-87915332D01*
X196308527Y-87887526D01*
X196315811Y-87885915D01*
X196342140Y-87882946D01*
X197401318Y-87875584D01*
X197436847Y-87880442D01*
X197452114Y-87884810D01*
X197512103Y-87922777D01*
X197513189Y-87924012D01*
X197541540Y-87979937D01*
X197543325Y-87988005D01*
X197546300Y-88015224D01*
X197546300Y-89250000D01*
X200949900Y-89250000D01*
X200949900Y-88646715D01*
X200955003Y-88611221D01*
X200959477Y-88595982D01*
X200997856Y-88536256D01*
X200999265Y-88535036D01*
X201054986Y-88507149D01*
X201062670Y-88505478D01*
X201089448Y-88502600D01*
X202405985Y-88502600D01*
X202441477Y-88507702D01*
X202456721Y-88512178D01*
X202516446Y-88550560D01*
X202516458Y-88550574D01*
X202517663Y-88551965D01*
X202545546Y-88607672D01*
X202547218Y-88615355D01*
X202550100Y-88642148D01*
X202550100Y-89250000D01*
X205953700Y-89250000D01*
X205953700Y-84250000D01*
X202897915Y-84250000D01*
X202862414Y-84244895D01*
X202847175Y-84240420D01*
X202787449Y-84202035D01*
X202787441Y-84202025D01*
X202786236Y-84200634D01*
X202758349Y-84144912D01*
X202756678Y-84137229D01*
X202753800Y-84110451D01*
X202753800Y-83945501D01*
X202753799Y-83751280D01*
X202753970Y-83744723D01*
X202754310Y-83738197D01*
X202754820Y-83731668D01*
X203627304Y-75394670D01*
X203636076Y-75359899D01*
X203640389Y-75349401D01*
X203684781Y-75293997D01*
X203752081Y-75271386D01*
X203820922Y-75288751D01*
X203862820Y-75329000D01*
X203864742Y-75331980D01*
X203875263Y-75352053D01*
X203892917Y-75394674D01*
X203949927Y-75532307D01*
X204106525Y-75825281D01*
X204212735Y-75984236D01*
X204212736Y-75984237D01*
X204918074Y-75278897D01*
X204980385Y-75244874D01*
X205051200Y-75249938D01*
X205108036Y-75292485D01*
X205116288Y-75304995D01*
X205135178Y-75337714D01*
X205314726Y-75571705D01*
X205314745Y-75571726D01*
X205523273Y-75780254D01*
X205523283Y-75780263D01*
X205523289Y-75780269D01*
X205523292Y-75780271D01*
X205523294Y-75780273D01*
X205757282Y-75959819D01*
X205790003Y-75978711D01*
X205838996Y-76030095D01*
X205852431Y-76099808D01*
X205826044Y-76165719D01*
X205816098Y-76176925D01*
X205110761Y-76882262D01*
X205110760Y-76882262D01*
X205269717Y-76988473D01*
X205269720Y-76988475D01*
X205562692Y-77145072D01*
X205869597Y-77272197D01*
X205869601Y-77272198D01*
X205869605Y-77272199D01*
X205869607Y-77272200D01*
X205871078Y-77272686D01*
X205872555Y-77273094D01*
X206187494Y-77368629D01*
X206513313Y-77433439D01*
X206513316Y-77433439D01*
X206513320Y-77433440D01*
X206843883Y-77465998D01*
X206843888Y-77465998D01*
X206843895Y-77465999D01*
X206843911Y-77466000D01*
X207176076Y-77466000D01*
X207176089Y-77466000D01*
X207176104Y-77465999D01*
X207431437Y-77440850D01*
X207506678Y-77433440D01*
X207506680Y-77433439D01*
X207506686Y-77433439D01*
X207832505Y-77368629D01*
X208147453Y-77273091D01*
X208148924Y-77272685D01*
X208150391Y-77272200D01*
X208150389Y-77272200D01*
X208150398Y-77272198D01*
X208150402Y-77272197D01*
X208457307Y-77145072D01*
X208750279Y-76988475D01*
X208909237Y-76882263D01*
X208203900Y-76176925D01*
X208169875Y-76114613D01*
X208174940Y-76043797D01*
X208217487Y-75986962D01*
X208229989Y-75978715D01*
X208262715Y-75959821D01*
X208496711Y-75780269D01*
X208705269Y-75571711D01*
X208867799Y-75359899D01*
X208884819Y-75337718D01*
X208884821Y-75337715D01*
X208903711Y-75304995D01*
X208955091Y-75256003D01*
X209024804Y-75242565D01*
X209090716Y-75268950D01*
X209101925Y-75278900D01*
X209807262Y-75984237D01*
X209807262Y-75984236D01*
X209807263Y-75984237D01*
X209913475Y-75825279D01*
X210070072Y-75532307D01*
X210197197Y-75225402D01*
X210197198Y-75225398D01*
X210197201Y-75225386D01*
X210197685Y-75223924D01*
X210198091Y-75222453D01*
X210293629Y-74907505D01*
X210358439Y-74581686D01*
X210390999Y-74251104D01*
X210391000Y-74251088D01*
X210391000Y-73918911D01*
X210390999Y-73918895D01*
X210358439Y-73588313D01*
X210293629Y-73262494D01*
X210198094Y-72947555D01*
X210197686Y-72946078D01*
X210197200Y-72944607D01*
X210197198Y-72944601D01*
X210197197Y-72944597D01*
X210070072Y-72637692D01*
X209913475Y-72344720D01*
X209807262Y-72185761D01*
X209101924Y-72891097D01*
X209039612Y-72925122D01*
X208968796Y-72920057D01*
X208911961Y-72877510D01*
X208903710Y-72865001D01*
X208884820Y-72832283D01*
X208735503Y-72637691D01*
X208705269Y-72598289D01*
X208705267Y-72598287D01*
X208705254Y-72598273D01*
X208496726Y-72389745D01*
X208496705Y-72389726D01*
X208262717Y-72210180D01*
X208229993Y-72191287D01*
X208181000Y-72139904D01*
X208167565Y-72070190D01*
X208193952Y-72004280D01*
X208203892Y-71993080D01*
X208781411Y-71415560D01*
X208843723Y-71381535D01*
X208883354Y-71379313D01*
X210161485Y-71510381D01*
G37*
G04 #@! TD.AperFunction*
G04 #@! TA.AperFunction,Conductor*
G36*
X205853324Y-70641081D02*
G01*
X205888430Y-70648385D01*
X205896178Y-70651195D01*
X205953397Y-70693224D01*
X205978810Y-70759517D01*
X205964349Y-70829025D01*
X205918485Y-70877423D01*
X205913673Y-70880337D01*
X205884984Y-70893133D01*
X205869630Y-70897790D01*
X205869591Y-70897804D01*
X205689806Y-70972274D01*
X205562692Y-71024927D01*
X205562689Y-71024928D01*
X205562688Y-71024929D01*
X205269738Y-71181513D01*
X205269695Y-71181538D01*
X205110761Y-71287734D01*
X205110760Y-71287735D01*
X205110761Y-71287735D01*
X205110761Y-71287736D01*
X205816099Y-71993074D01*
X205850123Y-72055385D01*
X205845059Y-72126200D01*
X205802512Y-72183036D01*
X205790006Y-72191285D01*
X205757291Y-72210173D01*
X205757288Y-72210175D01*
X205523294Y-72389726D01*
X205523273Y-72389745D01*
X205314745Y-72598273D01*
X205314726Y-72598294D01*
X205135175Y-72832288D01*
X205135173Y-72832291D01*
X205116285Y-72865006D01*
X205064901Y-72913998D01*
X204995187Y-72927432D01*
X204929277Y-72901043D01*
X204918080Y-72891105D01*
X204212736Y-72185761D01*
X204212732Y-72185761D01*
X204209953Y-72189921D01*
X204185996Y-72216594D01*
X204177465Y-72223725D01*
X204112371Y-72252067D01*
X204042287Y-72240717D01*
X203989466Y-72193279D01*
X203971076Y-72137337D01*
X203970769Y-72133579D01*
X203971033Y-72110188D01*
X204018992Y-71651919D01*
X204050773Y-71348228D01*
X204059543Y-71313460D01*
X204069888Y-71288285D01*
X204105055Y-71239980D01*
X204470855Y-70930554D01*
X204535779Y-70901832D01*
X204570845Y-70897218D01*
X204716883Y-70836734D01*
X204737390Y-70820998D01*
X204744087Y-70816201D01*
X204762358Y-70803993D01*
X204795194Y-70782053D01*
X204824333Y-70761314D01*
X204843051Y-70747140D01*
X204853387Y-70739135D01*
X204959758Y-70629477D01*
X205021544Y-70594510D01*
X205058042Y-70591454D01*
X205853324Y-70641081D01*
G37*
G04 #@! TD.AperFunction*
G04 #@! TD*
G04 #@! TA.AperFunction,Conductor*
G04 #@! TO.N,/SW1*
G36*
X136000000Y-74894736D02*
G01*
X129317243Y-74543012D01*
X129282064Y-74536049D01*
X129256267Y-74526977D01*
X129206666Y-74494837D01*
X128547062Y-73799603D01*
X128526332Y-73770339D01*
X128513863Y-73746004D01*
X128500000Y-73688546D01*
X128500000Y-73000000D01*
X128499999Y-72999999D01*
X128330353Y-72915175D01*
X128300888Y-72894737D01*
X128288376Y-72883099D01*
X128252687Y-72824197D01*
X128248994Y-72810746D01*
X128244499Y-72777391D01*
X128244499Y-72718943D01*
X128244499Y-72718936D01*
X128244498Y-72718927D01*
X128229734Y-72644699D01*
X128229733Y-72644697D01*
X128229733Y-72644696D01*
X128173483Y-72560515D01*
X128089302Y-72504266D01*
X128089299Y-72504265D01*
X128015070Y-72489500D01*
X128015068Y-72489500D01*
X127254936Y-72489500D01*
X127254931Y-72489500D01*
X127254925Y-72489501D01*
X127180698Y-72504265D01*
X127180696Y-72504265D01*
X127096515Y-72560515D01*
X127040266Y-72644696D01*
X127040265Y-72644699D01*
X127025500Y-72718926D01*
X127025500Y-73155484D01*
X127020396Y-73190983D01*
X127010890Y-73223357D01*
X126994832Y-73257751D01*
X126940990Y-73338513D01*
X126921849Y-73360989D01*
X126900655Y-73380652D01*
X126876811Y-73398056D01*
X125789919Y-74010481D01*
X125762681Y-74021860D01*
X125734884Y-74029802D01*
X125705742Y-74034531D01*
X125089582Y-74061321D01*
X125086890Y-74061409D01*
X125084172Y-74061469D01*
X125081391Y-74061500D01*
X121386342Y-74061500D01*
X121350841Y-74056395D01*
X121323564Y-74048385D01*
X121276140Y-74022355D01*
X121270904Y-74017778D01*
X120733727Y-73548211D01*
X120710359Y-73521005D01*
X120695711Y-73497993D01*
X120676521Y-73441741D01*
X120672550Y-73398056D01*
X120625272Y-72878001D01*
X120624886Y-72872306D01*
X120624628Y-72866605D01*
X120624499Y-72860909D01*
X120624499Y-72718943D01*
X120624499Y-72718936D01*
X120624498Y-72718927D01*
X120609610Y-72644077D01*
X120603016Y-72617329D01*
X120599870Y-72598578D01*
X120596410Y-72560515D01*
X120574082Y-72314904D01*
X120575951Y-72279102D01*
X120581256Y-72252234D01*
X120605875Y-72198697D01*
X121199782Y-71444512D01*
X121225749Y-71419785D01*
X121248061Y-71403920D01*
X121302743Y-71381948D01*
X126335227Y-70641877D01*
X128250000Y-70360294D01*
X130770612Y-69989615D01*
X135257981Y-69329709D01*
X135257981Y-69329708D01*
X136000000Y-69220587D01*
X136000000Y-74894736D01*
G37*
G04 #@! TD.AperFunction*
G04 #@! TD*
M02*
