G04 #@! TF.GenerationSoftware,KiCad,Pcbnew,10.0.5*
G04 #@! TF.CreationDate,2026-09-28T12:25:24-04:00*
G04 #@! TF.ProjectId,24-24-converter,32342d32-342d-4636-9f6e-766572746572,1.0*
G04 #@! TF.SameCoordinates,Original*
G04 #@! TF.FileFunction,Soldermask,Top*
G04 #@! TF.FilePolarity,Negative*
%FSLAX46Y46*%
G04 Gerber Fmt 4.6, Leading zero omitted, Abs format (unit mm)*
G04 Created by KiCad (PCBNEW 10.0.5) date 2026-09-28 12:25:24*
%MOMM*%
%LPD*%
G01*
G04 APERTURE LIST*
G04 Aperture macros list*
%AMRoundRect*
0 Rectangle with rounded corners*
0 $1 Rounding radius*
0 $2 $3 $4 $5 $6 $7 $8 $9 X,Y pos of 4 corners*
0 Add a 4 corners polygon primitive as box body*
4,1,4,$2,$3,$4,$5,$6,$7,$8,$9,$2,$3,0*
0 Add four circle primitives for the rounded corners*
1,1,$1+$1,$2,$3*
1,1,$1+$1,$4,$5*
1,1,$1+$1,$6,$7*
1,1,$1+$1,$8,$9*
0 Add four rect primitives between the rounded corners*
20,1,$1+$1,$2,$3,$4,$5,0*
20,1,$1+$1,$4,$5,$6,$7,0*
20,1,$1+$1,$6,$7,$8,$9,0*
20,1,$1+$1,$8,$9,$2,$3,0*%
G04 Aperture macros list end*
%ADD10RoundRect,0.250000X-0.475000X0.337500X-0.475000X-0.337500X0.475000X-0.337500X0.475000X0.337500X0*%
%ADD11RoundRect,0.250000X0.400000X0.625000X-0.400000X0.625000X-0.400000X-0.625000X0.400000X-0.625000X0*%
%ADD12R,1.219200X2.794000*%
%ADD13R,0.710000X1.372000*%
%ADD14R,0.710000X0.590000*%
%ADD15R,4.520000X3.850000*%
%ADD16C,2.500000*%
%ADD17RoundRect,0.250001X-0.462499X-0.624999X0.462499X-0.624999X0.462499X0.624999X-0.462499X0.624999X0*%
%ADD18R,0.850000X0.850000*%
%ADD19C,0.850000*%
%ADD20RoundRect,0.250000X-0.400000X-0.625000X0.400000X-0.625000X0.400000X0.625000X-0.400000X0.625000X0*%
%ADD21R,1.498600X3.302000*%
%ADD22R,6.299200X1.397000*%
%ADD23RoundRect,1.500000X-1.500000X1.500000X-1.500000X-1.500000X1.500000X-1.500000X1.500000X1.500000X0*%
%ADD24C,6.000000*%
%ADD25RoundRect,0.472500X1.102500X-5.777500X1.102500X5.777500X-1.102500X5.777500X-1.102500X-5.777500X0*%
%ADD26RoundRect,0.250001X0.462499X0.624999X-0.462499X0.624999X-0.462499X-0.624999X0.462499X-0.624999X0*%
G04 APERTURE END LIST*
D10*
G04 #@! TO.C,C21*
X174000000Y-82462500D03*
X174000000Y-84537500D03*
G04 #@! TD*
D11*
G04 #@! TO.C,R1*
X94487500Y-55500000D03*
X91387500Y-55500000D03*
G04 #@! TD*
D10*
G04 #@! TO.C,C10*
X169250000Y-87712500D03*
X169250000Y-89787500D03*
G04 #@! TD*
D12*
G04 #@! TO.C,C7*
X89577800Y-84040200D03*
X89577800Y-88459800D03*
G04 #@! TD*
D10*
G04 #@! TO.C,C19*
X160500000Y-87712500D03*
X160500000Y-89787500D03*
G04 #@! TD*
D13*
G04 #@! TO.C,M1_1*
X123825000Y-73430000D03*
X122555000Y-73430000D03*
X121285000Y-73430000D03*
X120015000Y-73430000D03*
D14*
X120015000Y-79361000D03*
X121285000Y-79361000D03*
X122555000Y-79361000D03*
X123825000Y-79361000D03*
D15*
X121920000Y-77141000D03*
G04 #@! TD*
D13*
G04 #@! TO.C,M4*
X150495000Y-79461000D03*
X151765000Y-79461000D03*
X153035000Y-79461000D03*
X154305000Y-79461000D03*
D14*
X154305000Y-73530000D03*
X153035000Y-73530000D03*
X151765000Y-73530000D03*
X150495000Y-73530000D03*
D15*
X152400000Y-75750000D03*
G04 #@! TD*
D16*
G04 #@! TO.C,H1*
X73000000Y-125000000D03*
G04 #@! TD*
D12*
G04 #@! TO.C,C1*
X139000000Y-83790200D03*
X139000000Y-88209800D03*
G04 #@! TD*
G04 #@! TO.C,C6*
X97750000Y-84040200D03*
X97750000Y-88459800D03*
G04 #@! TD*
D16*
G04 #@! TO.C,H4*
X74000000Y-58000000D03*
G04 #@! TD*
D10*
G04 #@! TO.C,C11*
X166000000Y-87925000D03*
X166000000Y-90000000D03*
G04 #@! TD*
D17*
G04 #@! TO.C,D1*
X84500000Y-55500000D03*
X87475000Y-55500000D03*
G04 #@! TD*
D18*
G04 #@! TO.C,J3*
X147750000Y-126500000D03*
D19*
X148750000Y-126500000D03*
G04 #@! TD*
D10*
G04 #@! TO.C,C25*
X164500000Y-82462500D03*
X164500000Y-84537500D03*
G04 #@! TD*
G04 #@! TO.C,C8*
X175750000Y-87712500D03*
X175750000Y-89787500D03*
G04 #@! TD*
G04 #@! TO.C,C20*
X158000000Y-87712500D03*
X158000000Y-89787500D03*
G04 #@! TD*
D13*
G04 #@! TO.C,M3*
X161925000Y-73980000D03*
X160655000Y-73980000D03*
X159385000Y-73980000D03*
X158115000Y-73980000D03*
D14*
X158115000Y-79911000D03*
X159385000Y-79911000D03*
X160655000Y-79911000D03*
X161925000Y-79911000D03*
D15*
X160020000Y-77691000D03*
G04 #@! TD*
D16*
G04 #@! TO.C,H3*
X208500000Y-125000000D03*
G04 #@! TD*
D13*
G04 #@! TO.C,M3_1*
X169545000Y-73539000D03*
X168275000Y-73539000D03*
X167005000Y-73539000D03*
X165735000Y-73539000D03*
D14*
X165735000Y-79470000D03*
X167005000Y-79470000D03*
X168275000Y-79470000D03*
X169545000Y-79470000D03*
D15*
X167640000Y-77250000D03*
G04 #@! TD*
D20*
G04 #@! TO.C,R2*
X192425000Y-56485000D03*
X195525000Y-56485000D03*
G04 #@! TD*
D21*
G04 #@! TO.C,C15*
X112250000Y-60795600D03*
X112250000Y-67704400D03*
G04 #@! TD*
D16*
G04 #@! TO.C,H2*
X209000000Y-57000000D03*
G04 #@! TD*
D21*
G04 #@! TO.C,C17*
X100500000Y-72917900D03*
X100500000Y-79826700D03*
G04 #@! TD*
D22*
G04 #@! TO.C,Rsense1*
X148500000Y-82391800D03*
X148500000Y-84500000D03*
G04 #@! TD*
D23*
G04 #@! TO.C,J2*
X207010000Y-66885000D03*
D24*
X207010000Y-74085000D03*
G04 #@! TD*
D10*
G04 #@! TO.C,C22*
X171500000Y-82462500D03*
X171500000Y-84537500D03*
G04 #@! TD*
G04 #@! TO.C,C9*
X172500000Y-87712500D03*
X172500000Y-89787500D03*
G04 #@! TD*
G04 #@! TO.C,C26*
X162000000Y-82522500D03*
X162000000Y-84597500D03*
G04 #@! TD*
D13*
G04 #@! TO.C,M2_1*
X135255000Y-79431000D03*
X136525000Y-79431000D03*
X137795000Y-79431000D03*
X139065000Y-79431000D03*
D14*
X139065000Y-73500000D03*
X137795000Y-73500000D03*
X136525000Y-73500000D03*
X135255000Y-73500000D03*
D15*
X137160000Y-75720000D03*
G04 #@! TD*
D21*
G04 #@! TO.C,C18*
X111750000Y-72795600D03*
X111750000Y-79704400D03*
G04 #@! TD*
G04 #@! TO.C,C14*
X101000000Y-60795600D03*
X101000000Y-67704400D03*
G04 #@! TD*
D10*
G04 #@! TO.C,C27*
X159500000Y-82522500D03*
X159500000Y-84597500D03*
G04 #@! TD*
D13*
G04 #@! TO.C,M1*
X131445000Y-73430000D03*
X130175000Y-73430000D03*
X128905000Y-73430000D03*
X127635000Y-73430000D03*
D14*
X127635000Y-79361000D03*
X128905000Y-79361000D03*
X130175000Y-79361000D03*
X131445000Y-79361000D03*
D15*
X129540000Y-77141000D03*
G04 #@! TD*
D21*
G04 #@! TO.C,C30*
X192000000Y-83295600D03*
X192000000Y-90204400D03*
G04 #@! TD*
D12*
G04 #@! TO.C,C2*
X130750000Y-84040200D03*
X130750000Y-88459800D03*
G04 #@! TD*
D25*
G04 #@! TO.C,L1*
X141125000Y-62750000D03*
X156675000Y-62750000D03*
G04 #@! TD*
D26*
G04 #@! TO.C,D3*
X201475000Y-56500000D03*
X198500000Y-56500000D03*
G04 #@! TD*
D21*
G04 #@! TO.C,C16*
X89500000Y-72923300D03*
X89500000Y-79832100D03*
G04 #@! TD*
D23*
G04 #@! TO.C,J1*
X75800000Y-70000000D03*
D24*
X75800000Y-77200000D03*
G04 #@! TD*
D21*
G04 #@! TO.C,C29*
X181750000Y-82841200D03*
X181750000Y-89750000D03*
G04 #@! TD*
D10*
G04 #@! TO.C,C24*
X166750000Y-82462500D03*
X166750000Y-84537500D03*
G04 #@! TD*
D12*
G04 #@! TO.C,C5*
X106000000Y-84040200D03*
X106000000Y-88459800D03*
G04 #@! TD*
G04 #@! TO.C,C4*
X114500000Y-84040200D03*
X114500000Y-88459800D03*
G04 #@! TD*
D10*
G04 #@! TO.C,C23*
X169000000Y-82425000D03*
X169000000Y-84500000D03*
G04 #@! TD*
G04 #@! TO.C,C12*
X163000000Y-87925000D03*
X163000000Y-90000000D03*
G04 #@! TD*
D12*
G04 #@! TO.C,C3*
X122750000Y-84040200D03*
X122750000Y-88459800D03*
G04 #@! TD*
D21*
G04 #@! TO.C,C31*
X201750000Y-83295600D03*
X201750000Y-90204400D03*
G04 #@! TD*
D13*
G04 #@! TO.C,M2*
X142845000Y-79461000D03*
X144115000Y-79461000D03*
X145385000Y-79461000D03*
X146655000Y-79461000D03*
D14*
X146655000Y-73530000D03*
X145385000Y-73530000D03*
X144115000Y-73530000D03*
X142845000Y-73530000D03*
D15*
X144750000Y-75750000D03*
G04 #@! TD*
D10*
G04 #@! TO.C,C28*
X157000000Y-82522500D03*
X157000000Y-84597500D03*
G04 #@! TD*
D21*
G04 #@! TO.C,C13*
X90500000Y-60468900D03*
X90500000Y-67377700D03*
G04 #@! TD*
M02*
