G04 #@! TF.GenerationSoftware,KiCad,Pcbnew,10.0.5*
G04 #@! TF.CreationDate,2026-09-28T12:25:24-04:00*
G04 #@! TF.ProjectId,24-24-converter,32342d32-342d-4636-9f6e-766572746572,1.0*
G04 #@! TF.SameCoordinates,Original*
G04 #@! TF.FileFunction,Soldermask,Bot*
G04 #@! TF.FilePolarity,Negative*
%FSLAX46Y46*%
G04 Gerber Fmt 4.6, Leading zero omitted, Abs format (unit mm)*
G04 Created by KiCad (PCBNEW 10.0.5) date 2026-09-28 12:25:24*
%MOMM*%
%LPD*%
G01*
G04 APERTURE LIST*
G04 Aperture macros list*
%AMRoundRect*
0 Rectangle with rounded corners*
0 $1 Rounding radius*
0 $2 $3 $4 $5 $6 $7 $8 $9 X,Y pos of 4 corners*
0 Add a 4 corners polygon primitive as box body*
4,1,4,$2,$3,$4,$5,$6,$7,$8,$9,$2,$3,0*
0 Add four circle primitives for the rounded corners*
1,1,$1+$1,$2,$3*
1,1,$1+$1,$4,$5*
1,1,$1+$1,$6,$7*
1,1,$1+$1,$8,$9*
0 Add four rect primitives between the rounded corners*
20,1,$1+$1,$2,$3,$4,$5,0*
20,1,$1+$1,$4,$5,$6,$7,0*
20,1,$1+$1,$6,$7,$8,$9,0*
20,1,$1+$1,$8,$9,$2,$3,0*%
G04 Aperture macros list end*
%ADD10C,2.500000*%
%ADD11R,0.850000X0.850000*%
%ADD12C,0.850000*%
%ADD13RoundRect,1.500000X-1.500000X1.500000X-1.500000X-1.500000X1.500000X-1.500000X1.500000X1.500000X0*%
%ADD14C,6.000000*%
%ADD15RoundRect,0.250000X-0.475000X0.337500X-0.475000X-0.337500X0.475000X-0.337500X0.475000X0.337500X0*%
%ADD16R,0.457200X1.346200*%
%ADD17RoundRect,0.237500X0.300000X0.237500X-0.300000X0.237500X-0.300000X-0.237500X0.300000X-0.237500X0*%
%ADD18RoundRect,0.237500X0.237500X-0.250000X0.237500X0.250000X-0.237500X0.250000X-0.237500X-0.250000X0*%
%ADD19RoundRect,0.250000X-0.337500X-0.475000X0.337500X-0.475000X0.337500X0.475000X-0.337500X0.475000X0*%
%ADD20RoundRect,0.250000X-0.350000X-0.450000X0.350000X-0.450000X0.350000X0.450000X-0.350000X0.450000X0*%
%ADD21RoundRect,0.237500X0.250000X0.237500X-0.250000X0.237500X-0.250000X-0.237500X0.250000X-0.237500X0*%
%ADD22RoundRect,0.237500X-0.250000X-0.237500X0.250000X-0.237500X0.250000X0.237500X-0.250000X0.237500X0*%
%ADD23RoundRect,0.237500X-0.300000X-0.237500X0.300000X-0.237500X0.300000X0.237500X-0.300000X0.237500X0*%
%ADD24RoundRect,0.250000X0.337500X0.475000X-0.337500X0.475000X-0.337500X-0.475000X0.337500X-0.475000X0*%
%ADD25RoundRect,0.237500X-0.237500X0.250000X-0.237500X-0.250000X0.237500X-0.250000X0.237500X0.250000X0*%
%ADD26RoundRect,0.250000X0.350000X0.450000X-0.350000X0.450000X-0.350000X-0.450000X0.350000X-0.450000X0*%
%ADD27RoundRect,0.250001X-0.462499X-0.624999X0.462499X-0.624999X0.462499X0.624999X-0.462499X0.624999X0*%
%ADD28R,1.400000X0.449999*%
%ADD29R,2.940000X5.620000*%
%ADD30R,1.168400X0.838200*%
G04 APERTURE END LIST*
D10*
G04 #@! TO.C,H1*
X73000000Y-125000000D03*
G04 #@! TD*
G04 #@! TO.C,H4*
X74000000Y-58000000D03*
G04 #@! TD*
D11*
G04 #@! TO.C,J3*
X147750000Y-126500000D03*
D12*
X148750000Y-126500000D03*
G04 #@! TD*
D10*
G04 #@! TO.C,H3*
X208500000Y-125000000D03*
G04 #@! TD*
G04 #@! TO.C,H2*
X209000000Y-57000000D03*
G04 #@! TD*
D13*
G04 #@! TO.C,J2*
X207010000Y-66885000D03*
D14*
X207010000Y-74085000D03*
G04 #@! TD*
D13*
G04 #@! TO.C,J1*
X75800000Y-70000000D03*
D14*
X75800000Y-77200000D03*
G04 #@! TD*
D15*
G04 #@! TO.C,Cboot1*
X150250000Y-110962500D03*
X150250000Y-113037500D03*
G04 #@! TD*
D16*
G04 #@! TO.C,Dboot1*
X154250000Y-112250000D03*
X154250000Y-110192600D03*
G04 #@! TD*
D17*
G04 #@! TO.C,Cslope1*
X138862500Y-108000000D03*
X137137500Y-108000000D03*
G04 #@! TD*
D18*
G04 #@! TO.C,Rvisns1*
X139000000Y-115662500D03*
X139000000Y-113837500D03*
G04 #@! TD*
D19*
G04 #@! TO.C,Cbias1*
X150212500Y-109000000D03*
X152287500Y-109000000D03*
G04 #@! TD*
D20*
G04 #@! TO.C,Rf1*
X149750000Y-98250000D03*
X151750000Y-98250000D03*
G04 #@! TD*
D21*
G04 #@! TO.C,Rt1*
X139162500Y-109500000D03*
X137337500Y-109500000D03*
G04 #@! TD*
D18*
G04 #@! TO.C,Rpg1*
X160000000Y-107250000D03*
X160000000Y-105425000D03*
G04 #@! TD*
G04 #@! TO.C,Ruvb1*
X146500000Y-115412500D03*
X146500000Y-113587500D03*
G04 #@! TD*
D19*
G04 #@! TO.C,Cboot2*
X150462500Y-105250000D03*
X152537500Y-105250000D03*
G04 #@! TD*
D16*
G04 #@! TO.C,Df1*
X147250000Y-98028700D03*
X147250000Y-95971300D03*
G04 #@! TD*
D22*
G04 #@! TO.C,Rcsg1*
X148087500Y-100500000D03*
X149912500Y-100500000D03*
G04 #@! TD*
D23*
G04 #@! TO.C,Cvcc1*
X150387500Y-107250000D03*
X152112500Y-107250000D03*
G04 #@! TD*
D15*
G04 #@! TO.C,Cf1*
X142000000Y-112962500D03*
X142000000Y-115037500D03*
G04 #@! TD*
D24*
G04 #@! TO.C,C32*
X139287500Y-104750000D03*
X137212500Y-104750000D03*
G04 #@! TD*
D18*
G04 #@! TO.C,Ruvt1*
X144250000Y-115162500D03*
X144250000Y-113337500D03*
G04 #@! TD*
D21*
G04 #@! TO.C,Rmode1*
X139162500Y-111000000D03*
X137337500Y-111000000D03*
G04 #@! TD*
D25*
G04 #@! TO.C,Rcsp1*
X155000000Y-99837500D03*
X155000000Y-101662500D03*
G04 #@! TD*
D26*
G04 #@! TO.C,Rcomp1*
X135250000Y-100500000D03*
X133250000Y-100500000D03*
G04 #@! TD*
D27*
G04 #@! TO.C,D2*
X155012500Y-103750000D03*
X157987500Y-103750000D03*
G04 #@! TD*
D24*
G04 #@! TO.C,Ccs1*
X151787500Y-102250000D03*
X149712500Y-102250000D03*
G04 #@! TD*
G04 #@! TO.C,C33*
X139287500Y-102750000D03*
X137212500Y-102750000D03*
G04 #@! TD*
D17*
G04 #@! TO.C,Css1*
X139362500Y-106500000D03*
X137637500Y-106500000D03*
G04 #@! TD*
D28*
G04 #@! TO.C,U1*
X141800001Y-110725000D03*
X141800001Y-110074999D03*
X141800001Y-109425000D03*
X141800001Y-108774999D03*
X141800001Y-108125001D03*
X141800001Y-107474999D03*
X141800001Y-106825001D03*
X141800001Y-106174999D03*
X141800001Y-105525001D03*
X141800001Y-104874999D03*
X141800001Y-104225001D03*
X141800001Y-103575000D03*
X141800001Y-102925001D03*
X141800001Y-102275000D03*
X147700002Y-102275000D03*
X147700002Y-102925001D03*
X147700002Y-103575000D03*
X147700002Y-104225001D03*
X147700002Y-104874999D03*
X147700002Y-105525001D03*
X147700002Y-106174999D03*
X147700002Y-106825001D03*
X147700002Y-107474999D03*
X147700002Y-108125001D03*
X147700002Y-108774999D03*
X147700002Y-109425000D03*
X147700002Y-110074999D03*
X147700002Y-110725000D03*
D29*
X144750000Y-106500000D03*
G04 #@! TD*
D30*
G04 #@! TO.C,Dboot2*
X154548200Y-107250000D03*
X157951800Y-107250000D03*
G04 #@! TD*
D25*
G04 #@! TO.C,Rfbt1*
X134000000Y-102337500D03*
X134000000Y-104162500D03*
G04 #@! TD*
D24*
G04 #@! TO.C,C34*
X139537500Y-100500000D03*
X137462500Y-100500000D03*
G04 #@! TD*
D21*
G04 #@! TO.C,Rfbb1*
X132162500Y-104000000D03*
X130337500Y-104000000D03*
G04 #@! TD*
M02*
